<svg width="178" height="267" viewBox="0 0 178 267" fill="none" xmlns="http://www.w3.org/2000/svg">
<path d="M166.891 0.359314H11.0989C5.03535 0.359314 0.119873 5.27498 0.119873 11.3388V256.021C0.119873 262.084 5.03535 267 11.0989 267H166.891C172.955 267 177.87 262.084 177.87 256.021V11.3388C177.87 5.27498 172.955 0.359314 166.891 0.359314Z" fill="white"/>
<path d="M11.7077 24.015C10.7894 25.3126 10.3203 26.8797 10.3203 28.6763C10.3203 30.5827 11.1488 32.2596 12.7857 33.6769C14.3727 35.0544 16.2991 35.7531 18.505 35.7531C20.9105 35.7531 22.8868 35.0444 24.394 33.657C25.9211 32.2396 26.6897 30.4729 26.6897 28.4068C26.6897 26.8996 26.2505 25.4723 25.3921 24.1847C24.8232 23.3463 24.0546 22.5478 23.0864 21.8092C23.9548 21.2103 24.6535 20.5515 25.1625 19.8229C25.991 18.6651 26.4102 17.3974 26.4102 16.0599C26.4102 14.1735 25.6815 12.5465 24.2442 11.219C22.8369 9.92143 21.0003 9.26266 18.7745 9.26266C16.369 9.26266 14.4326 9.92143 13.0252 11.219C11.5879 12.5465 10.8593 14.1735 10.8593 16.0599C10.8593 17.4972 11.2785 18.8048 12.107 19.9626C12.5861 20.6314 13.1949 21.2402 13.9136 21.7792C13.0053 22.458 12.2667 23.2066 11.6878 24.025L11.7077 24.015ZM15.9098 13.4149C16.4289 12.7661 17.3971 12.4467 18.7944 12.4467C20.0122 12.4467 20.8606 12.7761 21.3796 13.4648C21.9785 14.2433 22.258 15.1417 22.258 16.1897C22.258 17.088 22.0483 17.8366 21.6092 18.4854C21.2299 19.0443 20.6809 19.5434 19.9623 19.9626C18.3852 19.3238 17.1375 18.5952 16.2692 17.7967C15.4507 17.0481 15.0315 16.3194 15.0315 15.6307C15.0315 14.8622 15.311 14.1335 15.8999 13.4149H15.9098ZM15.2611 25.6021C15.6903 24.8135 16.2592 24.1448 16.9878 23.5659C18.7845 24.3644 20.1519 25.2228 21.0602 26.1311C21.9585 27.0294 22.3977 27.9077 22.3977 28.816C22.3977 29.9439 22.0983 30.8423 21.4794 31.5709C20.9205 32.2297 19.9223 32.569 18.505 32.569C17.3072 32.569 16.359 32.2197 15.5904 31.491C14.8418 30.7824 14.4825 29.8641 14.4825 28.6863C14.4825 27.5085 14.7321 26.5603 15.2511 25.612L15.2611 25.6021Z" fill="black"/>
<path d="M166.283 243.354C167.201 242.057 167.67 240.49 167.67 238.693C167.67 236.787 166.842 235.11 165.205 233.692C163.618 232.315 161.692 231.616 159.486 231.616C157.08 231.616 155.094 232.325 153.597 233.712C152.07 235.13 151.301 236.896 151.301 238.963C151.301 240.48 151.74 241.897 152.599 243.185C153.158 244.023 153.936 244.822 154.904 245.56C154.036 246.159 153.337 246.818 152.828 247.546C152 248.704 151.581 249.972 151.581 251.309C151.581 253.196 152.309 254.823 153.746 256.15C155.154 257.448 156.99 258.107 159.216 258.107C161.622 258.107 163.558 257.448 164.965 256.15C166.403 254.823 167.131 253.196 167.131 251.309C167.131 249.872 166.712 248.565 165.884 247.407C165.405 246.728 164.796 246.129 164.077 245.59C164.985 244.911 165.724 244.163 166.303 243.344L166.283 243.354ZM162.091 253.954C161.572 254.603 160.604 254.923 159.206 254.923C157.989 254.923 157.14 254.593 156.621 253.905C156.022 253.126 155.733 252.228 155.733 251.18C155.733 250.281 155.942 249.533 156.382 248.884C156.761 248.325 157.31 247.826 158.028 247.407C159.605 248.045 160.853 248.774 161.722 249.573C162.54 250.321 162.959 251.05 162.959 251.739C162.959 252.507 162.68 253.236 162.091 253.954ZM162.74 241.767C162.31 242.556 161.741 243.225 161.013 243.803C159.216 243.005 157.849 242.147 156.94 241.228C156.032 240.33 155.603 239.452 155.603 238.543C155.603 237.415 155.902 236.517 156.521 235.788C157.08 235.13 158.078 234.79 159.496 234.79C160.693 234.79 161.642 235.14 162.41 235.868C163.159 236.577 163.518 237.495 163.518 238.673C163.518 239.851 163.269 240.799 162.75 241.747L162.74 241.767Z" fill="black"/>
<path d="M48.0082 57.4524C50.6232 57.4524 52.9188 56.1449 54.2962 54.1486C54.7753 53.7294 55.3741 53.4799 56.0329 53.4V55.4861C56.0329 59.0494 53.1384 61.944 49.5752 61.944V62.6926H63.2191V61.944C59.6559 61.944 56.7615 59.0494 56.7615 55.4861V53.4C57.4202 53.4799 58.0191 53.7294 58.4982 54.1486C59.8755 56.1449 62.1811 57.4524 64.7861 57.4524C69.0081 57.4524 72.4315 54.0288 72.4315 49.8067C72.4315 45.5846 69.0081 42.1611 64.7861 42.1611C63.8479 42.1611 62.9596 42.3507 62.1312 42.6601C63.309 41.3126 64.0476 39.5759 64.0476 37.6495C64.0476 33.4274 60.6241 30.0038 56.4022 30.0038C52.1802 30.0038 48.7568 33.4274 48.7568 37.6495C48.7568 39.5759 49.4954 41.3226 50.6731 42.6601C49.8447 42.3507 48.9464 42.1611 48.0082 42.1611C43.7863 42.1611 40.3628 45.5846 40.3628 49.8067C40.3628 54.0288 43.7863 57.4524 48.0082 57.4524Z" fill="black"/>
<path d="M64.8061 209.867C62.2011 209.867 59.8955 211.175 58.5181 213.171C58.0391 213.59 57.4402 213.84 56.7815 213.919V211.833C56.7815 208.27 59.6759 205.385 63.2291 205.385V204.637H49.5852V205.385C53.1484 205.385 56.0429 208.28 56.0429 211.833V213.919C55.3841 213.84 54.7853 213.59 54.3062 213.171C52.9288 211.175 50.6232 209.867 48.0182 209.867C43.7963 209.867 40.3728 213.291 40.3728 217.513C40.3728 221.735 43.7963 225.158 48.0182 225.158C48.9564 225.158 49.8447 224.969 50.6831 224.659C49.5054 226.007 48.7668 227.744 48.7668 229.67C48.7668 233.892 52.1902 237.316 56.4122 237.316C60.6341 237.316 64.0576 233.892 64.0576 229.67C64.0576 227.744 63.319 225.997 62.1412 224.659C62.9696 224.969 63.8579 225.158 64.7962 225.158C69.0181 225.158 72.4416 221.735 72.4416 217.513C72.4416 213.291 69.0181 209.867 64.7962 209.867H64.8061Z" fill="black"/>
<path d="M129.982 42.1511C129.043 42.1511 128.155 42.3407 127.317 42.6501C128.495 41.3027 129.233 39.5659 129.233 37.6395C129.233 33.4174 125.81 29.9938 121.588 29.9938C117.366 29.9938 113.942 33.4174 113.942 37.6395C113.942 39.5659 114.681 41.3126 115.859 42.6501C115.03 42.3407 114.132 42.1511 113.194 42.1511C108.972 42.1511 105.548 45.5747 105.548 49.7968C105.548 54.0188 108.972 57.4424 113.194 57.4424C115.799 57.4424 118.104 56.1349 119.482 54.1386C119.961 53.7194 120.56 53.4699 121.218 53.39V55.4761C121.218 59.0394 118.324 61.934 114.761 61.934V62.6826H128.405V61.934C124.841 61.934 121.947 59.0394 121.947 55.4761V53.39C122.606 53.4699 123.205 53.7194 123.684 54.1386C125.061 56.1349 127.367 57.4424 129.972 57.4424C134.194 57.4424 137.617 54.0188 137.617 49.7968C137.617 45.5747 134.194 42.1511 129.972 42.1511H129.982Z" fill="black"/>
<path d="M129.982 209.867C127.377 209.867 125.071 211.175 123.694 213.171C123.215 213.59 122.616 213.84 121.957 213.919V211.833C121.957 208.27 124.852 205.385 128.415 205.385V204.637H114.771V205.385C118.334 205.385 121.228 208.28 121.228 211.833V213.919C120.57 213.84 119.971 213.59 119.492 213.171C118.114 211.175 115.809 209.867 113.204 209.867C108.982 209.867 105.558 213.291 105.558 217.513C105.558 221.735 108.982 225.158 113.204 225.158C114.142 225.158 115.03 224.969 115.869 224.659C114.691 226.007 113.952 227.744 113.952 229.67C113.952 233.892 117.376 237.316 121.598 237.316C125.82 237.316 129.243 233.892 129.243 229.67C129.243 227.744 128.505 225.997 127.327 224.659C128.155 224.969 129.053 225.158 129.992 225.158C134.214 225.158 137.637 221.735 137.637 217.513C137.637 213.291 134.214 209.867 129.992 209.867H129.982Z" fill="black"/>
<path d="M64.8062 129.478C63.868 129.478 62.9797 129.667 62.1512 129.977C63.329 128.629 64.0676 126.892 64.0676 124.966C64.0676 120.744 60.6441 117.32 56.4222 117.32C52.2002 117.32 48.7768 120.744 48.7768 124.966C48.7768 126.892 49.5154 128.639 50.6931 129.977C49.8647 129.667 48.9664 129.478 48.0282 129.478C43.8063 129.478 40.3828 132.901 40.3828 137.123C40.3828 141.345 43.8063 144.769 48.0282 144.769C50.6432 144.769 52.9388 143.461 54.3162 141.465C54.7953 141.046 55.3941 140.796 56.0529 140.716V142.793C56.0529 146.356 53.1584 149.251 49.5952 149.251V149.999H63.2392V149.251C59.676 149.251 56.7815 146.366 56.7815 142.793V140.716C57.4402 140.796 58.0391 141.046 58.5182 141.465C59.8955 143.461 62.2011 144.769 64.8062 144.769C69.0281 144.769 72.4516 141.345 72.4516 137.123C72.4516 132.901 69.0281 129.478 64.8062 129.478Z" fill="black"/>
<path d="M105.538 137.123C105.538 141.345 108.962 144.769 113.184 144.769C115.789 144.769 118.094 143.461 119.472 141.465C119.951 141.046 120.55 140.796 121.208 140.716V142.793C121.208 146.356 118.314 149.251 114.751 149.251V149.999H128.395V149.251C124.831 149.251 121.937 146.366 121.937 142.793V140.716C122.596 140.796 123.195 141.046 123.674 141.465C125.051 143.461 127.357 144.769 129.962 144.769C134.184 144.769 137.607 141.345 137.607 137.123C137.607 132.901 134.184 129.478 129.962 129.478C129.023 129.478 128.135 129.667 127.297 129.977C128.474 128.629 129.213 126.892 129.213 124.966C129.213 120.744 125.79 117.32 121.568 117.32C117.346 117.32 113.922 120.744 113.922 124.966C113.922 126.892 114.661 128.639 115.839 129.977C115.01 129.667 114.112 129.478 113.174 129.478C108.952 129.478 105.528 132.901 105.528 137.123H105.538Z" fill="black"/>
<path d="M80.6061 102.029C83.2112 102.029 85.5168 100.721 86.8941 98.7251C87.3732 98.3059 87.9721 98.0564 88.6308 97.9765V100.063C88.6308 103.626 85.7363 106.521 82.1831 106.521V107.269H95.8271V106.521C92.2639 106.521 89.3794 103.636 89.3794 100.063V97.9765C90.0381 98.0564 90.637 98.3059 91.1161 98.7251C92.4934 100.721 94.799 102.029 97.4041 102.029C101.626 102.029 105.049 98.6053 105.049 94.3832C105.049 90.1611 101.626 86.7376 97.4041 86.7376C96.4658 86.7376 95.5775 86.9272 94.7491 87.2366C95.9269 85.8891 96.6655 84.1524 96.6655 82.226C96.6655 78.0039 93.242 74.5803 89.0201 74.5803C84.7981 74.5803 81.3747 78.0039 81.3747 82.226C81.3747 84.1524 82.1133 85.8891 83.291 87.2366C82.4626 86.9272 81.5643 86.7376 80.6261 86.7376C76.4042 86.7376 72.9807 90.1611 72.9807 94.3832C72.9807 98.6053 76.4042 102.029 80.6261 102.029H80.6061Z" fill="black"/>
<path d="M97.394 165.34C94.789 165.34 92.4834 166.648 91.106 168.644C90.627 169.063 90.0281 169.313 89.3694 169.393V167.307C89.3694 163.743 92.2538 160.849 95.817 160.849V160.1H82.1731V160.849C85.7363 160.849 88.6308 163.743 88.6308 167.307V169.393C87.972 169.313 87.3732 169.063 86.8941 168.644C85.5167 166.648 83.2111 165.34 80.6061 165.34C76.3842 165.34 72.9607 168.764 72.9607 172.986C72.9607 177.208 76.3842 180.632 80.6061 180.632C81.5443 180.632 82.4326 180.442 83.271 180.133C82.0933 181.48 81.3547 183.217 81.3547 185.143C81.3547 189.365 84.7781 192.789 89.0001 192.789C93.222 192.789 96.6455 189.365 96.6455 185.143C96.6455 183.217 95.9069 181.47 94.7291 180.133C95.5575 180.442 96.4458 180.632 97.384 180.632C101.606 180.632 105.029 177.208 105.029 172.986C105.029 168.764 101.606 165.34 97.384 165.34H97.394Z" fill="black"/>
<path d="M9.57178 53.1405C9.57178 55.526 11.4982 57.4524 13.8837 57.4524C15.351 57.4524 16.6485 56.7138 17.4271 55.5859C17.6966 55.3464 18.0359 55.2066 18.4052 55.1667V56.3445C18.4052 58.3507 16.7783 59.9777 14.772 59.9777V60.3969H22.4576V59.9777C20.4514 59.9777 18.8245 58.3507 18.8245 56.3445V55.1667C19.1938 55.2166 19.5331 55.3563 19.8026 55.5859C20.5812 56.7138 21.8787 57.4524 23.346 57.4524C25.7315 57.4524 27.6579 55.526 27.6579 53.1405C27.6579 50.755 25.7315 48.8286 23.346 48.8286C22.817 48.8286 22.3179 48.9384 21.8488 49.108C22.5076 48.3495 22.9268 47.3713 22.9268 46.2833C22.9268 43.9078 21.0004 41.9714 18.6148 41.9714C16.2293 41.9714 14.3029 43.8978 14.3029 46.2833C14.3029 47.3713 14.7221 48.3495 15.3809 49.108C14.9118 48.9384 14.4127 48.8286 13.8837 48.8286C11.5082 48.8286 9.57178 50.755 9.57178 53.1405Z" fill="black"/>
<path d="M168.429 214.219C168.429 211.833 166.503 209.907 164.117 209.907C162.65 209.907 161.352 210.646 160.574 211.773C160.304 212.013 159.965 212.153 159.595 212.193V211.025C159.595 209.019 161.222 207.392 163.229 207.392V206.972H155.543V207.392C157.549 207.392 159.176 209.019 159.176 211.025V212.193C158.807 212.143 158.468 212.003 158.198 211.773C157.42 210.646 156.122 209.907 154.655 209.907C152.279 209.907 150.343 211.833 150.343 214.219C150.343 216.604 152.269 218.531 154.655 218.531C155.184 218.531 155.683 218.421 156.152 218.241C155.493 219 155.074 219.978 155.074 221.066C155.074 223.452 157 225.378 159.386 225.378C161.771 225.378 163.698 223.452 163.698 221.066C163.698 219.978 163.279 219 162.62 218.241C163.089 218.421 163.588 218.531 164.117 218.531C166.503 218.531 168.429 216.604 168.429 214.219Z" fill="black"/>
</svg>
