<svg width="178" height="267" viewBox="0 0 178 267" fill="none" xmlns="http://www.w3.org/2000/svg">
<path d="M166.771 0.359314H10.979C4.91548 0.359314 0 5.27498 0 11.3388V256.021C0 262.084 4.91548 267 10.979 267H166.771C172.835 267 177.75 262.084 177.75 256.021V11.3388C177.75 5.27498 172.835 0.359314 166.771 0.359314Z" fill="white"/>
<path d="M18.9442 31.7306C18.9442 32.1598 18.8444 32.2696 18.8444 32.2696C18.8444 32.2696 18.6647 32.4193 17.966 32.4193H15.3309V35.4736H26.7096V32.4193H24.3541C23.9648 32.4193 23.6554 32.3494 23.4957 32.2297C23.4358 32.1897 23.3859 32.0201 23.3859 31.7306V28.2571H27.1289V25.2028H23.3859V9.24271H20.2717L9.6416 26.1311V28.2571H18.9342V31.7306H18.9442ZM14.0134 25.2128L18.9442 17.3675V25.2128H14.0134Z" fill="black"/>
<path d="M158.807 235.629C158.807 235.2 158.907 235.08 158.907 235.08C158.907 235.08 159.086 234.93 159.785 234.93H162.42V231.876H151.042V234.93H153.397C153.786 234.93 154.086 235 154.256 235.12C154.305 235.16 154.365 235.329 154.365 235.619V239.092H150.622V242.147H154.365V258.107H157.479L168.11 241.218V239.092H158.807V235.619V235.629ZM163.738 242.157L158.807 250.002V242.157H163.738Z" fill="black"/>
<path d="M64.6864 42.1511C63.7482 42.1511 62.8599 42.3407 62.0315 42.6501C63.2092 41.3027 63.9478 39.5659 63.9478 37.6395C63.9478 33.4174 60.5244 29.9938 56.3024 29.9938C52.0805 29.9938 48.657 33.4174 48.657 37.6395C48.657 39.5659 49.3956 41.3126 50.5734 42.6501C49.7449 42.3407 48.8566 42.1511 47.9085 42.1511C43.6865 42.1511 40.2631 45.5747 40.2631 49.7968C40.2631 54.0188 43.6865 57.4424 47.9085 57.4424C50.5235 57.4424 52.8191 56.1349 54.1964 54.1386C54.6755 53.7194 55.2744 53.4699 55.9331 53.39V55.4761C55.9331 59.0394 53.0387 61.934 49.4755 61.934V62.6826H63.1194V61.934C59.5562 61.934 56.6617 59.0394 56.6617 55.4761V53.39C57.3205 53.4699 57.9193 53.7194 58.3984 54.1386C59.7758 56.1349 62.0814 57.4424 64.6864 57.4424C68.9083 57.4424 72.3318 54.0188 72.3318 49.7968C72.3318 45.5747 68.9083 42.1511 64.6864 42.1511Z" fill="black"/>
<path d="M64.6864 209.867C62.0814 209.867 59.7758 211.175 58.3984 213.171C57.9193 213.59 57.3205 213.84 56.6617 213.919V211.833C56.6617 208.27 59.5562 205.385 63.1194 205.385V204.637H49.4755V205.385C53.0387 205.385 55.9331 208.28 55.9331 211.833V213.919C55.2744 213.84 54.6755 213.59 54.1964 213.171C52.8191 211.175 50.5135 209.867 47.9085 209.867C43.6865 209.867 40.2631 213.291 40.2631 217.513C40.2631 221.735 43.6865 225.158 47.9085 225.158C48.8467 225.158 49.735 224.969 50.5734 224.659C49.3956 226.007 48.657 227.744 48.657 229.67C48.657 233.892 52.0805 237.316 56.3024 237.316C60.5244 237.316 63.9478 233.892 63.9478 229.67C63.9478 227.744 63.2092 225.997 62.0315 224.659C62.8599 224.969 63.7582 225.158 64.6864 225.158C68.9083 225.158 72.3318 221.735 72.3318 217.513C72.3318 213.291 68.9083 209.867 64.6864 209.867Z" fill="black"/>
<path d="M129.862 42.1511C128.924 42.1511 128.035 42.3407 127.197 42.6501C128.375 41.3027 129.113 39.5659 129.113 37.6395C129.113 33.4174 125.69 29.9938 121.468 29.9938C117.246 29.9938 113.823 33.4174 113.823 37.6395C113.823 39.5659 114.561 41.3126 115.739 42.6501C114.91 42.3407 114.012 42.1511 113.074 42.1511C108.852 42.1511 105.429 45.5747 105.429 49.7968C105.429 54.0188 108.852 57.4424 113.074 57.4424C115.679 57.4424 117.985 56.1349 119.362 54.1386C119.841 53.7194 120.44 53.4699 121.099 53.39V55.4761C121.099 59.0394 118.204 61.934 114.641 61.934V62.6826H128.285V61.934C124.722 61.934 121.827 59.0394 121.827 55.4761V53.39C122.486 53.4699 123.085 53.7194 123.564 54.1386C124.941 56.1349 127.247 57.4424 129.852 57.4424C134.074 57.4424 137.497 54.0188 137.497 49.7968C137.497 45.5747 134.074 42.1511 129.852 42.1511H129.862Z" fill="black"/>
<path d="M129.862 209.867C127.257 209.867 124.951 211.175 123.574 213.171C123.095 213.59 122.496 213.84 121.837 213.919V211.833C121.837 208.27 124.722 205.385 128.285 205.385V204.637H114.641V205.385C118.204 205.385 121.099 208.28 121.099 211.833V213.919C120.44 213.84 119.841 213.59 119.362 213.171C117.985 211.175 115.679 209.867 113.074 209.867C108.852 209.867 105.429 213.291 105.429 217.513C105.429 221.735 108.852 225.158 113.074 225.158C114.012 225.158 114.9 224.969 115.739 224.659C114.561 226.007 113.823 227.744 113.823 229.67C113.823 233.892 117.246 237.316 121.468 237.316C125.69 237.316 129.113 233.892 129.113 229.67C129.113 227.744 128.375 225.997 127.197 224.659C128.025 224.969 128.924 225.158 129.862 225.158C134.084 225.158 137.507 221.735 137.507 217.513C137.507 213.291 134.084 209.867 129.862 209.867Z" fill="black"/>
<path d="M9.4519 53.1405C9.4519 55.526 11.3783 57.4524 13.7638 57.4524C15.2311 57.4524 16.5287 56.7138 17.3072 55.5859C17.5767 55.3464 17.9161 55.2066 18.2854 55.1667V56.3445C18.2854 58.3507 16.6584 59.9777 14.6522 59.9777V60.3969H22.3378V59.9777C20.3315 59.9777 18.7046 58.3507 18.7046 56.3445V55.1667C19.0739 55.2166 19.4132 55.3563 19.6827 55.5859C20.4613 56.7138 21.7589 57.4524 23.2261 57.4524C25.6116 57.4524 27.538 55.526 27.538 53.1405C27.538 50.755 25.6116 48.8286 23.2261 48.8286C22.6971 48.8286 22.198 48.9384 21.7289 49.108C22.3877 48.3495 22.8069 47.3713 22.8069 46.2833C22.8069 43.9078 20.8805 41.9714 18.495 41.9714C16.1094 41.9714 14.183 43.8978 14.183 46.2833C14.183 47.3713 14.6023 48.3495 15.261 49.108C14.7919 48.9384 14.2928 48.8286 13.7638 48.8286C11.3883 48.8286 9.4519 50.755 9.4519 53.1405Z" fill="black"/>
<path d="M168.299 214.219C168.299 211.833 166.373 209.907 163.987 209.907C162.52 209.907 161.223 210.646 160.444 211.773C160.174 212.013 159.835 212.153 159.466 212.193V211.025C159.466 209.019 161.093 207.392 163.099 207.392V206.972H155.413V207.392C157.42 207.392 159.047 209.019 159.047 211.025V212.193C158.677 212.143 158.338 212.003 158.068 211.773C157.29 210.646 155.992 209.907 154.525 209.907C152.14 209.907 150.213 211.833 150.213 214.219C150.213 216.604 152.14 218.531 154.525 218.531C155.054 218.531 155.553 218.421 156.022 218.241C155.363 219 154.944 219.978 154.944 221.066C154.944 223.452 156.871 225.378 159.256 225.378C161.642 225.378 163.568 223.452 163.568 221.066C163.568 219.978 163.149 219 162.49 218.241C162.959 218.421 163.458 218.531 163.987 218.531C166.373 218.531 168.299 216.604 168.299 214.219Z" fill="black"/>
</svg>
