<svg width="178" height="267" viewBox="0 0 178 267" fill="none" xmlns="http://www.w3.org/2000/svg">
<path d="M166.771 0.359314H10.979C4.91548 0.359314 0 5.27498 0 11.3388V256.021C0 262.084 4.91548 267 10.979 267H166.771C172.835 267 177.75 262.084 177.75 256.021V11.3388C177.75 5.27498 172.835 0.359314 166.771 0.359314Z" fill="white"/>
<path d="M15.9697 29.4848C15.9697 29.0157 15.81 28.4966 15.4806 27.9078C14.742 26.5703 12.7756 26.1411 11.3882 27.7081C10.8293 28.327 10.5498 29.0656 10.5498 29.904C10.5498 31.4611 11.2984 32.8385 12.7856 33.9764C14.183 35.0544 15.8599 35.5934 17.7663 35.5934C20.3814 35.5934 22.4675 34.8048 23.9747 33.2478C25.4719 31.7006 26.2304 29.8741 26.2304 27.8279C26.2304 26.4205 25.8012 25.0132 24.9528 23.6358C24.4039 22.7474 23.5654 21.9589 22.4475 21.3001C23.0763 20.8709 23.5954 20.3719 24.0046 19.8029C24.8331 18.6451 25.2523 17.2377 25.2523 15.6208C25.2523 14.0038 24.5935 12.5465 23.276 11.1791C21.9485 9.80166 20.1917 9.10297 18.0358 9.10297C16.2292 9.10297 14.6122 9.62199 13.2148 10.6401C11.7176 11.738 10.959 13.1853 10.959 14.9321C10.959 16.01 11.2485 16.8085 11.8274 17.2976C12.3464 17.7468 12.9553 17.9863 13.5941 17.9863C14.6521 17.9863 15.2111 17.4972 15.4906 17.078C15.8 16.6189 15.9597 16.04 15.9597 15.3513C15.9597 14.7823 15.7501 14.2733 15.4706 14.0337C15.4706 14.0337 15.4007 13.8541 15.4007 13.2752C15.4007 13.0556 15.4307 12.8759 15.8499 12.6962C17.7962 11.8378 19.1537 12.3369 19.8424 13.2951C20.4014 14.0836 20.6808 14.982 20.6808 16.05C20.6808 17.3276 20.3514 18.2758 19.6927 18.9445C19.0339 19.6033 17.916 19.9327 16.3789 19.9327H15.271V23.1267H16.3789C18.4051 23.1267 19.8224 23.526 20.4612 24.2646C21.1699 25.083 21.5093 26.161 21.5093 27.5584C21.5093 29.3151 21.1799 30.5827 20.5311 31.3413C19.9123 32.06 18.964 32.4093 17.6266 32.4093C16.9778 32.4093 16.3989 32.2696 15.8599 31.9801C15.6403 31.8603 15.4107 31.6907 15.4107 31.5709C15.4107 31.5409 15.4107 31.4012 15.5005 31.2116C15.81 30.7524 15.9697 30.1735 15.9697 29.4848Z" fill="black"/>
<path d="M161.791 237.885C161.791 238.354 161.951 238.873 162.28 239.462C163.029 240.799 164.985 241.228 166.373 239.661C166.922 239.042 167.211 238.294 167.211 237.465C167.211 235.908 166.463 234.531 164.975 233.393C163.578 232.315 161.901 231.776 159.995 231.776C157.38 231.776 155.293 232.565 153.786 234.122C152.289 235.669 151.531 237.495 151.531 239.541C151.531 240.949 151.96 242.356 152.808 243.734C153.357 244.632 154.196 245.41 155.313 246.069C154.685 246.498 154.166 246.997 153.756 247.566C152.928 248.724 152.509 250.132 152.509 251.749C152.509 253.366 153.167 254.823 154.485 256.19C155.812 257.568 157.569 258.266 159.725 258.266C161.532 258.266 163.149 257.747 164.546 256.739C166.043 255.641 166.802 254.194 166.802 252.447C166.802 251.369 166.502 250.571 165.924 250.082C165.405 249.633 164.796 249.393 164.157 249.393C163.099 249.393 162.54 249.882 162.26 250.301C161.951 250.76 161.801 251.339 161.801 252.028C161.801 252.597 162.011 253.106 162.29 253.346C162.29 253.346 162.36 253.525 162.36 254.104C162.36 254.324 162.33 254.503 161.911 254.683C159.965 255.541 158.607 255.042 157.919 254.084C157.36 253.296 157.08 252.397 157.08 251.329C157.08 250.052 157.41 249.104 158.078 248.435C158.747 247.766 159.845 247.437 161.382 247.437H162.49V244.243H161.382C159.356 244.243 157.939 243.843 157.3 243.095C156.591 242.276 156.252 241.198 156.252 239.801C156.252 238.044 156.581 236.777 157.23 236.018C157.849 235.299 158.797 234.95 160.134 234.95C160.783 234.95 161.362 235.09 161.901 235.369C162.121 235.489 162.35 235.659 162.35 235.779C162.35 235.808 162.35 235.948 162.26 236.138C161.951 236.597 161.801 237.176 161.801 237.865L161.791 237.885Z" fill="black"/>
<path d="M97.2741 42.1511C96.3359 42.1511 95.4476 42.3407 94.6092 42.6501C95.787 41.3027 96.5256 39.5659 96.5256 37.6395C96.5256 33.4174 93.1021 29.9938 88.8802 29.9938C84.6582 29.9938 81.2348 33.4174 81.2348 37.6395C81.2348 39.5659 81.9734 41.3126 83.1511 42.6501C82.3227 42.3407 81.4244 42.1511 80.4862 42.1511C76.2643 42.1511 72.8408 45.5747 72.8408 49.7968C72.8408 54.0188 76.2643 57.4424 80.4862 57.4424C83.0912 57.4424 85.3968 56.1349 86.7742 54.1386C87.2533 53.7194 87.8521 53.4699 88.5109 53.39V55.4761C88.5109 59.0394 85.6164 61.934 82.0532 61.934V62.6826H95.6972V61.934C92.134 61.934 89.2395 59.0394 89.2395 55.4761V53.39C89.8982 53.4699 90.4971 53.7194 90.9762 54.1386C92.3535 56.1349 94.6591 57.4424 97.2642 57.4424C101.486 57.4424 104.91 54.0188 104.91 49.7968C104.91 45.5747 101.486 42.1511 97.2642 42.1511H97.2741Z" fill="black"/>
<path d="M97.2741 129.507C96.3359 129.507 95.4476 129.697 94.6092 130.007C95.787 128.659 96.5256 126.922 96.5256 124.996C96.5256 120.774 93.1021 117.35 88.8802 117.35C84.6582 117.35 81.2348 120.774 81.2348 124.996C81.2348 126.922 81.9734 128.659 83.1511 130.007C82.3227 129.697 81.4244 129.507 80.4862 129.507C76.2643 129.507 72.8408 132.931 72.8408 137.153C72.8408 141.375 76.2643 144.809 80.4862 144.809C83.0912 144.809 85.3968 143.491 86.7742 141.505C87.2533 141.086 87.8521 140.836 88.5109 140.756V142.833C88.5109 146.396 85.6164 149.29 82.0532 149.29V150.039H95.6972V149.29C92.134 149.29 89.2395 146.396 89.2395 142.833V140.756C89.8982 140.836 90.4971 141.086 90.9762 141.505C92.3535 143.501 94.6591 144.819 97.2642 144.819C101.486 144.819 104.91 141.395 104.91 137.163C104.91 132.931 101.486 129.517 97.2642 129.517L97.2741 129.507Z" fill="black"/>
<path d="M97.2742 209.867C94.6692 209.867 92.3636 211.175 90.9862 213.171C90.5071 213.59 89.9083 213.84 89.2495 213.919V211.833C89.2495 208.27 92.144 205.385 95.7072 205.385V204.637H82.0632V205.385C85.6264 205.385 88.5209 208.28 88.5209 211.833V213.919C87.8622 213.84 87.2633 213.59 86.7842 213.171C85.4068 211.175 83.1013 209.867 80.4962 209.867C76.2743 209.867 72.8508 213.291 72.8508 217.513C72.8508 221.735 76.2743 225.158 80.4962 225.158C81.4344 225.158 82.3227 224.969 83.1611 224.659C81.9834 226.007 81.2448 227.744 81.2448 229.67C81.2448 233.892 84.6683 237.316 88.8902 237.316C93.1121 237.316 96.5356 233.892 96.5356 229.67C96.5356 227.744 95.797 225.997 94.6193 224.659C95.4477 224.969 96.346 225.158 97.2842 225.158C101.506 225.158 104.93 221.735 104.93 217.513C104.93 213.291 101.506 209.867 97.2842 209.867H97.2742Z" fill="black"/>
<path d="M9.4519 53.1405C9.4519 55.526 11.3783 57.4524 13.7638 57.4524C15.2311 57.4524 16.5287 56.7138 17.3072 55.5859C17.5767 55.3464 17.9161 55.2066 18.2854 55.1667V56.3445C18.2854 58.3507 16.6584 59.9777 14.6522 59.9777V60.3969H22.3378V59.9777C20.3315 59.9777 18.7046 58.3507 18.7046 56.3445V55.1667C19.0739 55.2166 19.4132 55.3563 19.6827 55.5859C20.4613 56.7138 21.7589 57.4524 23.2261 57.4524C25.6116 57.4524 27.538 55.526 27.538 53.1405C27.538 50.755 25.6116 48.8286 23.2261 48.8286C22.6971 48.8286 22.198 48.9384 21.7289 49.108C22.3877 48.3495 22.8069 47.3713 22.8069 46.2833C22.8069 43.9078 20.8805 41.9714 18.495 41.9714C16.1094 41.9714 14.183 43.8978 14.183 46.2833C14.183 47.3713 14.6023 48.3495 15.261 49.108C14.7919 48.9384 14.2928 48.8286 13.7638 48.8286C11.3783 48.8286 9.4519 50.755 9.4519 53.1405Z" fill="black"/>
<path d="M168.299 214.219C168.299 211.833 166.373 209.907 163.987 209.907C162.52 209.907 161.223 210.646 160.444 211.773C160.174 212.013 159.835 212.153 159.466 212.193V211.025C159.466 209.019 161.093 207.392 163.099 207.392V206.972H155.413V207.392C157.42 207.392 159.047 209.019 159.047 211.025V212.193C158.677 212.143 158.338 212.003 158.068 211.773C157.29 210.646 155.992 209.907 154.525 209.907C152.15 209.907 150.213 211.833 150.213 214.219C150.213 216.604 152.14 218.531 154.525 218.531C155.054 218.531 155.553 218.421 156.022 218.241C155.363 219 154.944 219.978 154.944 221.066C154.944 223.452 156.871 225.378 159.256 225.378C161.642 225.378 163.568 223.452 163.568 221.066C163.568 219.978 163.149 219 162.49 218.241C162.959 218.421 163.458 218.531 163.987 218.531C166.373 218.531 168.299 216.604 168.299 214.219Z" fill="black"/>
</svg>
