<svg width="178" height="267" viewBox="0 0 178 267" fill="none" xmlns="http://www.w3.org/2000/svg">
<path d="M166.771 0.359314H10.979C4.91548 0.359314 0 5.27498 0 11.3388V256.021C0 262.084 4.91548 267 10.979 267H166.771C172.835 267 177.75 262.084 177.75 256.021V11.3388C177.75 5.27498 172.835 0.359314 166.771 0.359314Z" fill="white"/>
<path d="M13.664 16.559C13.8935 15.471 14.2529 14.6625 14.712 14.1635C15.1013 13.7442 15.6203 13.5446 16.329 13.5446H21.3895C18.435 18.9944 16.6284 22.8472 15.8898 25.2926C15.0713 27.9776 14.6621 30.2733 14.6621 32.1398C14.6621 33.2876 14.9316 34.1161 15.4706 34.6551C15.9996 35.1841 16.6783 35.4636 17.4369 35.4636C18.3352 35.4636 19.0139 35.1941 19.4731 34.6451C19.8823 34.146 20.072 33.4374 20.072 32.4093V29.7543C19.9821 29.1754 19.9322 28.7162 19.9322 28.3868C19.9322 26.3107 20.4912 23.8054 21.5891 20.9408C22.717 18.0063 24.2541 14.962 26.1406 11.8977L26.3103 11.6282V9.2327H11.7675L10.46 17.088L13.4344 17.5871L13.654 16.549L13.664 16.559Z" fill="black"/>
<path d="M151.6 255.452L151.431 255.721V258.117H165.973L167.281 250.261L164.307 249.762L164.087 250.8C163.857 251.888 163.498 252.697 163.039 253.186C162.65 253.605 162.131 253.805 161.422 253.805H156.361C159.316 248.355 161.123 244.502 161.861 242.057C162.68 239.372 163.089 237.066 163.089 235.21C163.089 234.062 162.819 233.233 162.28 232.694C161.751 232.165 161.073 231.886 160.314 231.886C159.416 231.886 158.737 232.155 158.278 232.704C157.869 233.203 157.679 233.912 157.679 234.94V237.595C157.769 238.174 157.819 238.633 157.819 238.962C157.819 241.039 157.26 243.544 156.162 246.409C155.034 249.343 153.497 252.377 151.61 255.452H151.6Z" fill="black"/>
<path d="M64.6865 42.1511C63.7483 42.1511 62.86 42.3407 62.0316 42.6501C63.2094 41.3027 63.9479 39.5659 63.9479 37.6395C63.9479 33.4174 60.5245 29.9938 56.3025 29.9938C52.0806 29.9938 48.6572 33.4174 48.6572 37.6395C48.6572 39.5659 49.3957 41.3126 50.5735 42.6501C49.7451 42.3407 48.8468 42.1511 47.9086 42.1511C43.6866 42.1511 40.2632 45.5747 40.2632 49.7968C40.2632 54.0188 43.6866 57.4424 47.9086 57.4424C50.5136 57.4424 52.8192 56.1349 54.1966 54.1386C54.6757 53.7194 55.2745 53.4699 55.9333 53.39V55.4761C55.9333 59.0394 53.0388 61.934 49.4756 61.934V62.6826H63.1195V61.934C59.5563 61.934 56.6619 59.0394 56.6619 55.4761V53.39C57.3206 53.4699 57.9195 53.7194 58.3985 54.1386C59.7759 56.1349 62.0815 57.4424 64.6865 57.4424C68.9085 57.4424 72.3319 54.0188 72.3319 49.7968C72.3319 45.5747 68.9085 42.1511 64.6865 42.1511Z" fill="black"/>
<path d="M64.6865 129.478C63.7483 129.478 62.86 129.667 62.0316 129.977C63.2094 128.629 63.9479 126.892 63.9479 124.966C63.9479 120.744 60.5245 117.32 56.3025 117.32C52.0806 117.32 48.6572 120.744 48.6572 124.966C48.6572 126.892 49.3957 128.639 50.5735 129.977C49.7451 129.667 48.8468 129.478 47.9086 129.478C43.6866 129.478 40.2632 132.901 40.2632 137.123C40.2632 141.345 43.6866 144.769 47.9086 144.769C50.5136 144.769 52.8192 143.461 54.1966 141.465C54.6757 141.046 55.2745 140.796 55.9333 140.716V142.793C55.9333 146.356 53.0388 149.251 49.4756 149.251V149.999H63.1195V149.251C59.5563 149.251 56.6619 146.366 56.6619 142.793V140.716C57.3206 140.796 57.9195 141.046 58.3985 141.465C59.7759 143.461 62.0815 144.769 64.6865 144.769C68.9085 144.769 72.3319 141.345 72.3319 137.123C72.3319 132.901 68.9085 129.478 64.6865 129.478Z" fill="black"/>
<path d="M64.6865 209.867C62.0815 209.867 59.7759 211.175 58.3985 213.171C57.9194 213.59 57.3206 213.84 56.6618 213.919V211.833C56.6618 208.27 59.5463 205.385 63.1095 205.385V204.637H49.4656V205.385C53.0288 205.385 55.9232 208.28 55.9232 211.833V213.919C55.2645 213.84 54.6656 213.59 54.1866 213.171C52.8092 211.175 50.5036 209.867 47.8986 209.867C43.6766 209.867 40.2532 213.291 40.2532 217.513C40.2532 221.735 43.6766 225.158 47.8986 225.158C48.8368 225.158 49.7251 224.969 50.5635 224.659C49.3857 226.007 48.6471 227.744 48.6471 229.67C48.6471 233.892 52.0706 237.316 56.2925 237.316C60.5145 237.316 63.9379 233.892 63.9379 229.67C63.9379 227.744 63.1993 225.997 62.0216 224.659C62.85 224.969 63.7383 225.158 64.6765 225.158C68.8985 225.158 72.3219 221.735 72.3219 217.513C72.3219 213.291 68.8985 209.867 64.6765 209.867H64.6865Z" fill="black"/>
<path d="M129.862 42.1511C128.924 42.1511 128.036 42.3407 127.197 42.6501C128.375 41.3027 129.113 39.5659 129.113 37.6395C129.113 33.4174 125.69 29.9938 121.468 29.9938C117.246 29.9938 113.823 33.4174 113.823 37.6395C113.823 39.5659 114.561 41.3126 115.739 42.6501C114.911 42.3407 114.012 42.1511 113.074 42.1511C108.852 42.1511 105.429 45.5747 105.429 49.7968C105.429 54.0188 108.852 57.4424 113.074 57.4424C115.679 57.4424 117.985 56.1349 119.362 54.1386C119.841 53.7194 120.44 53.4699 121.099 53.39V55.4761C121.099 59.0394 118.214 61.934 114.651 61.934V62.6826H128.295V61.934C124.732 61.934 121.837 59.0394 121.837 55.4761V53.39C122.496 53.4699 123.095 53.7194 123.574 54.1386C124.951 56.1349 127.257 57.4424 129.862 57.4424C134.084 57.4424 137.507 54.0188 137.507 49.7968C137.507 45.5747 134.084 42.1511 129.862 42.1511Z" fill="black"/>
<path d="M129.862 129.478C128.924 129.478 128.036 129.667 127.197 129.977C128.375 128.629 129.113 126.892 129.113 124.966C129.113 120.744 125.69 117.32 121.468 117.32C117.246 117.32 113.823 120.744 113.823 124.966C113.823 126.892 114.561 128.639 115.739 129.977C114.911 129.667 114.012 129.478 113.074 129.478C108.852 129.478 105.429 132.901 105.429 137.123C105.429 141.345 108.852 144.769 113.074 144.769C115.679 144.769 117.985 143.461 119.362 141.465C119.841 141.046 120.44 140.796 121.099 140.716V142.793C121.099 146.356 118.214 149.251 114.651 149.251V149.999H128.295V149.251C124.732 149.251 121.837 146.366 121.837 142.793V140.716C122.496 140.796 123.095 141.046 123.574 141.465C124.951 143.461 127.257 144.769 129.862 144.769C134.084 144.769 137.507 141.345 137.507 137.123C137.507 132.901 134.084 129.478 129.862 129.478Z" fill="black"/>
<path d="M129.862 209.867C127.257 209.867 124.951 211.175 123.574 213.171C123.095 213.59 122.496 213.84 121.837 213.919V211.833C121.837 208.27 124.732 205.385 128.295 205.385V204.637H114.651V205.385C118.214 205.385 121.109 208.28 121.109 211.833V213.919C120.45 213.84 119.851 213.59 119.372 213.171C117.994 211.175 115.689 209.867 113.084 209.867C108.862 209.867 105.438 213.291 105.438 217.513C105.438 221.735 108.862 225.158 113.084 225.158C114.022 225.158 114.91 224.969 115.749 224.659C114.571 226.007 113.832 227.744 113.832 229.67C113.832 233.892 117.256 237.316 121.478 237.316C125.7 237.316 129.123 233.892 129.123 229.67C129.123 227.744 128.385 225.997 127.207 224.659C128.035 224.969 128.934 225.158 129.872 225.158C134.094 225.158 137.517 221.735 137.517 217.513C137.517 213.291 134.094 209.867 129.872 209.867H129.862Z" fill="black"/>
<path d="M97.2741 86.7276C96.3359 86.7276 95.4476 86.9172 94.6092 87.2266C95.787 85.8792 96.5256 84.1424 96.5256 82.216C96.5256 77.9939 93.1021 74.5703 88.8802 74.5703C84.6582 74.5703 81.2348 77.9939 81.2348 82.216C81.2348 84.1424 81.9734 85.8792 83.1511 87.2266C82.3227 86.9172 81.4244 86.7276 80.4862 86.7276C76.2643 86.7276 72.8408 90.1512 72.8408 94.3733C72.8408 98.5954 76.2643 102.019 80.4862 102.019C83.0912 102.019 85.3968 100.711 86.7742 98.7151C87.2533 98.2959 87.8521 98.0464 88.5109 97.9665V100.053C88.5109 103.616 85.6164 106.511 82.0532 106.511V107.259H95.6972V106.511C92.134 106.511 89.2395 103.626 89.2395 100.053V97.9665C89.8982 98.0464 90.4971 98.2959 90.9762 98.7151C92.3535 100.711 94.6591 102.019 97.2642 102.019C101.486 102.019 104.91 98.5954 104.91 94.3733C104.91 90.1512 101.486 86.7276 97.2642 86.7276H97.2741Z" fill="black"/>
<path d="M9.4519 53.1405C9.4519 55.526 11.3783 57.4524 13.7638 57.4524C15.2311 57.4524 16.5287 56.7138 17.3072 55.5859C17.5767 55.3464 17.9161 55.2066 18.2854 55.1667V56.3445C18.2854 58.3507 16.6584 59.9777 14.6522 59.9777V60.3969H22.3378V59.9777C20.3315 59.9777 18.7046 58.3507 18.7046 56.3445V55.1667C19.0739 55.2166 19.4132 55.3563 19.6827 55.5859C20.4613 56.7138 21.7589 57.4524 23.2261 57.4524C25.6116 57.4524 27.538 55.526 27.538 53.1405C27.538 50.755 25.6116 48.8286 23.2261 48.8286C22.6971 48.8286 22.198 48.9384 21.7289 49.108C22.3877 48.3495 22.8069 47.3713 22.8069 46.2833C22.8069 43.9078 20.8805 41.9714 18.495 41.9714C16.1094 41.9714 14.183 43.8978 14.183 46.2833C14.183 47.3713 14.6023 48.3495 15.261 49.108C14.7919 48.9384 14.2928 48.8286 13.7638 48.8286C11.3783 48.8286 9.4519 50.755 9.4519 53.1405Z" fill="black"/>
<path d="M168.299 214.219C168.299 211.833 166.373 209.907 163.987 209.907C162.52 209.907 161.223 210.646 160.444 211.773C160.174 212.013 159.835 212.153 159.466 212.193V211.025C159.466 209.019 161.093 207.392 163.099 207.392V206.972H155.413V207.392C157.42 207.392 159.047 209.019 159.047 211.025V212.193C158.677 212.143 158.338 212.003 158.068 211.773C157.29 210.646 155.992 209.907 154.525 209.907C152.14 209.907 150.213 211.833 150.213 214.219C150.213 216.604 152.14 218.531 154.525 218.531C155.054 218.531 155.553 218.421 156.022 218.241C155.363 219 154.944 219.978 154.944 221.066C154.944 223.452 156.871 225.378 159.256 225.378C161.642 225.378 163.568 223.452 163.568 221.066C163.568 219.978 163.149 219 162.49 218.241C162.959 218.421 163.458 218.531 163.987 218.531C166.373 218.531 168.299 216.604 168.299 214.219Z" fill="black"/>
</svg>
