<svg width="178" height="267" viewBox="0 0 178 267" fill="none" xmlns="http://www.w3.org/2000/svg">
<path d="M166.771 0.359314H10.979C4.91548 0.359314 0 5.27498 0 11.3388V256.021C0 262.084 4.91548 267 10.979 267H166.771C172.835 267 177.75 262.084 177.75 256.021V11.3388C177.75 5.27498 172.835 0.359314 166.771 0.359314Z" fill="white"/>
<path d="M160.683 234.8C160.893 234.8 161.073 234.82 161.182 234.87C161.192 234.9 161.242 235.04 161.242 235.359C161.242 236.068 161.372 236.707 161.622 237.266C161.831 237.745 162.4 238.543 163.748 238.543C165.005 238.543 165.614 237.865 165.864 237.465C166.203 236.916 166.383 236.347 166.383 235.768C166.383 234.461 165.744 233.363 164.546 232.614C163.488 231.946 162.241 231.606 160.833 231.606C157.739 231.606 155.304 233.074 153.567 235.958C151.94 238.663 151.121 242.097 151.121 246.169C151.121 249.902 151.84 252.817 153.267 254.853C154.774 257.009 156.901 258.097 159.585 258.097C162.27 258.097 164.167 257.208 165.584 255.462C166.952 253.785 167.64 251.679 167.64 249.213C167.64 246.339 166.972 244.193 165.664 242.825C164.347 241.448 162.58 240.749 160.424 240.749C158.787 240.749 157.4 241.198 156.282 242.087C156.571 239.821 157.03 238.114 157.649 236.986C158.737 235.02 159.905 234.79 160.703 234.79L160.683 234.8ZM157.25 245.76C158.707 243.903 160.793 243.654 162.081 245.39C162.72 246.249 163.039 247.596 163.039 249.383C163.039 251.17 162.72 252.537 162.081 253.605C161.542 254.513 160.743 254.933 159.566 254.933C158.308 254.933 157.469 254.473 156.93 253.495C156.292 252.327 155.962 250.71 155.962 248.684C155.962 247.836 156.391 246.848 157.25 245.76Z" fill="black"/>
<path d="M17.3571 26.6002C18.994 26.6002 20.3814 26.151 21.4993 25.2627C21.2098 27.5285 20.7507 29.2353 20.1319 30.3631C19.0439 32.3394 17.8761 32.559 17.0776 32.559C16.868 32.559 16.6883 32.5391 16.5785 32.4892C16.5685 32.4592 16.5186 32.3195 16.5186 32.0001C16.5186 31.2914 16.3889 30.6526 16.1393 30.0937C15.9197 29.6146 15.3608 28.816 14.0133 28.816C12.7557 28.816 12.1468 29.4948 11.8973 29.894C11.5579 30.443 11.3782 31.0119 11.3782 31.5908C11.3782 32.8984 12.0171 33.9963 13.2148 34.7449C14.2728 35.4137 15.5205 35.7531 16.9279 35.7531C20.0221 35.7531 22.4575 34.2858 24.1942 31.4012C25.8212 28.6963 26.6397 25.2527 26.6397 21.1903C26.6397 17.4573 25.921 14.5428 24.4937 12.5066C22.9865 10.3506 20.8605 9.26266 18.1755 9.26266C15.4905 9.26266 13.5941 10.151 12.1768 11.8977C10.8093 13.5746 10.1206 15.6806 10.1206 18.146C10.1206 21.0206 10.7894 23.1666 12.0969 24.5341C13.4144 25.9115 15.1811 26.6102 17.3371 26.6102L17.3571 26.6002ZM15.6702 13.7742C16.2092 12.8659 17.0077 12.4467 18.1855 12.4467C19.4431 12.4467 20.2816 12.9058 20.8206 13.884C21.4594 15.0518 21.7888 16.6688 21.7888 18.695C21.7888 19.5434 21.3596 20.5316 20.5012 21.6195C19.0439 23.476 16.9578 23.7256 15.6702 21.9888C15.0314 21.1304 14.712 19.783 14.712 17.9963C14.712 16.2097 15.0314 14.8422 15.6702 13.7742Z" fill="black"/>
<path d="M64.6865 42.1511C63.7483 42.1511 62.86 42.3407 62.0216 42.6501C63.1994 41.3027 63.938 39.5659 63.938 37.6395C63.938 33.4174 60.5145 29.9938 56.2926 29.9938C52.0706 29.9938 48.6472 33.4174 48.6472 37.6395C48.6472 39.5659 49.3858 41.3126 50.5635 42.6501C49.7351 42.3407 48.8468 42.1511 47.9086 42.1511C43.6866 42.1511 40.2632 45.5747 40.2632 49.7968C40.2632 54.0188 43.6866 57.4424 47.9086 57.4424C50.5136 57.4424 52.8192 56.1349 54.1966 54.1386C54.6757 53.7194 55.2745 53.4699 55.9333 53.39V55.4761C55.9333 59.0394 53.0488 61.934 49.4856 61.934V62.6826H63.1295V61.934C59.5663 61.934 56.6718 59.0394 56.6718 55.4761V53.39C57.3306 53.4699 57.9294 53.7194 58.4085 54.1386C59.7859 56.1349 62.0915 57.4424 64.6965 57.4424C68.9185 57.4424 72.3419 54.0188 72.3419 49.7968C72.3419 45.5747 68.9185 42.1511 64.6965 42.1511H64.6865Z" fill="black"/>
<path d="M64.6865 101.141C63.7483 101.141 62.86 101.33 62.0216 101.64C63.1994 100.292 63.938 98.5554 63.938 96.629C63.938 92.407 60.5145 88.9834 56.2926 88.9834C52.0706 88.9834 48.6472 92.407 48.6472 96.629C48.6472 98.5554 49.3858 100.292 50.5635 101.64C49.7351 101.33 48.8468 101.141 47.9086 101.141C43.6866 101.141 40.2632 104.564 40.2632 108.786C40.2632 113.008 43.6866 116.432 47.9086 116.432C50.5136 116.432 52.8192 115.124 54.1966 113.128C54.6757 112.709 55.2745 112.459 55.9333 112.38V114.456C55.9333 118.019 53.0488 120.914 49.4856 120.914V121.662H63.1295V120.914C59.5663 120.914 56.6718 118.019 56.6718 114.456V112.38C57.3306 112.459 57.9294 112.709 58.4085 113.128C59.7859 115.124 62.0915 116.442 64.6965 116.442C68.9185 116.442 72.3419 113.018 72.3419 108.796C72.3419 104.574 68.9185 101.151 64.6965 101.151L64.6865 101.141Z" fill="black"/>
<path d="M64.6865 209.867C62.0815 209.867 59.7759 211.175 58.3985 213.171C57.9194 213.59 57.3206 213.84 56.6618 213.919V211.833C56.6618 208.27 59.5563 205.385 63.1095 205.385V204.637H49.4656V205.385C53.0288 205.385 55.9232 208.28 55.9232 211.833V213.919C55.2645 213.84 54.6656 213.59 54.1866 213.171C52.8092 211.175 50.5036 209.867 47.8986 209.867C43.6766 209.867 40.2532 213.291 40.2532 217.513C40.2532 221.735 43.6766 225.158 47.8986 225.158C48.8368 225.158 49.7251 224.969 50.5535 224.659C49.3757 226.007 48.6372 227.744 48.6372 229.67C48.6372 233.892 52.0606 237.316 56.2826 237.316C60.5045 237.316 63.928 233.892 63.928 229.67C63.928 227.744 63.1894 225.997 62.0116 224.659C62.84 224.969 63.7383 225.158 64.6765 225.158C68.8985 225.158 72.3219 221.735 72.3219 217.513C72.3219 213.291 68.8985 209.867 64.6765 209.867H64.6865Z" fill="black"/>
<path d="M64.6865 153.193C62.0815 153.193 59.7759 154.501 58.3985 156.497C57.9194 156.916 57.3206 157.166 56.6618 157.246V155.169C56.6618 151.606 59.5563 148.712 63.1095 148.712V147.963H49.4656V148.712C53.0288 148.712 55.9232 151.606 55.9232 155.169V157.246C55.2645 157.166 54.6656 156.916 54.1866 156.497C52.8092 154.501 50.5036 153.193 47.8986 153.193C43.6766 153.193 40.2532 156.617 40.2532 160.839C40.2532 165.061 43.6766 168.484 47.8986 168.484C48.8368 168.484 49.7251 168.295 50.5535 167.985C49.3757 169.333 48.6372 171.07 48.6372 172.996C48.6372 177.218 52.0606 180.642 56.2826 180.642C60.5045 180.642 63.928 177.218 63.928 172.996C63.928 171.07 63.1894 169.323 62.0116 167.985C62.84 168.295 63.7383 168.484 64.6765 168.484C68.8985 168.484 72.3219 165.061 72.3219 160.839C72.3219 156.617 68.8985 153.193 64.6765 153.193H64.6865Z" fill="black"/>
<path d="M129.862 42.1511C128.924 42.1511 128.035 42.3407 127.207 42.6501C128.385 41.3027 129.123 39.5659 129.123 37.6395C129.123 33.4174 125.7 29.9938 121.478 29.9938C117.256 29.9938 113.832 33.4174 113.832 37.6395C113.832 39.5659 114.571 41.3126 115.749 42.6501C114.92 42.3407 114.022 42.1511 113.084 42.1511C108.862 42.1511 105.438 45.5747 105.438 49.7968C105.438 54.0188 108.862 57.4424 113.084 57.4424C115.689 57.4424 117.994 56.1349 119.372 54.1386C119.851 53.7194 120.45 53.4699 121.109 53.39V55.4761C121.109 59.0394 118.214 61.934 114.651 61.934V62.6826H128.295V61.934C124.732 61.934 121.837 59.0394 121.837 55.4761V53.39C122.496 53.4699 123.095 53.7194 123.574 54.1386C124.951 56.1349 127.257 57.4424 129.862 57.4424C134.084 57.4424 137.507 54.0188 137.507 49.7968C137.507 45.5747 134.084 42.1511 129.862 42.1511Z" fill="black"/>
<path d="M129.862 101.141C128.924 101.141 128.035 101.33 127.207 101.64C128.385 100.292 129.123 98.5554 129.123 96.629C129.123 92.407 125.7 88.9834 121.478 88.9834C117.256 88.9834 113.832 92.407 113.832 96.629C113.832 98.5554 114.571 100.292 115.749 101.64C114.92 101.33 114.022 101.141 113.084 101.141C108.862 101.141 105.438 104.564 105.438 108.786C105.438 113.008 108.862 116.432 113.084 116.432C115.689 116.432 117.994 115.124 119.372 113.128C119.851 112.709 120.45 112.459 121.109 112.38V114.456C121.109 118.019 118.214 120.914 114.651 120.914V121.662H128.295V120.914C124.732 120.914 121.837 118.019 121.837 114.456V112.38C122.496 112.459 123.095 112.709 123.574 113.128C124.951 115.124 127.257 116.442 129.862 116.442C134.084 116.442 137.507 113.018 137.507 108.796C137.507 104.574 134.084 101.151 129.862 101.151V101.141Z" fill="black"/>
<path d="M129.862 209.867C127.257 209.867 124.951 211.175 123.574 213.171C123.095 213.59 122.496 213.84 121.837 213.919V211.833C121.837 208.27 124.732 205.385 128.285 205.385V204.637H114.641V205.385C118.204 205.385 121.099 208.28 121.099 211.833V213.919C120.44 213.84 119.841 213.59 119.362 213.171C117.985 211.175 115.679 209.867 113.074 209.867C108.852 209.867 105.429 213.291 105.429 217.513C105.429 221.735 108.852 225.158 113.074 225.158C114.012 225.158 114.901 224.969 115.739 224.659C114.561 226.007 113.823 227.744 113.823 229.67C113.823 233.892 117.246 237.316 121.468 237.316C125.69 237.316 129.113 233.892 129.113 229.67C129.113 227.744 128.375 225.997 127.197 224.659C128.026 224.969 128.914 225.158 129.852 225.158C134.074 225.158 137.497 221.735 137.497 217.513C137.497 213.291 134.074 209.867 129.852 209.867H129.862Z" fill="black"/>
<path d="M129.862 153.193C127.257 153.193 124.951 154.501 123.574 156.497C123.095 156.916 122.496 157.166 121.837 157.246V155.169C121.837 151.606 124.732 148.712 128.285 148.712V147.963H114.641V148.712C118.204 148.712 121.099 151.606 121.099 155.169V157.246C120.44 157.166 119.841 156.916 119.362 156.497C117.985 154.501 115.679 153.193 113.074 153.193C108.852 153.193 105.429 156.617 105.429 160.839C105.429 165.061 108.852 168.484 113.074 168.484C114.012 168.484 114.901 168.295 115.739 167.985C114.561 169.333 113.823 171.07 113.823 172.996C113.823 177.218 117.246 180.642 121.468 180.642C125.69 180.642 129.113 177.218 129.113 172.996C129.113 171.07 128.375 169.323 127.197 167.985C128.026 168.295 128.914 168.484 129.852 168.484C134.074 168.484 137.497 165.061 137.497 160.839C137.497 156.617 134.074 153.193 129.852 153.193H129.862Z" fill="black"/>
<path d="M97.2742 129.478C96.336 129.478 95.4477 129.667 94.6193 129.977C95.797 128.629 96.5356 126.892 96.5356 124.966C96.5356 120.744 93.1121 117.32 88.8902 117.32C84.6683 117.32 81.2448 120.744 81.2448 124.966C81.2448 126.892 81.9834 128.639 83.1611 129.977C82.3327 129.667 81.4344 129.478 80.4962 129.478C76.2743 129.478 72.8508 132.901 72.8508 137.123C72.8508 141.345 76.2743 144.769 80.4962 144.769C83.1112 144.769 85.4068 143.461 86.7842 141.465C87.2633 141.046 87.8622 140.796 88.5209 140.716V142.793C88.5209 146.356 85.6264 149.251 82.0732 149.251V149.999H95.7172V149.251C92.154 149.251 89.2595 146.366 89.2595 142.793V140.716C89.9182 140.796 90.5171 141.046 90.9962 141.465C92.3735 143.461 94.6791 144.769 97.2842 144.769C101.506 144.769 104.93 141.345 104.93 137.123C104.93 132.901 101.506 129.478 97.2842 129.478H97.2742Z" fill="black"/>
<path d="M9.4519 53.1405C9.4519 55.526 11.3783 57.4524 13.7638 57.4524C15.2311 57.4524 16.5287 56.7138 17.3072 55.5859C17.5767 55.3464 17.9161 55.2066 18.2854 55.1667V56.3445C18.2854 58.3507 16.6584 59.9777 14.6522 59.9777V60.3969H22.3378V59.9777C20.3315 59.9777 18.7046 58.3507 18.7046 56.3445V55.1667C19.0739 55.2166 19.4132 55.3563 19.6827 55.5859C20.4613 56.7138 21.7589 57.4524 23.2261 57.4524C25.6116 57.4524 27.538 55.526 27.538 53.1405C27.538 50.755 25.6116 48.8286 23.2261 48.8286C22.6971 48.8286 22.198 48.9384 21.7289 49.108C22.3877 48.3495 22.8069 47.3713 22.8069 46.2833C22.8069 43.9078 20.8805 41.9714 18.495 41.9714C16.1094 41.9714 14.183 43.8978 14.183 46.2833C14.183 47.3713 14.6023 48.3495 15.261 49.108C14.7919 48.9384 14.2928 48.8286 13.7638 48.8286C11.3783 48.8286 9.4519 50.755 9.4519 53.1405Z" fill="black"/>
<path d="M168.299 214.219C168.299 211.833 166.373 209.907 163.987 209.907C162.52 209.907 161.223 210.646 160.444 211.773C160.174 212.013 159.835 212.153 159.466 212.193V211.025C159.466 209.019 161.093 207.392 163.099 207.392V206.972H155.413V207.392C157.42 207.392 159.047 209.019 159.047 211.025V212.193C158.677 212.143 158.338 212.003 158.068 211.773C157.29 210.646 155.992 209.907 154.525 209.907C152.14 209.907 150.213 211.833 150.213 214.219C150.213 216.604 152.14 218.531 154.525 218.531C155.054 218.531 155.553 218.421 156.022 218.241C155.354 219 154.944 219.978 154.944 221.066C154.944 223.452 156.871 225.378 159.256 225.378C161.642 225.378 163.568 223.452 163.568 221.066C163.568 219.978 163.149 219 162.49 218.241C162.959 218.421 163.458 218.531 163.987 218.531C166.373 218.531 168.299 216.604 168.299 214.219Z" fill="black"/>
</svg>
