<svg width="178" height="267" viewBox="0 0 178 267" fill="none" xmlns="http://www.w3.org/2000/svg">
<path d="M166.771 0.359314H10.979C4.91548 0.359314 0 5.27498 0 11.3388V256.021C0 262.084 4.91548 267 10.979 267H166.771C172.835 267 177.75 262.084 177.75 256.021V11.3388C177.75 5.27498 172.835 0.359314 166.771 0.359314Z" fill="white"/>
<path d="M12.9354 33.7967C14.4226 34.9146 16.1394 35.4736 18.0458 35.4736C20.8007 35.4736 22.8868 34.5852 24.2642 32.8285C25.5717 31.1617 26.2305 28.9159 26.2305 26.181C26.2305 23.7056 25.5817 21.6694 24.3041 20.1323C22.9766 18.5353 21.2399 17.7168 19.1438 17.7168C18.1057 17.7168 17.0876 17.8765 16.0995 18.186C15.7302 18.3057 15.3708 18.4754 15.0115 18.705L15.3209 13.5546H25.1825L26.0409 9.25269H12.2567L11.4482 23.9751L12.4663 24.0849C12.7358 24.1149 12.9953 24.1448 13.2548 24.1747L14.4925 24.3145L14.8418 23.6557C15.5106 22.418 16.0795 21.9489 16.4388 21.7593C17.0277 21.4698 17.7464 21.3201 18.5848 21.3201C19.5929 21.3201 20.2617 21.6894 20.7508 22.5178C21.3397 23.496 21.6391 24.8235 21.6391 26.4605C21.6391 28.4467 21.2997 29.9739 20.641 30.992C20.0621 31.8803 19.2735 32.2895 18.1656 32.2895C17.2873 32.2895 16.4987 32.1398 15.7501 31.8204C15.1113 31.5509 15.1113 31.3114 15.1113 31.1816C15.1113 31.0319 15.2211 30.8522 15.2012 30.8522C15.6902 30.3632 15.9398 29.6744 15.9398 28.8161C15.9398 28.3569 15.81 27.8778 15.5405 27.3388C15.3209 26.9096 14.752 26.171 13.4444 26.171C12.5461 26.171 11.7876 26.5303 11.2486 27.219C10.7695 27.8279 10.5299 28.5565 10.5299 29.355C10.5299 31.1018 11.3284 32.599 12.9154 33.7768L12.9354 33.7967Z" fill="black"/>
<path d="M161.791 238.543C161.791 239.002 161.921 239.482 162.191 240.021C162.41 240.46 162.979 241.188 164.287 241.188C165.185 241.188 165.944 240.819 166.482 240.14C166.962 239.531 167.201 238.813 167.201 237.994C167.201 236.248 166.403 234.75 164.816 233.573C163.328 232.455 161.612 231.896 159.705 231.896C156.95 231.896 154.864 232.784 153.487 234.541C152.179 236.208 151.521 238.453 151.521 241.188C151.521 243.664 152.169 245.7 153.447 247.237C154.774 248.834 156.511 249.652 158.607 249.652C159.645 249.652 160.663 249.493 161.652 249.183C162.021 249.074 162.38 248.894 162.74 248.664L162.43 253.815H152.569L151.71 258.117H165.494L166.303 243.394L165.285 243.284C165.015 243.254 164.756 243.225 164.496 243.195L163.259 243.055L162.909 243.714C162.24 244.951 161.671 245.42 161.312 245.61C160.723 245.9 160.005 246.049 159.166 246.049C158.158 246.049 157.489 245.68 157 244.851C156.411 243.873 156.122 242.546 156.122 240.909C156.122 238.923 156.461 237.395 157.12 236.377C157.699 235.489 158.487 235.08 159.595 235.08C160.474 235.08 161.262 235.23 162.011 235.549C162.65 235.818 162.65 236.058 162.65 236.188C162.65 236.337 162.54 236.517 162.56 236.517C162.071 237.006 161.821 237.695 161.821 238.553L161.791 238.543Z" fill="black"/>
<path d="M97.2742 129.507C96.336 129.507 95.4477 129.697 94.6093 130.007C95.787 128.659 96.5256 126.922 96.5256 124.996C96.5256 120.774 93.1022 117.35 88.8802 117.35C84.6583 117.35 81.2348 120.774 81.2348 124.996C81.2348 126.922 81.9734 128.659 83.1512 130.007C82.3227 129.697 81.4344 129.507 80.4962 129.507C76.2743 129.507 72.8508 132.931 72.8508 137.153C72.8508 141.375 76.2743 144.809 80.4962 144.809C83.1013 144.809 85.4068 143.491 86.7842 141.505C87.2633 141.086 87.8622 140.836 88.5209 140.756V142.833C88.5209 146.396 85.6264 149.29 82.0632 149.29V150.039H95.7072V149.29C92.144 149.29 89.2495 146.396 89.2495 142.833V140.756C89.9083 140.836 90.5071 141.086 90.9862 141.505C92.3636 143.501 94.6692 144.819 97.2742 144.819C101.496 144.819 104.92 141.395 104.92 137.163C104.92 132.931 101.496 129.517 97.2742 129.517V129.507Z" fill="black"/>
<path d="M64.6865 42.1511C63.7483 42.1511 62.86 42.3407 62.0216 42.6501C63.1994 41.3027 63.938 39.5659 63.938 37.6395C63.938 33.4174 60.5145 29.9938 56.2926 29.9938C52.0706 29.9938 48.6472 33.4174 48.6472 37.6395C48.6472 39.5659 49.3858 41.3126 50.5635 42.6501C49.7351 42.3407 48.8468 42.1511 47.9086 42.1511C43.6866 42.1511 40.2632 45.5747 40.2632 49.7968C40.2632 54.0188 43.6866 57.4424 47.9086 57.4424C50.5136 57.4424 52.8192 56.1349 54.1966 54.1386C54.6757 53.7194 55.2745 53.4699 55.9333 53.39V55.4761C55.9333 59.0394 53.0488 61.934 49.4856 61.934V62.6826H63.1295V61.934C59.5663 61.934 56.6718 59.0394 56.6718 55.4761V53.39C57.3306 53.4699 57.9294 53.7194 58.4085 54.1386C59.7859 56.1349 62.0915 57.4424 64.6965 57.4424C68.9185 57.4424 72.3419 54.0188 72.3419 49.7968C72.3419 45.5747 68.9185 42.1511 64.6965 42.1511H64.6865Z" fill="black"/>
<path d="M64.6865 209.867C62.0815 209.867 59.7759 211.175 58.3985 213.171C57.9195 213.59 57.3206 213.84 56.6619 213.919V211.833C56.6619 208.27 59.5563 205.385 63.1195 205.385V204.637H49.4756V205.385C53.0388 205.385 55.9333 208.28 55.9333 211.833V213.919C55.2745 213.84 54.6757 213.59 54.1966 213.171C52.8192 211.175 50.5136 209.867 47.9086 209.867C43.6866 209.867 40.2632 213.291 40.2632 217.513C40.2632 221.735 43.6866 225.158 47.9086 225.158C48.8468 225.158 49.7351 224.969 50.5635 224.659C49.3858 226.007 48.6472 227.744 48.6472 229.67C48.6472 233.892 52.0706 237.316 56.2926 237.316C60.5145 237.316 63.938 233.892 63.938 229.67C63.938 227.744 63.1994 225.997 62.0216 224.659C62.85 224.969 63.7483 225.158 64.6865 225.158C68.9085 225.158 72.3319 221.735 72.3319 217.513C72.3319 213.291 68.9085 209.867 64.6865 209.867Z" fill="black"/>
<path d="M129.762 42.1511C128.824 42.1511 127.936 42.3407 127.097 42.6501C128.275 41.3027 129.014 39.5659 129.014 37.6395C129.014 33.4174 125.59 29.9938 121.368 29.9938C117.146 29.9938 113.723 33.4174 113.723 37.6395C113.723 39.5659 114.461 41.3126 115.639 42.6501C114.811 42.3407 113.912 42.1511 112.974 42.1511C108.752 42.1511 105.329 45.5747 105.329 49.7968C105.329 54.0188 108.752 57.4424 112.974 57.4424C115.579 57.4424 117.885 56.1349 119.262 54.1386C119.741 53.7194 120.34 53.4699 120.999 53.39V55.4761C120.999 59.0394 118.104 61.934 114.541 61.934V62.6826H128.185V61.934C124.622 61.934 121.738 59.0394 121.738 55.4761V53.39C122.396 53.4699 122.995 53.7194 123.474 54.1386C124.852 56.1349 127.157 57.4424 129.762 57.4424C133.984 57.4424 137.408 54.0188 137.408 49.7968C137.408 45.5747 133.984 42.1511 129.762 42.1511Z" fill="black"/>
<path d="M129.762 209.867C127.157 209.867 124.852 211.175 123.474 213.171C122.995 213.59 122.396 213.84 121.738 213.919V211.833C121.738 208.27 124.632 205.385 128.185 205.385V204.637H114.541V205.385C118.104 205.385 120.999 208.28 120.999 211.833V213.919C120.34 213.84 119.741 213.59 119.262 213.171C117.885 211.175 115.579 209.867 112.974 209.867C108.752 209.867 105.329 213.291 105.329 217.513C105.329 221.735 108.752 225.158 112.974 225.158C113.912 225.158 114.801 224.969 115.639 224.659C114.461 226.007 113.723 227.744 113.723 229.67C113.723 233.892 117.146 237.316 121.368 237.316C125.59 237.316 129.014 233.892 129.014 229.67C129.014 227.744 128.275 225.997 127.097 224.659C127.926 224.969 128.824 225.158 129.762 225.158C133.984 225.158 137.408 221.735 137.408 217.513C137.408 213.291 133.984 209.867 129.762 209.867Z" fill="black"/>
<path d="M9.4519 53.1405C9.4519 55.526 11.3783 57.4524 13.7638 57.4524C15.2311 57.4524 16.5287 56.7138 17.3072 55.5859C17.5767 55.3464 17.9161 55.2066 18.2854 55.1667V56.3445C18.2854 58.3507 16.6584 59.9777 14.6522 59.9777V60.3969H22.3378V59.9777C20.3315 59.9777 18.7046 58.3507 18.7046 56.3445V55.1667C19.0739 55.2166 19.4132 55.3563 19.6827 55.5859C20.4613 56.7138 21.7589 57.4524 23.2261 57.4524C25.6116 57.4524 27.538 55.526 27.538 53.1405C27.538 50.755 25.6116 48.8286 23.2261 48.8286C22.6971 48.8286 22.198 48.9384 21.7289 49.108C22.3877 48.3495 22.8069 47.3713 22.8069 46.2833C22.8069 43.9078 20.8805 41.9714 18.495 41.9714C16.1094 41.9714 14.183 43.8978 14.183 46.2833C14.183 47.3713 14.6023 48.3495 15.261 49.108C14.7919 48.9384 14.2928 48.8286 13.7638 48.8286C11.3783 48.8286 9.4519 50.755 9.4519 53.1405Z" fill="black"/>
<path d="M168.299 214.219C168.299 211.833 166.373 209.907 163.987 209.907C162.52 209.907 161.223 210.646 160.444 211.773C160.174 212.013 159.835 212.153 159.466 212.193V211.025C159.466 209.019 161.093 207.392 163.099 207.392V206.972H155.413V207.392C157.42 207.392 159.047 209.019 159.047 211.025V212.193C158.677 212.143 158.338 212.003 158.068 211.773C157.29 210.646 155.992 209.907 154.525 209.907C152.14 209.907 150.213 211.833 150.213 214.219C150.213 216.604 152.14 218.531 154.525 218.531C155.054 218.531 155.553 218.421 156.022 218.241C155.363 219 154.944 219.978 154.944 221.066C154.944 223.452 156.871 225.378 159.256 225.378C161.642 225.378 163.568 223.452 163.568 221.066C163.568 219.978 163.149 219 162.49 218.241C162.959 218.421 163.458 218.531 163.987 218.531C166.373 218.531 168.299 216.604 168.299 214.219Z" fill="black"/>
</svg>
