<svg width="178" height="267" viewBox="0 0 178 267" fill="none" xmlns="http://www.w3.org/2000/svg">
<path d="M166.771 0.359314H10.979C4.91548 0.359314 0 5.27498 0 11.3388V256.021C0 262.084 4.91548 267 10.979 267H166.771C172.835 267 177.75 262.084 177.75 256.021V11.3388C177.75 5.27498 172.835 0.359314 166.771 0.359314Z" fill="white"/>
<path d="M26.4601 27.2889H23.3858L23.2461 28.2371C23.0864 29.3151 22.8069 30.1036 22.3877 30.5827C22.0383 30.982 21.6591 31.1616 21.15 31.1616H15.1413C15.4607 30.7823 15.8599 30.3132 16.359 29.7443C17.7863 28.1373 19.8425 26.0312 22.4576 23.5159C23.6753 22.398 24.5736 21.2103 25.1425 19.9626C25.7115 18.705 26.0009 17.4373 26.0009 16.1697C26.0009 14.2134 25.3621 12.5565 24.0945 11.2389C22.8169 9.90144 20.8905 9.2327 18.3652 9.2327C16.5586 9.2327 14.8418 9.82159 13.2648 10.9694C11.5879 12.2071 10.7295 14.0038 10.7295 16.3094C10.7295 17.3575 10.999 18.156 11.538 18.685C11.9073 19.0543 12.5761 19.4935 13.6441 19.4935C14.4126 19.4935 15.0215 19.2639 15.4706 18.8247C15.9198 18.3756 16.1394 17.7667 16.1394 16.9982C16.1394 16.3793 15.9198 15.7904 15.4008 15.1017C15.2411 14.942 15.1712 14.7623 15.1712 14.5028C15.1712 13.9239 15.4008 13.4847 15.9198 13.0955C16.5087 12.6463 17.2174 12.4267 18.0857 12.4267C19.2336 12.4267 20.0421 12.7262 20.5611 13.345C21.13 14.0137 21.4095 15.0618 21.4095 16.4492C21.4095 17.4673 21.0801 18.5952 20.4313 19.8129C19.7426 21.1005 18.6447 22.5078 17.1575 23.9951C15.3708 25.7817 13.9235 27.3488 12.8555 28.6563C11.7376 30.0238 10.9491 31.1217 10.45 32.01L10.3103 32.2596V35.4636H25.2922L26.4401 27.2789L26.4601 27.2889Z" fill="black"/>
<path d="M80.4763 57.4724C83.0813 57.4724 85.3869 56.1648 86.7643 54.1686C87.2434 53.7493 87.8422 53.4998 88.501 53.42V55.5061C88.501 59.0694 85.6065 61.964 82.0433 61.964V62.7126H95.6873V61.964C92.1241 61.964 89.2296 59.0694 89.2296 55.5061V53.42C89.8883 53.4998 90.4872 53.7493 90.9663 54.1686C92.3436 56.1648 94.6492 57.4724 97.2543 57.4724C101.476 57.4724 104.9 54.0488 104.9 49.8267C104.9 45.6046 101.476 42.181 97.2543 42.181C96.316 42.181 95.4277 42.3707 94.5893 42.6801C95.7671 41.3326 96.5057 39.5958 96.5057 37.6695C96.5057 33.4474 93.0822 30.0238 88.8603 30.0238C84.6384 30.0238 81.2149 33.4474 81.2149 37.6695C81.2149 39.5958 81.9535 41.3426 83.1312 42.6801C82.3028 42.3707 81.4045 42.181 80.4663 42.181C76.2444 42.181 72.8209 45.6046 72.8209 49.8267C72.8209 54.0488 76.2444 57.4724 80.4663 57.4724H80.4763Z" fill="black"/>
<path d="M83.1411 224.689C81.9634 226.037 81.2248 227.773 81.2248 229.7C81.2248 233.922 84.6483 237.346 88.8702 237.346C93.0921 237.346 96.5156 233.922 96.5156 229.7C96.5156 227.773 95.777 226.027 94.5993 224.689C95.4277 224.999 96.326 225.188 97.2642 225.188C101.486 225.188 104.91 221.765 104.91 217.543C104.91 213.321 101.486 209.897 97.2642 209.897C94.6591 209.897 92.3535 211.205 90.9762 213.201C90.4971 213.62 89.8982 213.87 89.2395 213.949V211.873C89.2395 208.31 92.134 205.415 95.6972 205.415V204.667H82.0532V205.415C85.6164 205.415 88.5109 208.31 88.5109 211.873V213.949C87.8521 213.87 87.2533 213.62 86.7742 213.201C85.3968 211.205 83.0912 209.897 80.4862 209.897C76.2643 209.897 72.8408 213.321 72.8408 217.543C72.8408 221.765 76.2643 225.188 80.4862 225.188C81.4244 225.188 82.3127 224.999 83.1511 224.689H83.1411Z" fill="black"/>
<path d="M164.476 256.37C166.153 255.132 167.012 253.346 167.012 251.03C167.012 249.992 166.742 249.183 166.203 248.654C165.834 248.285 165.165 247.846 164.097 247.846C163.329 247.846 162.72 248.075 162.27 248.515C161.821 248.954 161.602 249.573 161.602 250.341C161.602 250.96 161.821 251.549 162.34 252.238C162.5 252.397 162.57 252.577 162.57 252.836C162.57 253.415 162.34 253.855 161.821 254.244C161.232 254.703 160.524 254.923 159.655 254.923C158.508 254.923 157.699 254.623 157.18 254.004C156.611 253.336 156.332 252.288 156.332 250.9C156.332 249.882 156.661 248.754 157.31 247.536C157.998 246.249 159.096 244.841 160.584 243.354C162.37 241.568 163.818 240.001 164.886 238.693C166.003 237.326 166.792 236.228 167.291 235.339L167.431 235.09V231.886H152.449L151.301 240.07H154.375L154.515 239.122C154.675 238.044 154.954 237.256 155.373 236.777C155.723 236.377 156.102 236.188 156.611 236.188H162.62C162.3 236.567 161.901 237.036 161.402 237.605C159.975 239.212 157.919 241.318 155.304 243.833C154.086 244.951 153.188 246.139 152.619 247.387C152.05 248.644 151.76 249.912 151.76 251.18C151.76 253.126 152.399 254.793 153.667 256.11C154.944 257.438 156.871 258.117 159.396 258.117C161.202 258.117 162.919 257.528 164.496 256.37H164.476Z" fill="black"/>
<path d="M9.4519 53.1405C9.4519 55.526 11.3783 57.4524 13.7638 57.4524C15.2311 57.4524 16.5287 56.7138 17.3072 55.5859C17.5767 55.3464 17.9161 55.2066 18.2854 55.1667V56.3445C18.2854 58.3507 16.6584 59.9777 14.6522 59.9777V60.3969H22.3378V59.9777C20.3315 59.9777 18.7046 58.3507 18.7046 56.3445V55.1667C19.0739 55.2166 19.4132 55.3563 19.6827 55.5859C20.4613 56.7138 21.7589 57.4524 23.2261 57.4524C25.6116 57.4524 27.538 55.526 27.538 53.1405C27.538 50.755 25.6116 48.8286 23.2261 48.8286C22.6971 48.8286 22.198 48.9384 21.7289 49.108C22.3877 48.3495 22.8069 47.3713 22.8069 46.2833C22.8069 43.9078 20.8805 41.9714 18.495 41.9714C16.1094 41.9714 14.183 43.8978 14.183 46.2833C14.183 47.3713 14.6023 48.3495 15.261 49.108C14.7919 48.9384 14.2928 48.8286 13.7638 48.8286C11.3783 48.8286 9.4519 50.755 9.4519 53.1405Z" fill="black"/>
<path d="M168.299 214.219C168.299 211.833 166.373 209.907 163.987 209.907C162.52 209.907 161.223 210.646 160.444 211.773C160.174 212.013 159.835 212.153 159.466 212.193V211.025C159.466 209.019 161.093 207.392 163.099 207.392V206.972H155.413V207.392C157.42 207.392 159.047 209.019 159.047 211.025V212.193C158.677 212.143 158.338 212.003 158.068 211.773C157.29 210.646 155.992 209.907 154.525 209.907C152.14 209.907 150.213 211.833 150.213 214.219C150.213 216.604 152.14 218.531 154.525 218.531C155.054 218.531 155.553 218.421 156.022 218.241C155.363 219 154.944 219.978 154.944 221.066C154.944 223.452 156.871 225.378 159.256 225.378C161.642 225.378 163.568 223.452 163.568 221.066C163.568 219.978 163.149 219 162.49 218.241C162.959 218.421 163.458 218.531 163.987 218.531C166.373 218.531 168.299 216.604 168.299 214.219Z" fill="black"/>
</svg>
