<svg width="178" height="267" viewBox="0 0 178 267" fill="none" xmlns="http://www.w3.org/2000/svg">
<path d="M166.771 0.359314H10.979C4.91548 0.359314 0 5.27498 0 11.3388V256.021C0 262.084 4.91548 267 10.979 267H166.771C172.835 267 177.75 262.084 177.75 256.021V11.3388C177.75 5.27498 172.835 0.359314 166.771 0.359314Z" fill="white"/>
<path d="M18.8742 35.7531C20.9304 35.7531 22.7569 34.9645 24.304 33.4174C25.8511 31.8703 26.6397 29.5247 26.6397 26.4605C26.6397 24.3943 26.0907 22.5079 25.0027 20.851C23.815 19.0443 21.8886 18.1261 19.2834 18.1261C17.9659 18.1261 16.7182 18.4854 15.5804 19.1941C15.4107 19.2939 15.251 19.4137 15.0913 19.5235C15.3308 16.2695 15.9098 14.8023 16.4188 14.1535C17.3171 12.9957 18.3452 12.4367 19.5629 12.4367C20.2017 12.4367 20.4014 12.5465 20.3914 12.5765V12.9058C20.3015 13.1554 20.2516 13.4249 20.2516 13.6844C20.2516 14.4529 20.4812 15.0718 20.9204 15.511C21.8886 16.4792 23.9447 16.3793 24.7831 15.3712C25.1824 14.8921 25.382 14.2334 25.382 13.4149C25.382 12.5365 24.883 11.6382 23.8549 10.66C22.8568 9.72181 21.5592 9.25269 19.9722 9.25269C16.9179 9.25269 14.4625 10.5602 12.6758 13.1254C10.979 15.5709 10.1206 19.0743 10.1206 23.5459C10.1206 27.3688 10.8393 30.3532 12.2566 32.4293C13.7638 34.6352 15.9896 35.763 18.8642 35.763L18.8742 35.7531ZM16.9378 22.448C18.3053 21.5097 19.9422 21.3101 21.12 22.8372C21.7488 23.6557 22.0682 24.8734 22.0682 26.4605C22.0682 29.6046 21.5791 30.9321 21.1699 31.501C20.6409 32.2297 19.9123 32.569 18.8742 32.569C17.8362 32.569 17.0377 31.9901 16.2691 30.7923C15.4406 29.4948 15.0114 27.6083 14.9915 25.1729C15.6103 23.8254 16.2691 22.9071 16.9378 22.448Z" fill="black"/>
<path d="M157.489 253.675C157.489 252.906 157.26 252.288 156.821 251.848C155.852 250.88 153.796 250.98 152.958 251.988C152.559 252.467 152.359 253.126 152.359 253.944C152.359 254.823 152.858 255.721 153.886 256.699C154.884 257.638 156.192 258.117 157.769 258.117C160.823 258.117 163.279 256.809 165.065 254.244C166.762 251.798 167.62 248.295 167.62 243.823C167.62 240.001 166.902 237.016 165.484 234.94C163.977 232.734 161.751 231.606 158.877 231.606C156.821 231.606 154.994 232.395 153.447 233.942C151.9 235.489 151.111 237.835 151.111 240.899C151.111 242.965 151.66 244.851 152.748 246.508C153.936 248.315 155.862 249.223 158.468 249.223C159.785 249.223 161.033 248.864 162.181 248.155C162.35 248.045 162.51 247.936 162.67 247.826C162.43 251.08 161.851 252.547 161.342 253.196C160.444 254.354 159.416 254.913 158.198 254.913C157.549 254.913 157.36 254.803 157.37 254.773V254.444C157.459 254.194 157.509 253.924 157.509 253.665L157.489 253.675ZM160.813 244.911C159.446 245.85 157.809 246.049 156.631 244.522C156.002 243.704 155.683 242.486 155.683 240.899C155.683 237.755 156.172 236.427 156.581 235.858C157.11 235.13 157.839 234.79 158.877 234.79C159.915 234.79 160.723 235.369 161.482 236.567C162.31 237.865 162.74 239.751 162.76 242.186C162.141 243.534 161.482 244.452 160.813 244.901V244.911Z" fill="black"/>
<path d="M64.6865 42.1511C63.7483 42.1511 62.86 42.3407 62.0216 42.6501C63.1993 41.3027 63.9379 39.5659 63.9379 37.6395C63.9379 33.4174 60.5145 29.9938 56.2925 29.9938C52.0706 29.9938 48.6471 33.4174 48.6471 37.6395C48.6471 39.5659 49.3857 41.3126 50.5635 42.6501C49.7351 42.3407 48.8368 42.1511 47.8986 42.1511C43.6766 42.1511 40.2532 45.5747 40.2532 49.7968C40.2532 54.0188 43.6766 57.4424 47.8986 57.4424C50.5036 57.4424 52.8092 56.1349 54.1866 54.1386C54.6656 53.7194 55.2645 53.4699 55.9232 53.39V55.4761C55.9232 59.0394 53.0288 61.934 49.4656 61.934V62.6826H63.1095V61.934C59.5463 61.934 56.6518 59.0394 56.6518 55.4761V53.39C57.3106 53.4699 57.9094 53.7194 58.3885 54.1386C59.7659 56.1349 62.0715 57.4424 64.6765 57.4424C68.8985 57.4424 72.3219 54.0188 72.3219 49.7968C72.3219 45.5747 68.8985 42.1511 64.6765 42.1511H64.6865Z" fill="black"/>
<path d="M64.6865 129.478C63.7483 129.478 62.86 129.667 62.0216 129.977C63.1993 128.629 63.9379 126.892 63.9379 124.966C63.9379 120.744 60.5145 117.32 56.2925 117.32C52.0706 117.32 48.6471 120.744 48.6471 124.966C48.6471 126.892 49.3857 128.639 50.5635 129.977C49.7351 129.667 48.8368 129.478 47.8986 129.478C43.6766 129.478 40.2532 132.901 40.2532 137.123C40.2532 141.345 43.6766 144.769 47.8986 144.769C50.5036 144.769 52.8092 143.461 54.1866 141.465C54.6656 141.046 55.2645 140.796 55.9232 140.716V142.793C55.9232 146.356 53.0288 149.251 49.4656 149.251V149.999H63.1095V149.251C59.5463 149.251 56.6518 146.366 56.6518 142.793V140.716C57.3106 140.796 57.9094 141.046 58.3885 141.465C59.7659 143.461 62.0715 144.769 64.6765 144.769C68.8985 144.769 72.3219 141.345 72.3219 137.123C72.3219 132.901 68.8985 129.478 64.6765 129.478H64.6865Z" fill="black"/>
<path d="M64.6865 209.867C62.0815 209.867 59.7759 211.175 58.3985 213.171C57.9194 213.59 57.3206 213.84 56.6618 213.919V211.833C56.6618 208.27 59.5563 205.385 63.1095 205.385V204.637H49.4656V205.385C53.0288 205.385 55.9232 208.28 55.9232 211.833V213.919C55.2645 213.84 54.6656 213.59 54.1866 213.171C52.8092 211.175 50.5036 209.867 47.8986 209.867C43.6766 209.867 40.2532 213.291 40.2532 217.513C40.2532 221.735 43.6766 225.158 47.8986 225.158C48.8368 225.158 49.7251 224.969 50.5635 224.659C49.3857 226.007 48.6471 227.744 48.6471 229.67C48.6471 233.892 52.0706 237.316 56.2925 237.316C60.5145 237.316 63.9379 233.892 63.9379 229.67C63.9379 227.744 63.1993 225.997 62.0216 224.659C62.85 224.969 63.7483 225.158 64.6865 225.158C68.9084 225.158 72.3319 221.735 72.3319 217.513C72.3319 213.291 68.9084 209.867 64.6865 209.867Z" fill="black"/>
<path d="M129.862 42.1511C128.924 42.1511 128.035 42.3407 127.197 42.6501C128.375 41.3027 129.113 39.5659 129.113 37.6395C129.113 33.4174 125.69 29.9938 121.468 29.9938C117.246 29.9938 113.822 33.4174 113.822 37.6395C113.822 39.5659 114.561 41.3126 115.739 42.6501C114.91 42.3407 114.022 42.1511 113.084 42.1511C108.862 42.1511 105.438 45.5747 105.438 49.7968C105.438 54.0188 108.862 57.4424 113.084 57.4424C115.689 57.4424 117.994 56.1349 119.372 54.1386C119.851 53.7194 120.45 53.4699 121.109 53.39V55.4761C121.109 59.0394 118.214 61.934 114.651 61.934V62.6826H128.295V61.934C124.732 61.934 121.837 59.0394 121.837 55.4761V53.39C122.496 53.4699 123.095 53.7194 123.574 54.1386C124.951 56.1349 127.257 57.4424 129.862 57.4424C134.084 57.4424 137.507 54.0188 137.507 49.7968C137.507 45.5747 134.084 42.1511 129.862 42.1511Z" fill="black"/>
<path d="M129.862 129.478C128.924 129.478 128.035 129.667 127.197 129.977C128.375 128.629 129.113 126.892 129.113 124.966C129.113 120.744 125.69 117.32 121.468 117.32C117.246 117.32 113.822 120.744 113.822 124.966C113.822 126.892 114.561 128.639 115.739 129.977C114.91 129.667 114.022 129.478 113.084 129.478C108.862 129.478 105.438 132.901 105.438 137.123C105.438 141.345 108.862 144.769 113.084 144.769C115.689 144.769 117.994 143.461 119.372 141.465C119.851 141.046 120.45 140.796 121.109 140.716V142.793C121.109 146.356 118.214 149.251 114.651 149.251V149.999H128.295V149.251C124.732 149.251 121.837 146.366 121.837 142.793V140.716C122.496 140.796 123.095 141.046 123.574 141.465C124.951 143.461 127.257 144.769 129.862 144.769C134.084 144.769 137.507 141.345 137.507 137.123C137.507 132.901 134.084 129.478 129.862 129.478Z" fill="black"/>
<path d="M129.862 209.867C127.247 209.867 124.951 211.175 123.574 213.171C123.095 213.59 122.496 213.84 121.837 213.919V211.833C121.837 208.27 124.732 205.385 128.295 205.385V204.637H114.651V205.385C118.214 205.385 121.109 208.28 121.109 211.833V213.919C120.45 213.84 119.851 213.59 119.372 213.171C117.994 211.175 115.689 209.867 113.084 209.867C108.862 209.867 105.438 213.291 105.438 217.513C105.438 221.735 108.862 225.158 113.084 225.158C114.022 225.158 114.91 224.969 115.739 224.659C114.561 226.007 113.822 227.744 113.822 229.67C113.822 233.892 117.246 237.316 121.468 237.316C125.69 237.316 129.113 233.892 129.113 229.67C129.113 227.744 128.375 225.997 127.197 224.659C128.025 224.969 128.924 225.158 129.862 225.158C134.084 225.158 137.507 221.735 137.507 217.513C137.507 213.291 134.084 209.867 129.862 209.867Z" fill="black"/>
<path d="M9.4519 53.1405C9.4519 55.526 11.3783 57.4524 13.7638 57.4524C15.2311 57.4524 16.5287 56.7138 17.3072 55.5859C17.5767 55.3464 17.9161 55.2066 18.2854 55.1667V56.3445C18.2854 58.3507 16.6584 59.9777 14.6522 59.9777V60.3969H22.3378V59.9777C20.3315 59.9777 18.7046 58.3507 18.7046 56.3445V55.1667C19.0739 55.2166 19.4132 55.3563 19.6827 55.5859C20.4613 56.7138 21.7589 57.4524 23.2261 57.4524C25.6017 57.4524 27.538 55.526 27.538 53.1405C27.538 50.755 25.6116 48.8286 23.2261 48.8286C22.6971 48.8286 22.198 48.9384 21.7289 49.108C22.3877 48.3495 22.8069 47.3713 22.8069 46.2833C22.8069 43.9078 20.8805 41.9714 18.495 41.9714C16.1094 41.9714 14.183 43.8978 14.183 46.2833C14.183 47.3713 14.6023 48.3495 15.261 49.108C14.7919 48.9384 14.2928 48.8286 13.7638 48.8286C11.3783 48.8286 9.4519 50.755 9.4519 53.1405Z" fill="black"/>
<path d="M168.299 214.219C168.299 211.833 166.373 209.907 163.987 209.907C162.52 209.907 161.223 210.646 160.444 211.773C160.174 212.013 159.835 212.153 159.466 212.193V211.025C159.466 209.019 161.093 207.392 163.099 207.392V206.972H155.413V207.392C157.42 207.392 159.047 209.019 159.047 211.025V212.193C158.677 212.143 158.338 212.003 158.068 211.773C157.29 210.646 155.992 209.907 154.525 209.907C152.14 209.907 150.213 211.833 150.213 214.219C150.213 216.604 152.14 218.531 154.525 218.531C155.054 218.531 155.553 218.421 156.022 218.241C155.363 219 154.944 219.978 154.944 221.066C154.944 223.452 156.871 225.378 159.256 225.378C161.642 225.378 163.568 223.452 163.568 221.066C163.568 219.978 163.149 219 162.49 218.241C162.959 218.421 163.458 218.531 163.987 218.531C166.363 218.531 168.299 216.604 168.299 214.219Z" fill="black"/>
</svg>
