<svg width="178" height="267" viewBox="0 0 178 267" fill="none" xmlns="http://www.w3.org/2000/svg">
<path d="M166.771 0.359314H10.979C4.91548 0.359314 0 5.27498 0 11.3388V256.021C0 262.084 4.91548 267 10.979 267H166.771C172.835 267 177.75 262.084 177.75 256.021V11.3388C177.75 5.27498 172.835 0.359314 166.771 0.359314Z" fill="white"/>
<path d="M16.4792 32.559H14.1736C13.6446 32.559 13.2653 32.4492 13.0157 32.2496C12.9459 32.1897 12.7662 32.03 12.7662 31.4511V9.25269H10.6003L10.3208 9.87153C10.0712 10.4105 9.73188 10.7898 9.28273 11.0493C8.79364 11.3288 8.11491 11.4785 7.2665 11.4785H5.09058V14.5328H8.41435C8.604 14.5328 8.66388 14.5727 8.67387 14.6725V31.4611C8.67387 31.8703 8.59402 32.1498 8.4443 32.2995C8.35446 32.3794 8.07499 32.569 7.2665 32.569H5.09058V35.6233H16.4693V32.569L16.4792 32.559Z" fill="black"/>
<path d="M24.1441 9.3924C21.8085 9.3924 19.9021 10.69 18.4747 13.2552C17.1472 15.6407 16.4685 18.7748 16.4685 22.5677C16.4685 26.6501 17.1672 29.894 18.5546 32.1897C20.0219 34.6451 21.9083 35.8828 24.1441 35.8828C26.3799 35.8828 28.2564 34.6052 29.6838 32.0899C31.0113 29.7443 31.69 26.5403 31.69 22.5577C31.69 18.5752 31.0113 15.3912 29.6838 13.0855C28.2564 10.6201 26.3899 9.37244 24.1441 9.37244V9.3924ZM26.2103 30.3432C25.3818 32.559 24.4536 32.559 24.1541 32.559C23.4055 32.559 22.7068 31.8004 22.078 30.2933C21.3294 28.5066 20.9501 25.9115 20.9501 22.5677C20.9501 19.4037 21.3294 16.8684 22.078 15.0318C22.7068 13.4947 23.4055 12.7062 24.1441 12.7062C24.7131 12.7062 25.5615 12.9358 26.2502 14.972C26.889 16.8285 27.2084 19.3837 27.2084 22.5677C27.2084 25.9214 26.869 28.5365 26.2003 30.3432H26.2103Z" fill="black"/>
<path d="M161.282 234.8H163.588C164.117 234.8 164.496 234.91 164.736 235.11C164.805 235.17 164.985 235.329 164.985 235.908V258.117H167.151L167.43 257.498C167.68 256.959 168.019 256.58 168.469 256.32C168.958 256.041 169.636 255.901 170.485 255.901H172.661V252.847H169.337C169.147 252.847 169.087 252.807 169.077 252.707V235.918C169.077 235.509 169.157 235.23 169.307 235.08C169.397 235 169.676 234.8 170.485 234.8H172.661V231.746H161.282V234.8Z" fill="black"/>
<path d="M153.607 257.977C155.943 257.977 157.849 256.679 159.276 254.114C160.604 251.729 161.283 248.594 161.283 244.802C161.283 240.709 160.584 237.475 159.196 235.18C157.719 232.724 155.843 231.487 153.607 231.487C151.371 231.487 149.495 232.764 148.067 235.279C146.74 237.625 146.061 240.829 146.061 244.812C146.061 248.794 146.74 251.978 148.077 254.284C149.505 256.749 151.371 257.997 153.607 257.997V257.977ZM151.551 237.026C152.379 234.8 153.307 234.8 153.607 234.8C154.356 234.8 155.054 235.559 155.683 237.066C156.432 238.853 156.811 241.448 156.811 244.792C156.811 247.956 156.432 250.491 155.683 252.327C155.054 253.865 154.356 254.643 153.617 254.643C153.048 254.643 152.2 254.414 151.511 252.387C150.872 250.531 150.553 247.976 150.553 244.792C150.553 241.438 150.892 238.823 151.561 237.016L151.551 237.026Z" fill="black"/>
<path d="M64.6865 42.1511C63.7483 42.1511 62.86 42.3407 62.0216 42.6501C63.1993 41.3027 63.9379 39.5659 63.9379 37.6395C63.9379 33.4174 60.5145 29.9938 56.2925 29.9938C52.0706 29.9938 48.6471 33.4174 48.6471 37.6395C48.6471 39.5659 49.3857 41.3126 50.5635 42.6501C49.7351 42.3407 48.8368 42.1511 47.8986 42.1511C43.6766 42.1511 40.2532 45.5747 40.2532 49.7968C40.2532 54.0188 43.6766 57.4424 47.8986 57.4424C50.5036 57.4424 52.8092 56.1349 54.1866 54.1386C54.6656 53.7194 55.2645 53.4699 55.9232 53.39V55.4761C55.9232 59.0394 53.0288 61.934 49.4756 61.934V62.6826H63.1195V61.934C59.5563 61.934 56.6618 59.0394 56.6618 55.4761V53.39C57.3206 53.4699 57.9194 53.7194 58.3985 54.1386C59.7759 56.1349 62.0815 57.4424 64.6865 57.4424C68.9084 57.4424 72.3319 54.0188 72.3319 49.7968C72.3319 45.5747 68.9084 42.1511 64.6865 42.1511Z" fill="black"/>
<path d="M80.4762 88.4544C83.0813 88.4544 85.3869 87.1468 86.7642 85.1506C87.2433 84.7313 87.8422 84.4818 88.5009 84.402V86.4781C88.5009 90.0414 85.6064 92.926 82.0532 92.926V93.6746H95.6972V92.926C92.134 92.926 89.2395 90.0414 89.2395 86.4781V84.402C89.8982 84.4818 90.4971 84.7313 90.9762 85.1506C92.3535 87.1468 94.6591 88.4544 97.2642 88.4544C101.486 88.4544 104.91 85.0308 104.91 80.8087C104.91 76.5866 101.486 73.163 97.2642 73.163C96.326 73.163 95.4377 73.3527 94.5993 73.6621C95.777 72.3146 96.5156 70.5778 96.5156 68.6515C96.5156 64.4294 93.0921 61.0058 88.8702 61.0058C84.6483 61.0058 81.2248 64.4294 81.2248 68.6515C81.2248 70.5778 81.9634 72.3246 83.1411 73.6621C82.3127 73.3527 81.4244 73.163 80.4862 73.163C76.2643 73.163 72.8408 76.5866 72.8408 80.8087C72.8408 85.0308 76.2643 88.4544 80.4862 88.4544H80.4762Z" fill="black"/>
<path d="M64.6865 101.141C63.7483 101.141 62.86 101.33 62.0216 101.64C63.1993 100.292 63.9379 98.5554 63.9379 96.629C63.9379 92.407 60.5145 88.9834 56.2925 88.9834C52.0706 88.9834 48.6471 92.407 48.6471 96.629C48.6471 98.5554 49.3857 100.292 50.5635 101.64C49.7351 101.33 48.8368 101.141 47.8986 101.141C43.6766 101.141 40.2532 104.564 40.2532 108.786C40.2532 113.008 43.6766 116.432 47.8986 116.432C50.5036 116.432 52.8092 115.124 54.1866 113.128C54.6656 112.709 55.2645 112.459 55.9232 112.38V114.456C55.9232 118.019 53.0288 120.914 49.4756 120.914V121.662H63.1195V120.914C59.5563 120.914 56.6618 118.019 56.6618 114.456V112.38C57.3206 112.459 57.9194 112.709 58.3985 113.128C59.7759 115.124 62.0815 116.442 64.6865 116.442C68.9084 116.442 72.3319 113.018 72.3319 108.796C72.3319 104.574 68.9084 101.151 64.6865 101.151V101.141Z" fill="black"/>
<path d="M64.6865 209.867C62.0815 209.867 59.7759 211.175 58.3985 213.171C57.9195 213.59 57.3206 213.84 56.6619 213.919V211.833C56.6619 208.27 59.5563 205.385 63.1195 205.385V204.637H49.4756V205.385C53.0388 205.385 55.9333 208.28 55.9333 211.833V213.919C55.2745 213.84 54.6757 213.59 54.1966 213.171C52.8192 211.175 50.5136 209.867 47.9086 209.867C43.6866 209.867 40.2632 213.291 40.2632 217.513C40.2632 221.735 43.6866 225.158 47.9086 225.158C48.8468 225.158 49.7351 224.969 50.5735 224.659C49.3957 226.007 48.6572 227.744 48.6572 229.67C48.6572 233.892 52.0806 237.316 56.3025 237.316C60.5245 237.316 63.9479 233.892 63.9479 229.67C63.9479 227.744 63.2094 225.997 62.0316 224.659C62.86 224.969 63.7583 225.158 64.6965 225.158C68.9185 225.158 72.3419 221.735 72.3419 217.513C72.3419 213.291 68.9185 209.867 64.6965 209.867H64.6865Z" fill="black"/>
<path d="M64.6865 153.193C62.0815 153.193 59.7759 154.501 58.3985 156.497C57.9195 156.916 57.3206 157.166 56.6619 157.246V155.169C56.6619 151.606 59.5563 148.712 63.1195 148.712V147.963H49.4756V148.712C53.0388 148.712 55.9333 151.606 55.9333 155.169V157.246C55.2745 157.166 54.6757 156.916 54.1966 156.497C52.8192 154.501 50.5136 153.193 47.9086 153.193C43.6866 153.193 40.2632 156.617 40.2632 160.839C40.2632 165.061 43.6866 168.484 47.9086 168.484C48.8468 168.484 49.7351 168.295 50.5735 167.985C49.3957 169.333 48.6572 171.07 48.6572 172.996C48.6572 177.218 52.0806 180.642 56.3025 180.642C60.5245 180.642 63.9479 177.218 63.9479 172.996C63.9479 171.07 63.2094 169.323 62.0316 167.985C62.86 168.295 63.7583 168.484 64.6965 168.484C68.9185 168.484 72.3419 165.061 72.3419 160.839C72.3419 156.617 68.9185 153.193 64.6965 153.193H64.6865Z" fill="black"/>
<path d="M129.862 42.1511C128.924 42.1511 128.035 42.3407 127.197 42.6501C128.375 41.3027 129.113 39.5659 129.113 37.6395C129.113 33.4174 125.69 29.9938 121.468 29.9938C117.246 29.9938 113.822 33.4174 113.822 37.6395C113.822 39.5659 114.561 41.3126 115.739 42.6501C114.91 42.3407 114.022 42.1511 113.084 42.1511C108.862 42.1511 105.438 45.5747 105.438 49.7968C105.438 54.0188 108.862 57.4424 113.084 57.4424C115.689 57.4424 117.994 56.1349 119.372 54.1386C119.851 53.7194 120.45 53.4699 121.109 53.39V55.4761C121.109 59.0394 118.224 61.934 114.661 61.934V62.6826H128.305V61.934C124.742 61.934 121.847 59.0394 121.847 55.4761V53.39C122.506 53.4699 123.105 53.7194 123.584 54.1386C124.961 56.1349 127.267 57.4424 129.872 57.4424C134.094 57.4424 137.517 54.0188 137.517 49.7968C137.517 45.5747 134.094 42.1511 129.872 42.1511H129.862Z" fill="black"/>
<path d="M129.862 101.141C128.924 101.141 128.035 101.33 127.197 101.64C128.375 100.292 129.113 98.5554 129.113 96.629C129.113 92.407 125.69 88.9834 121.468 88.9834C117.246 88.9834 113.822 92.407 113.822 96.629C113.822 98.5554 114.561 100.292 115.739 101.64C114.91 101.33 114.022 101.141 113.084 101.141C108.862 101.141 105.438 104.564 105.438 108.786C105.438 113.008 108.862 116.432 113.084 116.432C115.689 116.432 117.994 115.124 119.372 113.128C119.851 112.709 120.45 112.459 121.109 112.38V114.456C121.109 118.019 118.224 120.914 114.661 120.914V121.662H128.305V120.914C124.742 120.914 121.847 118.019 121.847 114.456V112.38C122.506 112.459 123.105 112.709 123.584 113.128C124.961 115.124 127.267 116.442 129.872 116.442C134.094 116.442 137.517 113.018 137.517 108.796C137.517 104.574 134.094 101.151 129.872 101.151L129.862 101.141Z" fill="black"/>
<path d="M129.862 209.867C127.257 209.867 124.951 211.175 123.574 213.171C123.095 213.59 122.496 213.84 121.837 213.919V211.833C121.837 208.27 124.732 205.385 128.295 205.385V204.637H114.651V205.385C118.214 205.385 121.099 208.28 121.099 211.833V213.919C120.44 213.84 119.841 213.59 119.362 213.171C117.985 211.175 115.679 209.867 113.074 209.867C108.852 209.867 105.429 213.291 105.429 217.513C105.429 221.735 108.852 225.158 113.074 225.158C114.012 225.158 114.901 224.969 115.729 224.659C114.551 226.007 113.813 227.744 113.813 229.67C113.813 233.892 117.236 237.316 121.458 237.316C125.68 237.316 129.104 233.892 129.104 229.67C129.104 227.744 128.365 225.997 127.187 224.659C128.016 224.969 128.914 225.158 129.852 225.158C134.074 225.158 137.497 221.735 137.497 217.513C137.497 213.291 134.074 209.867 129.852 209.867H129.862Z" fill="black"/>
<path d="M129.862 153.193C127.257 153.193 124.951 154.501 123.574 156.497C123.095 156.916 122.496 157.166 121.837 157.246V155.169C121.837 151.606 124.732 148.712 128.295 148.712V147.963H114.651V148.712C118.214 148.712 121.099 151.606 121.099 155.169V157.246C120.44 157.166 119.841 156.916 119.362 156.497C117.985 154.501 115.679 153.193 113.074 153.193C108.852 153.193 105.429 156.617 105.429 160.839C105.429 165.061 108.852 168.484 113.074 168.484C114.012 168.484 114.901 168.295 115.729 167.985C114.551 169.333 113.813 171.07 113.813 172.996C113.813 177.218 117.236 180.642 121.458 180.642C125.68 180.642 129.104 177.218 129.104 172.996C129.104 171.07 128.365 169.323 127.187 167.985C128.016 168.295 128.914 168.484 129.852 168.484C134.074 168.484 137.497 165.061 137.497 160.839C137.497 156.617 134.074 153.193 129.852 153.193H129.862Z" fill="black"/>
<path d="M97.2741 178.915C94.6691 178.915 92.3635 180.222 90.9862 182.219C90.5071 182.638 89.9082 182.887 89.2495 182.967V180.881C89.2495 177.318 92.1439 174.423 95.7071 174.423V173.675H82.0632V174.423C85.6264 174.423 88.5109 177.318 88.5109 180.881V182.967C87.8521 182.887 87.2533 182.638 86.7742 182.219C85.3968 180.222 83.0912 178.915 80.4862 178.915C76.2643 178.915 72.8408 182.339 72.8408 186.561C72.8408 190.783 76.2643 194.206 80.4862 194.206C81.4244 194.206 82.3127 194.017 83.1411 193.707C81.9634 195.055 81.2248 196.791 81.2248 198.718C81.2248 202.94 84.6483 206.364 88.8702 206.364C93.0921 206.364 96.5156 202.94 96.5156 198.718C96.5156 196.791 95.777 195.045 94.5993 193.707C95.4277 194.017 96.326 194.206 97.2642 194.206C101.486 194.206 104.91 190.783 104.91 186.561C104.91 182.339 101.486 178.915 97.2642 178.915H97.2741Z" fill="black"/>
<path d="M9.4519 53.1405C9.4519 55.526 11.3783 57.4524 13.7638 57.4524C15.2311 57.4524 16.5287 56.7138 17.3072 55.5859C17.5767 55.3464 17.9161 55.2066 18.2854 55.1667V56.3445C18.2854 58.3507 16.6584 59.9777 14.6522 59.9777V60.3969H22.3378V59.9777C20.3315 59.9777 18.7046 58.3507 18.7046 56.3445V55.1667C19.0739 55.2166 19.4132 55.3563 19.6827 55.5859C20.4613 56.7138 21.7589 57.4524 23.2261 57.4524C25.6116 57.4524 27.538 55.526 27.538 53.1405C27.538 50.755 25.6116 48.8286 23.2261 48.8286C22.6971 48.8286 22.198 48.9384 21.7289 49.108C22.3877 48.3495 22.8069 47.3713 22.8069 46.2833C22.8069 43.9078 20.8805 41.9714 18.495 41.9714C16.1094 41.9714 14.183 43.8978 14.183 46.2833C14.183 47.3713 14.6023 48.3495 15.261 49.108C14.7919 48.9384 14.2928 48.8286 13.7638 48.8286C11.3783 48.8286 9.4519 50.755 9.4519 53.1405Z" fill="black"/>
<path d="M168.299 214.219C168.299 211.833 166.373 209.907 163.987 209.907C162.52 209.907 161.223 210.646 160.444 211.773C160.174 212.013 159.835 212.153 159.466 212.193V211.025C159.466 209.019 161.093 207.392 163.099 207.392V206.972H155.413V207.392C157.42 207.392 159.047 209.019 159.047 211.025V212.193C158.677 212.143 158.338 212.003 158.068 211.773C157.29 210.646 155.992 209.907 154.525 209.907C152.14 209.907 150.213 211.833 150.213 214.219C150.213 216.604 152.14 218.531 154.525 218.531C155.054 218.531 155.553 218.421 156.022 218.241C155.354 219 154.944 219.978 154.944 221.066C154.944 223.452 156.871 225.378 159.256 225.378C161.642 225.378 163.568 223.452 163.568 221.066C163.568 219.978 163.149 219 162.49 218.241C162.959 218.421 163.458 218.531 163.987 218.531C166.363 218.531 168.299 216.604 168.299 214.219Z" fill="black"/>
</svg>
