<svg width="178" height="267" viewBox="0 0 178 267" fill="none" xmlns="http://www.w3.org/2000/svg">
<path d="M166.771 0.359314H10.979C4.91548 0.359314 0 5.27498 0 11.3388V256.021C0 262.084 4.91548 267 10.979 267H166.771C172.835 267 177.75 262.084 177.75 256.021V11.3388C177.75 5.27498 172.835 0.359314 166.771 0.359314Z" fill="white"/>
<path d="M16.4186 24.1448H19.413L17.9557 18.0861L16.4186 24.1448Z" fill="white"/>
<path d="M27.8967 36.0824H19.7124V33.0282H21.3492C21.3492 32.7986 21.3293 32.6589 21.2894 32.5391L20.0717 27.1991H15.5902L14.5422 31.6208C14.4724 31.9602 14.4325 32.2496 14.4325 32.4792C14.4325 32.6589 14.4624 32.8485 14.5123 33.0381C14.5522 33.0381 14.6221 33.0381 14.7119 33.0381H16.239V36.0924H8.88306V33.0381L10.6696 32.9483C10.6696 32.9483 10.7695 32.8385 10.8393 32.4393L16.4187 10.5303L20.2214 9.26266L25.7808 32.3594C25.9305 32.7886 26.0902 32.9283 26.1002 32.9383L26.7789 33.0282H27.8868V36.0824H27.8967ZM168.867 234.341L167.081 234.431C167.081 234.431 166.981 234.541 166.911 234.94L161.332 256.849L157.529 258.117L151.97 235.02C151.82 234.591 151.66 234.451 151.65 234.431L150.972 234.341H149.864V231.287H158.048V234.341H156.411C156.411 234.571 156.431 234.71 156.471 234.83L157.689 240.17H162.17L163.218 235.749C163.288 235.409 163.328 235.12 163.328 234.89C163.328 234.71 163.298 234.521 163.248 234.331C163.208 234.331 163.138 234.331 163.049 234.331H161.522V231.277H168.877V234.331L168.867 234.341Z" fill="white"/>
<path d="M159.805 249.273L161.332 243.215H158.338L159.805 249.273Z" fill="white"/>
<path d="M26.1108 32.9383C26.1108 32.9383 25.9312 32.7786 25.7914 32.3494L20.2318 9.25269L16.429 10.5203L10.8494 32.4293C10.7795 32.8285 10.6797 32.9383 10.6797 32.9383L8.89307 33.0282V36.0824H16.2493V33.0282H14.7222C14.6323 33.0282 14.5724 33.0282 14.5225 33.0282C14.4626 32.8385 14.4427 32.6489 14.4427 32.4692C14.4427 32.2496 14.4826 31.9502 14.5525 31.6108L15.6005 27.1891H20.0821L21.2998 32.5291C21.3398 32.6489 21.3597 32.7886 21.3597 33.0182H19.7228V36.0725H27.9075V33.0182H26.7995L26.1208 32.9283L26.1108 32.9383ZM16.419 24.1448L17.9461 18.0861L19.4034 24.1448H16.409H16.419Z" fill="black"/>
<path d="M151.64 234.431C151.64 234.431 151.82 234.591 151.96 235.02L157.519 258.117L161.322 256.849L166.902 234.94C166.972 234.541 167.071 234.431 167.071 234.431L168.858 234.341V231.287H161.502V234.341H163.029C163.119 234.341 163.179 234.341 163.229 234.341C163.289 234.531 163.309 234.72 163.309 234.9C163.309 235.12 163.269 235.419 163.199 235.758L162.151 240.18H157.669L156.451 234.84C156.411 234.72 156.391 234.581 156.391 234.351H158.028V231.297H149.844V234.351H150.952L151.63 234.441L151.64 234.431ZM161.332 243.215L159.795 249.273L158.338 243.215H161.332Z" fill="black"/>
<path d="M9.4519 53.1405C9.4519 55.526 11.3783 57.4524 13.7638 57.4524C15.2311 57.4524 16.5287 56.7138 17.3072 55.5859C17.5767 55.3464 17.9161 55.2066 18.2854 55.1667V56.3445C18.2854 58.3507 16.6584 59.9777 14.6522 59.9777V60.3969H22.3378V59.9777C20.3315 59.9777 18.7046 58.3507 18.7046 56.3445V55.1667C19.0739 55.2166 19.4132 55.3563 19.6827 55.5859C20.4613 56.7138 21.7589 57.4524 23.2261 57.4524C25.6116 57.4524 27.538 55.526 27.538 53.1405C27.538 50.755 25.6116 48.8286 23.2261 48.8286C22.6971 48.8286 22.198 48.9384 21.7289 49.108C22.3877 48.3495 22.8069 47.3713 22.8069 46.2833C22.8069 43.9078 20.8805 41.9714 18.495 41.9714C16.1094 41.9714 14.183 43.8978 14.183 46.2833C14.183 47.3713 14.6023 48.3495 15.261 49.108C14.7919 48.9384 14.2928 48.8286 13.7638 48.8286C11.3783 48.8286 9.4519 50.755 9.4519 53.1405Z" fill="black"/>
<path d="M168.299 214.219C168.299 211.833 166.373 209.907 163.987 209.907C162.52 209.907 161.223 210.646 160.444 211.773C160.174 212.013 159.835 212.153 159.466 212.193V211.025C159.466 209.019 161.093 207.392 163.099 207.392V206.972H155.413V207.392C157.42 207.392 159.047 209.019 159.047 211.025V212.193C158.677 212.143 158.338 212.003 158.068 211.773C157.29 210.646 155.992 209.907 154.525 209.907C152.14 209.907 150.213 211.833 150.213 214.219C150.213 216.604 152.14 218.531 154.525 218.531C155.054 218.531 155.553 218.421 156.022 218.241C155.363 219 154.944 219.978 154.944 221.066C154.944 223.452 156.871 225.378 159.256 225.378C161.642 225.378 163.568 223.452 163.568 221.066C163.568 219.978 163.149 219 162.49 218.241C162.959 218.421 163.458 218.531 163.987 218.531C166.363 218.531 168.299 216.604 168.299 214.219Z" fill="black"/>
<path d="M104.381 125.964C102.644 125.964 101.007 126.323 99.47 126.892C101.646 124.407 103.003 121.193 103.003 117.64C103.003 109.834 96.6853 103.516 88.8803 103.516C81.0752 103.516 74.7572 109.834 74.7572 117.64C74.7572 121.203 76.1146 124.417 78.2905 126.892C76.7534 126.323 75.1066 125.964 73.3799 125.964C65.5748 125.964 59.2568 132.292 59.2568 140.088C59.2568 147.883 65.5748 154.211 73.3799 154.211C78.2006 154.211 82.4426 151.786 84.9877 148.103C85.866 147.334 86.9839 146.875 88.2016 146.725V150.568C88.2016 157.146 82.8717 162.486 76.2843 162.486V163.863H101.466V162.486C94.8888 162.486 89.549 157.156 89.549 150.568V146.725C90.7667 146.875 91.8745 147.334 92.7628 148.103C95.308 151.786 99.5599 154.211 104.381 154.211C112.176 154.211 118.504 147.893 118.504 140.088C118.504 132.282 112.176 125.964 104.381 125.964Z" fill="black"/>
</svg>
