<svg width="178" height="267" viewBox="0 0 178 267" fill="none" xmlns="http://www.w3.org/2000/svg">
<path d="M166.771 0.359314H10.979C4.91548 0.359314 0 5.27498 0 11.3388V256.021C0 262.084 4.91548 267 10.979 267H166.771C172.835 267 177.75 262.084 177.75 256.021V11.3388C177.75 5.27498 172.835 0.359314 166.771 0.359314Z" fill="white"/>
<path d="M22.747 49.637C20.6709 47.6208 19.2934 45.6545 18.3951 44.0974C17.4868 45.6545 16.1194 47.6208 14.0433 49.637C12.4063 51.2241 10.7594 52.4218 9.35205 53.3102C10.7594 54.1985 12.4063 55.3963 14.0433 56.9833C16.1194 58.9995 17.4968 60.9658 18.3951 62.5229C19.3034 60.9658 20.6709 58.9995 22.747 56.9833C24.3839 55.3963 26.0308 54.1985 27.4282 53.3102C26.0208 52.4218 24.3739 51.2241 22.747 49.637Z" fill="#B4171E"/>
<path d="M155.004 217.722C157.08 219.739 158.458 221.705 159.356 223.262C160.264 221.705 161.642 219.739 163.718 217.722C165.355 216.135 166.992 214.938 168.399 214.049C166.992 213.161 165.345 211.963 163.718 210.376C161.642 208.37 160.264 206.394 159.356 204.836C158.448 206.394 157.08 208.36 155.004 210.376C153.367 211.963 151.72 213.161 150.323 214.049C151.73 214.938 153.377 216.145 155.004 217.722Z" fill="#B4171E"/>
<path d="M19.2935 18.1361C17.9759 18.1361 16.7283 18.4954 15.5904 19.204C15.4207 19.3039 15.261 19.4236 15.1013 19.5334C15.3409 16.2795 15.9198 14.8123 16.4288 14.1635C17.3271 13.0057 18.3552 12.4467 19.5729 12.4467C20.2117 12.4467 20.4114 12.5565 20.4014 12.5864V12.9158C20.3116 13.1654 20.2616 13.4349 20.2616 13.6944C20.2616 14.4629 20.4912 15.0818 20.9304 15.5209C21.8986 16.4891 23.9547 16.3893 24.7932 15.3812C25.1924 14.9021 25.392 14.2433 25.392 13.4249C25.392 12.5465 24.893 11.6482 23.8649 10.67C22.8668 9.73179 21.5692 9.25269 19.9822 9.25269C16.9279 9.25269 14.4725 10.5602 12.6858 13.1254C10.989 15.5709 10.1306 19.0743 10.1306 23.5459C10.1306 27.3688 10.8493 30.3532 12.2666 32.4293C13.7738 34.6352 15.9996 35.7531 18.8742 35.7531C20.9304 35.7531 22.757 34.9645 24.3041 33.4174C25.8512 31.8703 26.6397 29.5247 26.6397 26.4605C26.6397 24.4043 26.0907 22.5178 25.0028 20.851C23.815 19.0443 21.8886 18.1261 19.2835 18.1261L19.2935 18.1361ZM21.1699 31.491C20.6409 32.2197 19.9123 32.559 18.8742 32.559C17.8362 32.559 17.0377 31.9801 16.2691 30.7824C15.4407 29.4848 15.0115 27.5983 14.9915 25.1629C15.6104 23.8154 16.2691 22.8971 16.9379 22.448C18.3053 21.5097 19.9422 21.3101 21.12 22.8372C21.7489 23.6557 22.0683 24.8734 22.0683 26.4605C22.0683 29.6046 21.5792 30.9321 21.1699 31.501V31.491Z" fill="#B4171E"/>
<path d="M158.458 249.233C159.775 249.233 161.023 248.874 162.171 248.165C162.34 248.065 162.5 247.946 162.66 247.836C162.42 251.09 161.841 252.557 161.332 253.206C160.434 254.364 159.406 254.923 158.188 254.923C157.539 254.923 157.35 254.813 157.36 254.783V254.454C157.449 254.194 157.499 253.934 157.499 253.675C157.499 252.906 157.27 252.288 156.831 251.848C155.862 250.88 153.806 250.98 152.968 251.988C152.569 252.467 152.369 253.126 152.369 253.944C152.369 254.823 152.868 255.721 153.896 256.699C154.894 257.638 156.202 258.107 157.779 258.107C160.833 258.107 163.289 256.799 165.075 254.234C166.772 251.789 167.63 248.285 167.63 243.813C167.63 239.991 166.912 237.006 165.494 234.93C163.987 232.724 161.761 231.596 158.887 231.596C156.831 231.596 155.004 232.385 153.457 233.932C151.91 235.479 151.121 237.825 151.121 240.889C151.121 242.945 151.67 244.842 152.758 246.498C153.946 248.305 155.872 249.223 158.478 249.223L158.458 249.233ZM156.581 235.868C157.11 235.14 157.839 234.8 158.877 234.8C159.915 234.8 160.723 235.379 161.482 236.577C162.31 237.875 162.74 239.761 162.76 242.196C162.141 243.544 161.482 244.462 160.813 244.921C159.446 245.86 157.809 246.059 156.631 244.532C156.002 243.714 155.683 242.496 155.683 240.909C155.683 237.765 156.172 236.437 156.581 235.868Z" fill="#B4171E"/>
<path d="M64.0277 39.8254C60.3348 36.2521 57.8994 32.7487 56.2925 29.9938C54.6855 32.7587 52.2402 36.2521 48.5573 39.8254C45.6528 42.6402 42.7284 44.7662 40.2332 46.3532C42.7284 47.9302 45.6528 50.0662 48.5573 52.881C52.2402 56.4543 54.6855 59.9577 56.2925 62.7126C57.8994 59.9477 60.3447 56.4543 64.0277 52.881C66.9322 50.0662 69.8566 47.9402 72.3518 46.3532C69.8566 44.7762 66.9322 42.6402 64.0277 39.8254Z" fill="#B4171E"/>
<path d="M129.203 39.8254C125.52 36.2521 123.075 32.7487 121.468 29.9938C119.861 32.7587 117.416 36.2521 113.733 39.8254C110.828 42.6402 107.904 44.7662 105.409 46.3532C107.904 47.9302 110.828 50.0662 113.733 52.881C117.416 56.4543 119.861 59.9577 121.468 62.7126C123.075 59.9477 125.52 56.4543 129.203 52.881C132.108 50.0662 135.032 47.9402 137.527 46.3532C135.032 44.7762 132.108 42.6402 129.203 39.8254Z" fill="#B4171E"/>
<path d="M64.0277 127.162C60.3348 123.589 57.8994 120.095 56.2925 117.33C54.6855 120.095 52.2402 123.589 48.5573 127.162C45.6528 129.977 42.7284 132.113 40.2332 133.69C42.7284 135.267 45.6528 137.403 48.5573 140.217C52.2402 143.791 54.6855 147.294 56.2925 150.049C57.8994 147.284 60.3447 143.791 64.0277 140.217C66.9322 137.403 69.8566 135.277 72.3518 133.69C69.8566 132.113 66.9322 129.977 64.0277 127.162Z" fill="#B4171E"/>
<path d="M129.203 127.162C125.52 123.589 123.075 120.095 121.468 117.33C119.861 120.095 117.416 123.589 113.733 127.162C110.828 129.977 107.904 132.113 105.409 133.69C107.904 135.267 110.828 137.403 113.733 140.217C117.416 143.791 119.861 147.294 121.468 150.049C123.075 147.284 125.52 143.791 129.203 140.217C132.108 137.403 135.032 135.277 137.527 133.69C135.032 132.113 132.108 129.977 129.203 127.162Z" fill="#B4171E"/>
<path d="M64.0277 214.498C60.3348 210.925 57.8994 207.422 56.2925 204.667C54.6855 207.432 52.2402 210.925 48.5573 214.498C45.6528 217.313 42.7284 219.439 40.2332 221.016C42.7284 222.593 45.6528 224.729 48.5573 227.544C52.2402 231.117 54.6855 234.611 56.2925 237.375C57.8994 234.611 60.3447 231.117 64.0277 227.544C66.9322 224.729 69.8566 222.603 72.3518 221.016C69.8566 219.439 66.9322 217.303 64.0277 214.498Z" fill="#B4171E"/>
<path d="M129.203 214.498C125.52 210.925 123.075 207.422 121.468 204.667C119.861 207.432 117.416 210.925 113.733 214.498C110.828 217.313 107.904 219.439 105.409 221.016C107.904 222.593 110.828 224.729 113.733 227.544C117.416 231.117 119.861 234.611 121.468 237.375C123.075 234.611 125.52 231.117 129.203 227.544C132.108 224.729 135.032 222.603 137.527 221.016C135.032 219.439 132.108 217.303 129.203 214.498Z" fill="#B4171E"/>
</svg>
