<svg width="178" height="267" viewBox="0 0 178 267" fill="none" xmlns="http://www.w3.org/2000/svg">
<path d="M166.771 0H10.979C4.91548 0 0 4.91566 0 10.9794V255.661C0 261.725 4.91548 266.641 10.979 266.641H166.771C172.835 266.641 177.75 261.725 177.75 255.661V10.9794C177.75 4.91566 172.835 0 166.771 0Z" fill="white"/>
<path d="M22.747 49.2777C20.6709 47.2615 19.2935 45.2952 18.3951 43.7381C17.4868 45.2952 16.1194 47.2615 14.0433 49.2777C12.4064 50.8648 10.7594 52.0625 9.36206 52.9508C10.7694 53.8392 12.4163 55.0369 14.0433 56.624C16.1194 58.6402 17.4968 60.6065 18.3951 62.1636C19.3034 60.6065 20.6709 58.6402 22.747 56.624C24.3839 55.0369 26.0308 53.8392 27.4382 52.9508C26.0308 52.0625 24.3839 50.8648 22.747 49.2777Z" fill="#B4171E"/>
<path d="M155.004 217.363C157.08 219.379 158.458 221.346 159.356 222.903C160.264 221.346 161.632 219.379 163.708 217.363C165.345 215.776 166.992 214.578 168.389 213.69C166.982 212.802 165.335 211.604 163.708 210.017C161.632 208.01 160.254 206.034 159.356 204.477C158.448 206.034 157.08 208.001 155.004 210.017C153.367 211.604 151.72 212.802 150.313 213.69C151.72 214.578 153.367 215.786 155.004 217.363Z" fill="#B4171E"/>
<path d="M23.2461 27.8878C23.0864 28.9658 22.8069 29.7543 22.3877 30.2334C22.0383 30.6327 21.6591 30.8124 21.15 30.8124H15.1413C15.4607 30.4331 15.8599 29.9639 16.359 29.395C17.7863 27.788 19.8425 25.682 22.4576 23.1567C23.6753 22.0488 24.5736 20.851 25.1425 19.6133C25.7115 18.3557 26.0009 17.0781 26.0009 15.8204C26.0009 13.8641 25.3621 12.2072 24.0945 10.8897C22.8169 9.55217 20.8905 8.88342 18.3652 8.88342C16.5586 8.88342 14.8418 9.47232 13.2648 10.6302C11.5879 11.8678 10.7295 13.6545 10.7295 15.9602C10.7295 17.0082 10.999 17.8067 11.538 18.3357C11.9073 18.705 12.5761 19.1542 13.6441 19.1542C14.4126 19.1542 15.0215 18.9246 15.4706 18.4854C15.9198 18.0363 16.1394 17.4274 16.1394 16.6589C16.1394 16.04 15.9198 15.4511 15.4008 14.7624C15.2411 14.6027 15.1712 14.423 15.1712 14.1635C15.1712 13.5846 15.4008 13.1454 15.9198 12.7562C16.5087 12.307 17.2174 12.0874 18.0857 12.0874C19.2336 12.0874 20.0421 12.3869 20.5611 13.0057C21.13 13.6745 21.4095 14.7225 21.4095 16.1099C21.4095 17.128 21.0801 18.2559 20.4313 19.4736C19.7426 20.7612 18.6447 22.1685 17.1575 23.6558C15.3708 25.4424 13.9235 27.0095 12.8555 28.317C11.7376 29.6845 10.9491 30.7824 10.45 31.6707L10.3103 31.9203V35.1243H25.2922L26.4401 26.9396H23.3659L23.2261 27.8878H23.2461Z" fill="#B4171E"/>
<path d="M154.505 238.763C154.665 237.685 154.944 236.896 155.363 236.417C155.713 236.018 156.092 235.838 156.601 235.838H162.61C162.29 236.218 161.891 236.687 161.392 237.256C159.965 238.863 157.909 240.969 155.294 243.484C154.076 244.592 153.178 245.79 152.609 247.037C152.04 248.295 151.75 249.563 151.75 250.83C151.75 252.787 152.389 254.444 153.657 255.761C154.934 257.089 156.861 257.767 159.386 257.767C161.193 257.767 162.909 257.178 164.486 256.031C166.163 254.793 167.022 252.996 167.022 250.691C167.022 249.643 166.752 248.844 166.213 248.315C165.844 247.946 165.175 247.507 164.107 247.507C163.339 247.507 162.73 247.726 162.28 248.175C161.831 248.624 161.612 249.233 161.612 250.002C161.612 250.621 161.831 251.21 162.35 251.898C162.51 252.058 162.58 252.238 162.58 252.497C162.58 253.076 162.35 253.515 161.831 253.905C161.242 254.354 160.534 254.573 159.665 254.573C158.518 254.573 157.709 254.274 157.19 253.655C156.621 252.986 156.342 251.938 156.342 250.551C156.342 249.533 156.671 248.405 157.32 247.187C158.008 245.9 159.106 244.492 160.594 243.005C162.38 241.218 163.828 239.651 164.896 238.344C166.014 236.976 166.802 235.878 167.301 234.99L167.441 234.74V231.536H152.459L151.311 239.721H154.385L154.525 238.773L154.505 238.763Z" fill="#B4171E"/>
<path d="M96.6654 39.4661C92.9724 35.8928 90.5371 32.3894 88.9302 29.6345C87.3232 32.3993 84.8779 35.8928 81.1949 39.4661C78.2905 42.2808 75.3661 44.4069 72.8708 45.9939C75.3661 47.5709 78.2905 49.7069 81.1949 52.5217C84.8779 56.095 87.3232 59.5984 88.9302 62.3533C90.5371 59.5884 92.9824 56.095 96.6654 52.5217C99.5599 49.7069 102.484 47.5809 104.989 45.9939C102.494 44.4168 99.5698 42.2808 96.6654 39.4661Z" fill="#B4171E"/>
<path d="M96.6654 214.139C92.9724 210.566 90.5371 207.062 88.9302 204.307C87.3232 207.072 84.8779 210.566 81.1949 214.139C78.2905 216.954 75.3661 219.08 72.8708 220.657C75.3661 222.234 78.2905 224.37 81.1949 227.185C84.8779 230.758 87.3232 234.251 88.9302 237.016C90.5371 234.251 92.9824 230.758 96.6654 227.185C99.5599 224.37 102.484 222.244 104.989 220.657C102.494 219.08 99.5698 216.944 96.6654 214.139Z" fill="#B4171E"/>
</svg>
