<svg width="178" height="267" viewBox="0 0 178 267" fill="none" xmlns="http://www.w3.org/2000/svg">
<path d="M166.771 0.359314H10.979C4.91548 0.359314 0 5.27498 0 11.3388V256.021C0 262.084 4.91548 267 10.979 267H166.771C172.835 267 177.75 262.084 177.75 256.021V11.3388C177.75 5.27498 172.835 0.359314 166.771 0.359314Z" fill="white"/>
<path d="M22.7471 49.637C20.671 47.6208 19.2936 45.6545 18.3952 44.0974C17.4869 45.6545 16.1195 47.6208 14.0434 49.637C12.4065 51.2241 10.7595 52.4218 9.35217 53.3102C10.7595 54.1985 12.4065 55.3963 14.0434 56.9833C16.1195 58.9995 17.4969 60.9658 18.3952 62.5229C19.3035 60.9658 20.671 58.9995 22.7471 56.9833C24.384 55.3963 26.0309 54.1985 27.4283 53.3102C26.021 52.4218 24.374 51.2241 22.7471 49.637Z" fill="#B4171E"/>
<path d="M155.004 217.722C157.08 219.739 158.458 221.705 159.356 223.262C160.264 221.705 161.632 219.739 163.708 217.722C165.345 216.135 166.992 214.938 168.389 214.049C166.982 213.161 165.335 211.963 163.708 210.376C161.632 208.37 160.254 206.394 159.356 204.836C158.448 206.394 157.08 208.36 155.004 210.376C153.367 211.963 151.72 213.161 150.323 214.049C151.73 214.938 153.377 216.145 155.004 217.722Z" fill="#B4171E"/>
<path d="M23.3859 9.25266H20.2717L9.6416 26.141V28.267H18.9342V31.7405C18.9342 32.1697 18.8344 32.2795 18.8344 32.2795C18.8344 32.2795 18.6547 32.4293 17.956 32.4293H15.321V35.4835H26.6997V32.4293H24.3441C23.9548 32.4293 23.6454 32.3594 23.4857 32.2296C23.4258 32.1897 23.3759 32.02 23.3759 31.7306V28.2571H27.1189V25.2028H23.3759V9.24268L23.3859 9.25266ZM18.9442 25.2128H14.0134L18.9442 17.3675V25.2128Z" fill="#B4171E"/>
<path d="M154.365 258.117H157.479L168.11 241.228V239.102H158.807V235.629C158.807 235.2 158.907 235.09 158.907 235.09C158.907 235.09 159.086 234.94 159.785 234.94H162.42V231.886H151.042V234.94H153.397C153.786 234.94 154.086 235.01 154.256 235.13C154.305 235.17 154.365 235.339 154.365 235.629V239.102H150.622V242.157H154.365V258.117ZM158.807 242.157H163.738L158.807 250.002V242.157Z" fill="#B4171E"/>
<path d="M64.0277 39.8254C60.3447 36.2521 57.8994 32.7487 56.2925 29.9938C54.6855 32.7587 52.2402 36.2521 48.5573 39.8254C45.6528 42.6402 42.7284 44.7662 40.2332 46.3532C42.7284 47.9302 45.6528 50.0662 48.5573 52.881C52.2402 56.4543 54.6855 59.9577 56.2925 62.7126C57.8994 59.9477 60.3447 56.4543 64.0277 52.881C66.9322 50.0662 69.8566 47.9402 72.3518 46.3532C69.8566 44.7762 66.9322 42.6402 64.0277 39.8254Z" fill="#B4171E"/>
<path d="M129.203 39.8254C125.52 36.2521 123.075 32.7487 121.468 29.9938C119.861 32.7587 117.416 36.2521 113.733 39.8254C110.838 42.6402 107.914 44.7662 105.409 46.3532C107.904 47.9302 110.828 50.0662 113.733 52.881C117.426 56.4543 119.861 59.9577 121.468 62.7126C123.075 59.9477 125.52 56.4543 129.203 52.881C132.108 50.0662 135.032 47.9402 137.527 46.3532C135.032 44.7762 132.108 42.6402 129.203 39.8254Z" fill="#B4171E"/>
<path d="M64.0277 214.498C60.3447 210.925 57.8994 207.422 56.2925 204.667C54.6855 207.432 52.2402 210.925 48.5573 214.498C45.6528 217.313 42.7284 219.439 40.2332 221.016C42.7284 222.593 45.6528 224.729 48.5573 227.544C52.2402 231.117 54.6855 234.611 56.2925 237.375C57.8994 234.611 60.3447 231.117 64.0277 227.544C66.9322 224.729 69.8566 222.603 72.3518 221.016C69.8566 219.439 66.9322 217.303 64.0277 214.498Z" fill="#B4171E"/>
<path d="M129.203 214.498C125.52 210.925 123.075 207.422 121.468 204.667C119.861 207.432 117.416 210.925 113.733 214.498C110.838 217.313 107.914 219.439 105.409 221.016C107.904 222.593 110.828 224.729 113.733 227.544C117.426 231.117 119.861 234.611 121.468 237.375C123.075 234.611 125.52 231.117 129.203 227.544C132.108 224.729 135.032 222.603 137.527 221.016C135.032 219.439 132.108 217.303 129.203 214.498Z" fill="#B4171E"/>
</svg>
