<svg width="178" height="267" viewBox="0 0 178 267" fill="none" xmlns="http://www.w3.org/2000/svg">
<path d="M166.771 0H10.979C4.91548 0 0 4.91566 0 10.9794V255.661C0 261.725 4.91548 266.641 10.979 266.641H166.771C172.835 266.641 177.75 261.725 177.75 255.661V10.9794C177.75 4.91566 172.835 0 166.771 0Z" fill="white"/>
<path d="M22.747 49.2777C20.6709 47.2615 19.2935 45.2952 18.3951 43.7381C17.4868 45.2952 16.1194 47.2615 14.0433 49.2777C12.4064 50.8648 10.7594 52.0625 9.36206 52.9508C10.7694 53.8392 12.4163 55.0369 14.0433 56.624C16.1194 58.6402 17.4968 60.6065 18.3951 62.1636C19.3034 60.6065 20.6709 58.6402 22.747 56.624C24.3839 55.0369 26.0308 53.8392 27.4282 52.9508C26.0209 52.0625 24.374 50.8648 22.747 49.2777Z" fill="#B4171E"/>
<path d="M155.004 217.363C157.08 219.379 158.458 221.346 159.356 222.903C160.264 221.346 161.632 219.379 163.708 217.363C165.345 215.776 166.992 214.578 168.389 213.69C166.982 212.802 165.335 211.604 163.708 210.017C161.632 208.01 160.254 206.034 159.356 204.477C158.448 206.034 157.08 208.001 155.004 210.017C153.367 211.604 151.72 212.802 150.323 213.69C151.73 214.578 153.377 215.786 155.004 217.363Z" fill="#B4171E"/>
<path d="M19.1538 17.3575C18.1157 17.3575 17.0976 17.5172 16.1095 17.8266C15.7402 17.9464 15.3809 18.1161 15.0215 18.3457L15.3309 13.1953H25.1925L26.0509 8.89337H12.2667L11.4582 23.6158L12.4763 23.7256C12.7458 23.7555 13.0053 23.7855 13.2648 23.8154L14.5025 23.9552L14.8518 23.2964C15.5206 22.0587 16.0895 21.5896 16.4489 21.4C17.0377 21.1105 17.7564 20.9608 18.5948 20.9608C19.6029 20.9608 20.2717 21.3301 20.7608 22.1585C21.3497 23.1367 21.6491 24.4642 21.6491 26.1011C21.6491 28.0874 21.3097 29.6146 20.651 30.6327C20.0721 31.521 19.2835 31.9302 18.1756 31.9302C17.2973 31.9302 16.5087 31.7805 15.7601 31.4611C15.1213 31.1916 15.1213 30.9521 15.1213 30.8223C15.1213 30.6726 15.2311 30.4929 15.2112 30.4929C15.7003 30.0038 15.9498 29.3151 15.9498 28.4567C15.9498 27.9976 15.82 27.5185 15.5505 26.9795C15.3309 26.5503 14.762 25.8117 13.4545 25.8117C12.5561 25.8117 11.7976 26.181 11.2586 26.8597C10.7795 27.4786 10.5399 28.1972 10.5399 29.0057C10.5399 30.7524 11.3384 32.2496 12.9254 33.4274C14.4127 34.5453 16.1294 35.1043 18.0359 35.1043C20.7907 35.1043 22.8768 34.216 24.2542 32.4592C25.5618 30.7924 26.2206 28.5466 26.2206 25.8117C26.2206 23.3363 25.5718 21.3001 24.2942 19.763C22.9666 18.166 21.2299 17.3475 19.1338 17.3475L19.1538 17.3575Z" fill="#B4171E"/>
<path d="M158.597 249.293C159.635 249.293 160.653 249.133 161.642 248.824C162.011 248.704 162.37 248.535 162.73 248.305L162.42 253.455H152.559L151.7 257.757H165.484L166.293 243.035L165.275 242.925C165.005 242.895 164.746 242.865 164.486 242.835L163.249 242.696L162.899 243.354C162.231 244.592 161.662 245.071 161.302 245.251C160.713 245.54 159.995 245.69 159.156 245.69C158.148 245.69 157.479 245.321 156.99 244.492C156.401 243.514 156.112 242.186 156.112 240.55C156.112 238.563 156.451 237.036 157.11 236.018C157.689 235.13 158.478 234.72 159.585 234.72C160.464 234.72 161.252 234.87 162.001 235.19C162.64 235.459 162.64 235.699 162.64 235.828C162.64 235.978 162.53 236.158 162.55 236.158C162.061 236.647 161.811 237.336 161.811 238.194C161.811 238.653 161.941 239.132 162.211 239.671C162.43 240.1 162.999 240.839 164.307 240.839C165.205 240.839 165.964 240.48 166.503 239.791C166.982 239.182 167.221 238.453 167.221 237.645C167.221 235.898 166.423 234.401 164.836 233.223C163.348 232.105 161.632 231.546 159.725 231.546C156.97 231.546 154.884 232.435 153.507 234.191C152.199 235.858 151.541 238.104 151.541 240.839C151.541 243.314 152.189 245.351 153.467 246.888C154.794 248.495 156.531 249.303 158.627 249.303L158.597 249.293Z" fill="#B4171E"/>
<path d="M64.0277 39.4661C60.3447 35.8928 57.8994 32.3894 56.2925 29.6345C54.6855 32.3993 52.2402 35.8928 48.5573 39.4661C45.6528 42.2808 42.7284 44.4069 40.2332 45.9939C42.7284 47.5709 45.6528 49.7069 48.5573 52.5217C52.2402 56.095 54.6855 59.5984 56.2925 62.3533C57.8994 59.5884 60.3447 56.095 64.0277 52.5217C66.9322 49.7069 69.8566 47.5809 72.3518 45.9939C69.8566 44.4168 66.9322 42.2808 64.0277 39.4661Z" fill="#B4171E"/>
<path d="M129.203 39.4661C125.52 35.8928 123.075 32.3894 121.468 29.6345C119.861 32.3993 117.416 35.8928 113.733 39.4661C110.828 42.2808 107.904 44.4069 105.409 45.9939C107.904 47.5709 110.828 49.7069 113.733 52.5217C117.416 56.095 119.861 59.5984 121.468 62.3533C123.075 59.5884 125.52 56.095 129.203 52.5217C132.108 49.7069 135.032 47.5809 137.527 45.9939C135.032 44.4168 132.108 42.2808 129.203 39.4661Z" fill="#B4171E"/>
<path d="M96.6154 126.803C92.9324 123.229 90.4871 119.736 88.8801 116.971C87.2732 119.736 84.8279 123.229 81.1449 126.803C78.2405 129.617 75.316 131.753 72.8208 133.33C75.316 134.907 78.2405 137.043 81.1449 139.858C84.8279 143.431 87.2732 146.935 88.8801 149.69C90.4871 146.925 92.9324 143.431 96.6154 139.858C99.5198 137.043 102.444 134.917 104.939 133.33C102.444 131.753 99.5198 129.617 96.6154 126.803Z" fill="#B4171E"/>
<path d="M64.0277 214.139C60.3447 210.566 57.8994 207.062 56.2925 204.307C54.6855 207.072 52.2402 210.566 48.5573 214.139C45.6528 216.954 42.7284 219.08 40.2332 220.657C42.7284 222.234 45.6528 224.37 48.5573 227.185C52.2402 230.758 54.6855 234.251 56.2925 237.016C57.8994 234.251 60.3447 230.758 64.0277 227.185C66.9322 224.37 69.8566 222.244 72.3518 220.657C69.8566 219.08 66.9322 216.944 64.0277 214.139Z" fill="#B4171E"/>
<path d="M129.203 214.139C125.52 210.566 123.075 207.062 121.468 204.307C119.861 207.072 117.416 210.566 113.733 214.139C110.828 216.954 107.904 219.08 105.409 220.657C107.904 222.234 110.828 224.37 113.733 227.185C117.416 230.758 119.861 234.251 121.468 237.016C123.075 234.251 125.52 230.758 129.203 227.185C132.108 224.37 135.032 222.244 137.527 220.657C135.032 219.08 132.108 216.944 129.203 214.139Z" fill="#B4171E"/>
</svg>
