<svg width="178" height="267" viewBox="0 0 178 267" fill="none" xmlns="http://www.w3.org/2000/svg">
<path d="M166.771 0H10.979C4.91548 0 0 4.91566 0 10.9794V255.661C0 261.725 4.91548 266.641 10.979 266.641H166.771C172.835 266.641 177.75 261.725 177.75 255.661V10.9794C177.75 4.91566 172.835 0 166.771 0Z" fill="white"/>
<path d="M22.7471 49.2777C20.671 47.2615 19.2936 45.2952 18.3952 43.7381C17.4869 45.2952 16.1095 47.2615 14.0334 49.2777C12.3965 50.8648 10.7496 52.0625 9.35217 52.9508C10.7595 53.8392 12.4065 55.0369 14.0334 56.624C16.1095 58.6402 17.4869 60.6065 18.3952 62.1636C19.3035 60.6065 20.671 58.6402 22.7471 56.624C24.384 55.0369 26.021 53.8392 27.4283 52.9508C26.021 52.0625 24.374 50.8648 22.7471 49.2777Z" fill="#B4171E"/>
<path d="M155.004 217.363C157.08 219.379 158.458 221.346 159.356 222.903C160.264 221.346 161.632 219.379 163.708 217.363C165.345 215.776 166.992 214.578 168.389 213.69C166.982 212.802 165.335 211.604 163.708 210.017C161.632 208.01 160.254 206.034 159.356 204.477C158.448 206.034 157.08 208.001 155.004 210.017C153.367 211.604 151.72 212.802 150.323 213.69C151.73 214.578 153.377 215.786 155.004 217.363Z" fill="#B4171E"/>
<path d="M22.4575 21.1005C23.0864 20.6713 23.6054 20.1722 24.0146 19.6033C24.8431 18.4455 25.2623 17.0381 25.2623 15.4211C25.2623 13.8041 24.6035 12.3469 23.286 10.9794C21.9585 9.60201 20.2018 8.90332 18.0458 8.90332C16.2392 8.90332 14.6222 9.42235 13.2248 10.4305C11.7276 11.5284 10.969 12.9757 10.969 14.7224C10.969 15.8004 11.2585 16.5989 11.8374 17.088C12.3564 17.5372 12.9653 17.7767 13.6041 17.7767C14.6621 17.7767 15.2211 17.2876 15.5006 16.8684C15.81 16.4093 15.9697 15.8303 15.9697 15.1416C15.9697 14.5727 15.7601 14.0637 15.4806 13.8241C15.4806 13.8241 15.4107 13.6444 15.4107 13.0655C15.4107 12.8459 15.4407 12.6663 15.8599 12.4866C17.8062 11.6282 19.1637 12.1273 19.8524 13.0855C20.4114 13.874 20.6908 14.7723 20.6908 15.8403C20.6908 17.1179 20.3615 18.0662 19.7027 18.7349C19.0439 19.4037 17.926 19.733 16.3889 19.733H15.281V22.9271H16.3889C18.4151 22.9271 19.8325 23.3263 20.4713 24.0749C21.1799 24.8934 21.5193 25.9714 21.5193 27.3687C21.5193 29.1255 21.1899 30.3931 20.5411 31.1517C19.9223 31.8703 18.9741 32.2197 17.6366 32.2197C16.9878 32.2197 16.4089 32.0799 15.8699 31.8004C15.6503 31.6807 15.4207 31.511 15.4207 31.3912C15.4207 31.3613 15.4207 31.2215 15.5105 31.0319C15.82 30.5727 15.9797 29.9938 15.9797 29.3051C15.9797 28.836 15.82 28.317 15.4906 27.7281C14.752 26.3906 12.7856 25.9614 11.3982 27.5284C10.8393 28.1473 10.5598 28.8959 10.5598 29.7243C10.5598 31.2814 11.3084 32.6588 12.7956 33.7967C14.193 34.8747 15.8699 35.4137 17.7763 35.4137C20.3914 35.4137 22.4775 34.6252 23.9847 33.0681C25.4819 31.521 26.2405 29.6944 26.2405 27.6482C26.2405 26.2409 25.8113 24.8335 24.9628 23.4561C24.4139 22.5578 23.5754 21.7792 22.4575 21.1204V21.1005Z" fill="#B4171E"/>
<path d="M155.294 245.89C154.665 246.319 154.146 246.818 153.736 247.387C152.908 248.545 152.489 249.952 152.489 251.569C152.489 253.186 153.148 254.643 154.465 256.011C155.793 257.388 157.549 258.087 159.705 258.087C161.512 258.087 163.129 257.568 164.526 256.55C166.023 255.452 166.782 254.004 166.782 252.258C166.782 251.18 166.483 250.381 165.904 249.892C165.385 249.443 164.776 249.203 164.137 249.203C163.079 249.203 162.52 249.692 162.241 250.112C161.931 250.571 161.781 251.15 161.781 251.838C161.781 252.407 161.991 252.916 162.271 253.156C162.271 253.156 162.34 253.336 162.34 253.915C162.34 254.134 162.31 254.314 161.891 254.493C159.945 255.352 158.587 254.853 157.899 253.895C157.34 253.106 157.06 252.208 157.06 251.14C157.06 249.862 157.39 248.914 158.058 248.245C158.727 247.576 159.825 247.247 161.362 247.247H162.47V244.053H161.362C159.336 244.053 157.919 243.654 157.28 242.915C156.571 242.097 156.232 241.019 156.232 239.621C156.232 237.865 156.561 236.597 157.21 235.838C157.829 235.12 158.777 234.77 160.115 234.77C160.763 234.77 161.342 234.91 161.881 235.2C162.101 235.319 162.33 235.489 162.33 235.609C162.33 235.629 162.33 235.779 162.241 235.968C161.931 236.427 161.781 237.006 161.781 237.695C161.781 238.164 161.941 238.683 162.271 239.272C163.019 240.609 164.975 241.039 166.363 239.472C166.912 238.853 167.201 238.114 167.201 237.276C167.201 235.719 166.453 234.341 164.965 233.203C163.568 232.125 161.891 231.586 159.985 231.586C157.37 231.586 155.284 232.375 153.776 233.942C152.279 235.489 151.521 237.316 151.521 239.362C151.521 240.769 151.95 242.177 152.798 243.554C153.347 244.452 154.186 245.231 155.304 245.89H155.294Z" fill="#B4171E"/>
<path d="M96.6654 39.4661C92.9824 35.8928 90.5371 32.3894 88.9302 29.6345C87.3232 32.3993 84.8779 35.8928 81.1949 39.4661C78.3005 42.2808 75.3661 44.4069 72.8708 45.9939C75.3661 47.5709 78.2905 49.7069 81.1949 52.5217C84.8879 56.095 87.3232 59.5984 88.9302 62.3533C90.5371 59.5884 92.9824 56.095 96.6654 52.5217C99.5698 49.7069 102.494 47.5809 104.989 45.9939C102.494 44.4168 99.5698 42.2808 96.6654 39.4661Z" fill="#B4171E"/>
<path d="M96.6654 126.803C92.9824 123.229 90.5371 119.736 88.9302 116.971C87.3232 119.736 84.8779 123.229 81.1949 126.803C78.3005 129.617 75.3661 131.753 72.8708 133.33C75.3661 134.907 78.2905 137.043 81.1949 139.858C84.8879 143.431 87.3232 146.935 88.9302 149.69C90.5371 146.925 92.9824 143.431 96.6654 139.858C99.5698 137.043 102.494 134.917 104.989 133.33C102.494 131.753 99.5698 129.617 96.6654 126.803Z" fill="#B4171E"/>
<path d="M96.6654 214.139C92.9824 210.566 90.5371 207.062 88.9302 204.307C87.3232 207.072 84.8779 210.566 81.1949 214.139C78.3005 216.954 75.3661 219.08 72.8708 220.657C75.3661 222.234 78.2905 224.37 81.1949 227.185C84.8879 230.758 87.3232 234.251 88.9302 237.016C90.5371 234.251 92.9824 230.758 96.6654 227.185C99.5698 224.37 102.494 222.244 104.989 220.657C102.494 219.08 99.5698 216.944 96.6654 214.139Z" fill="#B4171E"/>
</svg>
