<svg width="178" height="267" viewBox="0 0 178 267" fill="none" xmlns="http://www.w3.org/2000/svg">
<path d="M166.771 0H10.979C4.91548 0 0 4.91566 0 10.9794V255.661C0 261.725 4.91548 266.641 10.979 266.641H166.771C172.835 266.641 177.75 261.725 177.75 255.661V10.9794C177.75 4.91566 172.835 0 166.771 0Z" fill="white"/>
<path d="M22.747 49.2777C20.6709 47.2615 19.2935 45.2952 18.3951 43.7381C17.4868 45.2952 16.1094 47.2615 14.0433 49.2777C12.4064 50.8648 10.7594 52.0625 9.36206 52.9508C10.7694 53.8392 12.4163 55.0369 14.0433 56.624C16.1194 58.6402 17.4968 60.6065 18.3951 62.1636C19.3034 60.6065 20.6709 58.6402 22.747 56.624C24.3839 55.0369 26.0308 53.8392 27.4282 52.9508C26.0209 52.0625 24.374 50.8648 22.747 49.2777Z" fill="#B4171E"/>
<path d="M155.004 217.363C157.08 219.379 158.458 221.346 159.356 222.903C160.264 221.346 161.632 219.379 163.708 217.363C165.345 215.776 166.992 214.578 168.389 213.69C166.982 212.802 165.335 211.604 163.708 210.017C161.632 208.01 160.254 206.034 159.356 204.477C158.448 206.034 157.08 208.001 155.004 210.017C153.367 211.604 151.72 212.802 150.323 213.69C151.73 214.578 153.377 215.786 155.004 217.363Z" fill="#B4171E"/>
<path d="M22.9765 21.4399C23.8449 20.841 24.5436 20.1822 25.0526 19.4536C25.8811 18.2958 26.3003 17.0281 26.3003 15.6906C26.3003 13.8042 25.5717 12.1772 24.1443 10.8497C22.737 9.55214 20.8904 8.89337 18.6746 8.89337C16.2691 8.89337 14.3327 9.55214 12.9253 10.8497C11.488 12.1772 10.7594 13.8042 10.7594 15.6906C10.7594 17.128 11.1786 18.4355 12.0071 19.5933C12.4862 20.2621 13.095 20.8709 13.8137 21.4099C12.9154 22.0887 12.1668 22.8373 11.5878 23.6557C10.6696 24.9533 10.2004 26.5204 10.2004 28.317C10.2004 30.2234 11.0289 31.9003 12.6658 33.3176C14.2529 34.6951 16.1792 35.3937 18.3851 35.3937C20.7906 35.3937 22.7669 34.6851 24.2741 33.2977C25.8012 31.8803 26.5698 30.1136 26.5698 28.0375C26.5698 26.5303 26.1306 25.103 25.2722 23.8154C24.7033 22.977 23.9347 22.1785 22.9665 21.4399H22.9765ZM15.79 13.0556C16.309 12.4068 17.2772 12.0874 18.6746 12.0874C19.8923 12.0874 20.7407 12.4168 21.2597 13.1055C21.8586 13.884 22.1381 14.7823 22.1381 15.8304C22.1381 16.7287 21.9285 17.4773 21.4893 18.1261C21.11 18.685 20.561 19.1841 19.8424 19.6033C18.2653 18.9645 17.0177 18.2359 16.1493 17.4374C15.3308 16.6888 14.9116 15.9601 14.9116 15.2714C14.9116 14.5029 15.1911 13.7742 15.78 13.0556H15.79ZM21.3695 31.2116C20.8106 31.8703 19.8124 32.2097 18.3951 32.2097C17.1973 32.2097 16.2491 31.8604 15.4806 31.1217C14.732 30.4131 14.3726 29.4948 14.3726 28.317C14.3726 27.1392 14.6222 26.191 15.1412 25.2328C15.5704 24.4442 16.1393 23.7755 16.868 23.1966C18.6646 23.9951 20.032 24.8535 20.9403 25.7618C21.8386 26.6601 22.2778 27.5385 22.2778 28.4468C22.2778 29.5746 21.9784 30.473 21.3595 31.2016L21.3695 31.2116Z" fill="#B4171E"/>
<path d="M154.774 245.211C153.906 245.81 153.207 246.468 152.698 247.197C151.87 248.355 151.451 249.623 151.451 250.96C151.451 252.847 152.179 254.473 153.617 255.801C155.024 257.099 156.861 257.757 159.086 257.757C161.492 257.757 163.428 257.099 164.836 255.801C166.273 254.483 167.002 252.847 167.002 250.96C167.002 249.523 166.582 248.215 165.754 247.057C165.275 246.389 164.666 245.78 163.947 245.241C164.856 244.562 165.594 243.813 166.173 242.995C167.091 241.697 167.561 240.13 167.561 238.334C167.561 236.427 166.732 234.75 165.095 233.333C163.508 231.956 161.582 231.257 159.376 231.257C156.97 231.257 154.984 231.966 153.487 233.353C151.96 234.77 151.191 236.537 151.191 238.603C151.191 240.11 151.63 241.538 152.489 242.825C153.048 243.664 153.826 244.462 154.794 245.201L154.774 245.211ZM161.961 253.595C161.442 254.244 160.474 254.563 159.076 254.563C157.859 254.563 157.01 254.234 156.491 253.545C155.892 252.767 155.603 251.868 155.603 250.82C155.603 249.922 155.813 249.173 156.252 248.525C156.631 247.966 157.18 247.467 157.899 247.047C159.476 247.686 160.723 248.415 161.592 249.213C162.41 249.962 162.829 250.691 162.829 251.379C162.829 252.148 162.55 252.876 161.961 253.595ZM156.391 235.439C156.95 234.78 157.949 234.441 159.366 234.441C160.564 234.441 161.512 234.79 162.28 235.519C163.029 236.228 163.388 237.146 163.388 238.324C163.388 239.502 163.139 240.45 162.62 241.398C162.191 242.186 161.622 242.855 160.893 243.434C159.096 242.636 157.729 241.777 156.821 240.869C155.922 239.971 155.483 239.092 155.483 238.184C155.483 237.056 155.783 236.158 156.401 235.429L156.391 235.439Z" fill="#B4171E"/>
<path d="M64.0277 39.4661C60.3447 35.8928 57.8994 32.3894 56.2925 29.6345C54.6855 32.3993 52.2402 35.8928 48.5573 39.4661C45.6528 42.2808 42.7284 44.4069 40.2332 45.9939C42.7284 47.5709 45.6528 49.7069 48.5573 52.5217C52.2402 56.095 54.6855 59.5984 56.2925 62.3533C57.8994 59.5884 60.3447 56.095 64.0277 52.5217C66.9322 49.7069 69.8566 47.5809 72.3518 45.9939C69.8566 44.4168 66.9322 42.2808 64.0277 39.4661Z" fill="#B4171E"/>
<path d="M96.6154 82.0763C92.9324 78.503 90.4871 75.0096 88.8801 72.2448C87.2732 75.0096 84.8279 78.503 81.1449 82.0763C78.2405 84.8911 75.316 87.0171 72.8208 88.6041C75.316 90.1812 78.2405 92.3172 81.1449 95.1219C84.8279 98.6952 87.2732 102.199 88.8801 104.954C90.4871 102.189 92.9324 98.6952 96.6154 95.1219C99.5198 92.3172 102.444 90.1812 104.939 88.6041C102.444 87.0271 99.5198 84.8911 96.6154 82.0763Z" fill="#B4171E"/>
<path d="M81.1449 184.574C84.8279 188.148 87.2732 191.651 88.8801 194.406C90.4871 191.641 92.9324 188.148 96.6154 184.574C99.5198 181.76 102.444 179.634 104.939 178.057C102.444 176.48 99.5198 174.344 96.6154 171.529C92.9324 167.955 90.4871 164.452 88.8801 161.697C87.2732 164.462 84.8279 167.955 81.1449 171.529C78.2405 174.344 75.316 176.47 72.8208 178.057C75.316 179.634 78.2405 181.77 81.1449 184.574Z" fill="#B4171E"/>
<path d="M129.203 39.4661C125.51 35.8928 123.075 32.3894 121.468 29.6345C119.861 32.3993 117.416 35.8928 113.733 39.4661C110.838 42.2808 107.904 44.4069 105.409 45.9939C107.904 47.5709 110.828 49.7069 113.733 52.5217C117.426 56.095 119.861 59.5984 121.468 62.3533C123.075 59.5884 125.52 56.095 129.203 52.5217C132.108 49.7069 135.032 47.5809 137.527 45.9939C135.032 44.4168 132.108 42.2808 129.203 39.4661Z" fill="#B4171E"/>
<path d="M64.0277 124.716C60.3447 121.143 57.8994 117.65 56.2925 114.885C54.6855 117.65 52.2402 121.143 48.5573 124.716C45.6528 127.531 42.7284 129.657 40.2332 131.234C42.7284 132.811 45.6528 134.947 48.5573 137.762C52.2402 141.335 54.6855 144.829 56.2925 147.594C57.8994 144.829 60.3447 141.335 64.0277 137.762C66.9322 134.947 69.8566 132.821 72.3518 131.234C69.8566 129.657 66.9322 127.521 64.0277 124.716Z" fill="#B4171E"/>
<path d="M129.203 124.716C125.51 121.143 123.075 117.65 121.468 114.885C119.861 117.65 117.416 121.143 113.733 124.716C110.838 127.531 107.904 129.657 105.409 131.234C107.904 132.811 110.828 134.947 113.733 137.762C117.426 141.335 119.861 144.829 121.468 147.594C123.075 144.829 125.52 141.335 129.203 137.762C132.108 134.947 135.032 132.821 137.527 131.234C135.032 129.657 132.108 127.521 129.203 124.716Z" fill="#B4171E"/>
<path d="M64.0277 214.139C60.3447 210.566 57.8994 207.062 56.2925 204.307C54.6855 207.072 52.2402 210.566 48.5573 214.139C45.6528 216.954 42.7284 219.08 40.2332 220.657C42.7284 222.234 45.6528 224.37 48.5573 227.185C52.2402 230.758 54.6855 234.251 56.2925 237.016C57.8994 234.251 60.3447 230.758 64.0277 227.185C66.9322 224.37 69.8566 222.244 72.3518 220.657C69.8566 219.08 66.9322 216.944 64.0277 214.139Z" fill="#B4171E"/>
<path d="M129.203 214.139C125.51 210.566 123.075 207.062 121.468 204.307C119.861 207.072 117.416 210.566 113.733 214.139C110.838 216.954 107.904 219.08 105.409 220.657C107.904 222.234 110.828 224.37 113.733 227.185C117.426 230.758 119.861 234.251 121.468 237.016C123.075 234.251 125.52 230.758 129.203 227.185C132.108 224.37 135.032 222.244 137.527 220.657C135.032 219.08 132.108 216.944 129.203 214.139Z" fill="#B4171E"/>
</svg>
