<svg width="178" height="267" viewBox="0 0 178 267" fill="none" xmlns="http://www.w3.org/2000/svg">
<path d="M167.006 0H10.9944C4.92238 0 0 4.92229 0 10.9942V256.006C0 262.078 4.92238 267 10.9944 267H167.006C173.078 267 178 262.078 178 256.006V10.9942C178 4.92229 173.078 0 167.006 0Z" fill="white"/>
<path d="M26.1462 33.2326C26.1462 33.2326 25.9663 33.0727 25.8264 32.6529L20.2593 9.52502L16.4513 10.7944L10.8642 32.7329C10.7943 33.1326 10.6943 33.2426 10.6943 33.2426L8.90527 33.3325V36.3909H16.2714V33.3325H14.7422C14.6523 33.3325 14.5923 33.3325 14.5423 33.3325C14.4823 33.1426 14.4624 32.9527 14.4624 32.7728C14.4624 32.553 14.5023 32.2531 14.5723 31.9133L15.6218 27.4856H20.1094L21.3288 32.8328C21.3687 32.9527 21.3887 33.0927 21.3887 33.3225H19.7496V36.3809H27.9453V33.3225H26.8359L26.1562 33.2326H26.1462ZM16.4413 24.4372L17.9705 18.3704L19.4298 24.4372H16.4313H16.4413Z" fill="#B4171E"/>
<path d="M22.7781 49.3441C20.6992 47.3252 19.3199 45.3562 18.4204 43.7971C17.5109 45.3562 16.1416 47.3252 14.0627 49.3441C12.4235 50.9333 10.7744 52.1327 9.37512 53.0222C10.7844 53.9118 12.4335 55.1111 14.0627 56.7003C16.1416 58.7192 17.5209 60.6882 18.4204 62.2474C19.3299 60.6882 20.6992 58.7192 22.7781 56.7003C24.4172 55.1111 26.0664 53.9118 27.4756 53.0222C26.0664 52.1327 24.4172 50.9333 22.7781 49.3441Z" fill="#B4171E"/>
<path d="M151.853 233.767C151.853 233.767 152.033 233.927 152.173 234.347L157.74 257.475L161.548 256.206L167.135 234.267C167.205 233.867 167.305 233.757 167.305 233.757L169.094 233.667V230.609H161.728V233.667H163.257C163.347 233.667 163.407 233.667 163.457 233.667C163.507 233.857 163.537 234.047 163.537 234.227C163.537 234.447 163.497 234.747 163.427 235.087L162.378 239.514H157.89L156.671 234.167C156.631 234.047 156.611 233.907 156.611 233.677H158.25V230.619H150.054V233.677H151.164L151.843 233.767H151.853ZM161.558 242.573L160.019 248.64L158.56 242.573H161.558Z" fill="#B4171E"/>
<path d="M155.221 217.656C157.3 219.675 158.68 221.644 159.579 223.203C160.489 221.644 161.858 219.675 163.937 217.656C165.576 216.067 167.225 214.867 168.624 213.978C167.215 213.088 165.566 211.889 163.937 210.3C161.858 208.291 160.479 206.312 159.579 204.753C158.67 206.312 157.3 208.281 155.221 210.3C153.582 211.889 151.933 213.088 150.534 213.978C151.943 214.867 153.592 216.077 155.221 217.656Z" fill="#B4171E"/>
<path d="M103.298 121.446C96.4812 114.85 91.9735 108.383 89.005 103.286C86.0365 108.383 81.5188 114.85 74.7122 121.446C69.3549 126.644 63.9476 130.582 59.34 133.5C63.9576 136.418 69.3549 140.356 74.7122 145.554C81.5188 152.15 86.0365 158.617 89.005 163.714C91.9735 158.617 96.4912 152.15 103.298 145.554C108.655 140.366 114.052 136.418 118.67 133.5C114.052 130.582 108.655 126.644 103.298 121.446Z" fill="#B4171E"/>
</svg>
