<svg width="178" height="267" viewBox="0 0 178 267" fill="none" xmlns="http://www.w3.org/2000/svg">
<path d="M166.771 0.359314H10.979C4.91548 0.359314 0 5.27498 0 11.3388V256.021C0 262.084 4.91548 267 10.979 267H166.771C172.835 267 177.75 262.084 177.75 256.021V11.3388C177.75 5.27498 172.835 0.359314 166.771 0.359314Z" fill="white"/>
<path d="M22.747 49.637C20.6709 47.6208 19.2935 45.6545 18.3951 44.0974C17.4868 45.6545 16.1194 47.6208 14.0433 49.637C12.4064 51.2241 10.7594 52.4218 9.36206 53.3102C10.7694 54.1985 12.4163 55.3963 14.0433 56.9833C16.1194 58.9995 17.4968 60.9658 18.3951 62.5229C19.3034 60.9658 20.6709 58.9995 22.747 56.9833C24.3839 55.3963 26.0308 54.1985 27.4282 53.3102C26.0209 52.4218 24.374 51.2241 22.747 49.637Z" fill="#B4171E"/>
<path d="M155.004 217.722C157.08 219.739 158.458 221.705 159.356 223.262C160.264 221.705 161.632 219.739 163.708 217.722C165.345 216.135 166.992 214.938 168.389 214.049C166.982 213.161 165.335 211.963 163.708 210.376C161.632 208.37 160.254 206.394 159.356 204.836C158.448 206.394 157.08 208.36 155.004 210.376C153.367 211.963 151.72 213.161 150.323 214.049C151.73 214.938 153.377 216.145 155.004 217.722Z" fill="#B4171E"/>
<path d="M18.1855 9.25269C15.6203 9.25269 13.6041 10.141 12.1868 11.8878C10.8193 13.5646 10.1306 15.6707 10.1306 18.1361C10.1306 21.0107 10.7994 23.1566 12.1069 24.5241C13.4244 25.9015 15.1911 26.6002 17.3471 26.6002C18.984 26.6002 20.3714 26.151 21.4893 25.2627C21.1999 27.5185 20.7407 29.2353 20.1219 30.3632C19.0339 32.3395 17.8661 32.559 17.0676 32.559C16.858 32.559 16.6784 32.5391 16.5686 32.4892C16.5586 32.4592 16.5087 32.3195 16.5087 32.0001C16.5087 31.2914 16.3789 30.6526 16.1294 30.0937C15.9198 29.6146 15.3508 28.8161 14.0034 28.8161C12.7457 28.8161 12.1369 29.4948 11.8873 29.894C11.548 30.443 11.3683 31.0119 11.3683 31.5909C11.3683 32.8984 12.0071 33.9963 13.2049 34.7549C14.2629 35.4237 15.5105 35.763 16.9179 35.763C20.0121 35.763 22.4475 34.2958 24.1843 31.4112C25.8113 28.7063 26.6297 25.2627 26.6297 21.2003C26.6297 17.4673 25.9111 14.5528 24.4837 12.5166C22.9766 10.3606 20.8505 9.27265 18.1656 9.27265L18.1855 9.25269ZM20.5012 21.6095C19.0439 23.4661 16.9578 23.7156 15.6702 21.9789C15.0314 21.1205 14.712 19.773 14.712 17.9863C14.712 16.1997 15.0314 14.8322 15.6702 13.7642C16.2092 12.8559 17.0077 12.4367 18.1855 12.4367C19.4432 12.4367 20.2816 12.8959 20.8206 13.874C21.4594 15.0418 21.7888 16.6588 21.7888 18.675C21.7888 19.5235 21.3596 20.5116 20.5012 21.5996V21.6095Z" fill="#B4171E"/>
<path d="M159.566 258.117C162.131 258.117 164.147 257.228 165.564 255.482C166.932 253.805 167.62 251.699 167.62 249.233C167.62 246.359 166.952 244.213 165.644 242.845C164.327 241.468 162.56 240.769 160.404 240.769C158.767 240.769 157.38 241.218 156.262 242.107C156.551 239.851 157.01 238.134 157.629 237.006C158.717 235.04 159.885 234.81 160.683 234.81C160.893 234.81 161.073 234.83 161.182 234.88C161.192 234.91 161.242 235.05 161.242 235.369C161.242 236.078 161.372 236.717 161.622 237.276C161.831 237.755 162.4 238.553 163.748 238.553C165.005 238.553 165.614 237.875 165.864 237.475C166.203 236.926 166.383 236.357 166.383 235.778C166.383 234.471 165.744 233.373 164.546 232.614C163.488 231.946 162.241 231.606 160.833 231.606C157.739 231.606 155.304 233.074 153.567 235.958C151.94 238.663 151.121 242.107 151.121 246.169C151.121 249.902 151.84 252.817 153.267 254.853C154.774 257.009 156.901 258.097 159.585 258.097L159.566 258.117ZM157.25 245.76C158.707 243.903 160.793 243.644 162.081 245.38C162.72 246.239 163.039 247.586 163.039 249.373C163.039 251.16 162.72 252.527 162.081 253.595C161.542 254.503 160.743 254.923 159.566 254.923C158.308 254.923 157.469 254.463 156.93 253.485C156.292 252.317 155.962 250.701 155.962 248.674C155.962 247.826 156.391 246.838 157.25 245.75V245.76Z" fill="#B4171E"/>
<path d="M64.0277 39.8254C60.3447 36.2521 57.8994 32.7487 56.2925 29.9938C54.6855 32.7587 52.2402 36.2521 48.5573 39.8254C45.6528 42.6402 42.7284 44.7662 40.2332 46.3532C42.7284 47.9302 45.6528 50.0662 48.5573 52.881C52.2402 56.4543 54.6855 59.9577 56.2925 62.7126C57.8994 59.9477 60.3447 56.4543 64.0277 52.881C66.9322 50.0662 69.8566 47.9402 72.3518 46.3532C69.8566 44.7762 66.9322 42.6402 64.0277 39.8254Z" fill="#B4171E"/>
<path d="M129.203 39.8254C125.52 36.2521 123.075 32.7487 121.468 29.9938C119.861 32.7587 117.416 36.2521 113.733 39.8254C110.828 42.6402 107.904 44.7662 105.409 46.3532C107.904 47.9302 110.828 50.0662 113.733 52.881C117.416 56.4543 119.861 59.9577 121.468 62.7126C123.075 59.9477 125.52 56.4543 129.203 52.881C132.108 50.0662 135.032 47.9402 137.527 46.3532C135.032 44.7762 132.108 42.6402 129.203 39.8254Z" fill="#B4171E"/>
<path d="M64.0277 98.805C60.3447 95.2317 57.8994 91.7282 56.2925 88.9734C54.6855 91.7382 52.2402 95.2317 48.5573 98.805C45.6528 101.62 42.7284 103.746 40.2332 105.333C42.7284 106.91 45.6528 109.046 48.5573 111.861C52.2402 115.434 54.6855 118.927 56.2925 121.692C57.8994 118.927 60.3447 115.434 64.0277 111.861C66.9322 109.046 69.8566 106.92 72.3518 105.333C69.8566 103.756 66.9322 101.62 64.0277 98.805Z" fill="#B4171E"/>
<path d="M129.203 98.805C125.52 95.2317 123.075 91.7282 121.468 88.9734C119.861 91.7382 117.416 95.2317 113.733 98.805C110.828 101.62 107.904 103.746 105.409 105.333C107.904 106.91 110.828 109.046 113.733 111.861C117.416 115.434 119.861 118.927 121.468 121.692C123.075 118.927 125.52 115.434 129.203 111.861C132.108 109.046 135.032 106.92 137.527 105.333C135.032 103.756 132.108 101.62 129.203 98.805Z" fill="#B4171E"/>
<path d="M96.6154 127.162C92.9324 123.589 90.4871 120.095 88.8801 117.33C87.2732 120.095 84.8279 123.589 81.1449 127.162C78.2405 129.977 75.316 132.113 72.8208 133.69C75.316 135.267 78.2405 137.403 81.1449 140.217C84.8279 143.791 87.2732 147.294 88.8801 150.049C90.4871 147.284 92.9324 143.791 96.6154 140.217C99.5198 137.403 102.444 135.277 104.939 133.69C102.444 132.113 99.5198 129.977 96.6154 127.162Z" fill="#B4171E"/>
<path d="M64.0277 157.785C60.3447 154.211 57.8994 150.708 56.2925 147.953C54.6855 150.718 52.2402 154.211 48.5573 157.785C45.6528 160.599 42.7284 162.725 40.2332 164.312C42.7284 165.889 45.6528 168.025 48.5573 170.84C52.2402 174.413 54.6855 177.917 56.2925 180.672C57.8994 177.907 60.3447 174.413 64.0277 170.84C66.9322 168.025 69.8566 165.899 72.3518 164.312C69.8566 162.735 66.9322 160.599 64.0277 157.785Z" fill="#B4171E"/>
<path d="M129.203 157.785C125.52 154.211 123.075 150.708 121.468 147.953C119.861 150.718 117.416 154.211 113.733 157.785C110.828 160.599 107.904 162.725 105.409 164.312C107.904 165.889 110.828 168.025 113.733 170.84C117.416 174.413 119.861 177.917 121.468 180.672C123.075 177.907 125.52 174.413 129.203 170.84C132.108 168.025 135.032 165.899 137.527 164.312C135.032 162.735 132.108 160.599 129.203 157.785Z" fill="#B4171E"/>
<path d="M64.0277 214.498C60.3447 210.925 57.8994 207.422 56.2925 204.667C54.6855 207.432 52.2402 210.925 48.5573 214.498C45.6528 217.313 42.7284 219.439 40.2332 221.016C42.7284 222.593 45.6528 224.729 48.5573 227.544C52.2402 231.117 54.6855 234.611 56.2925 237.375C57.8994 234.611 60.3447 231.117 64.0277 227.544C66.9322 224.729 69.8566 222.603 72.3518 221.016C69.8566 219.439 66.9322 217.303 64.0277 214.498Z" fill="#B4171E"/>
<path d="M129.203 214.498C125.52 210.925 123.075 207.422 121.468 204.667C119.861 207.432 117.416 210.925 113.733 214.498C110.828 217.313 107.904 219.439 105.409 221.016C107.904 222.593 110.828 224.729 113.733 227.544C117.416 231.117 119.861 234.611 121.468 237.375C123.075 234.611 125.52 231.117 129.203 227.544C132.108 224.729 135.032 222.603 137.527 221.016C135.032 219.439 132.108 217.303 129.203 214.498Z" fill="#B4171E"/>
</svg>
