<svg width="178" height="267" viewBox="0 0 178 267" fill="none" xmlns="http://www.w3.org/2000/svg">
<path d="M166.771 0H10.979C4.91548 0 0 4.91566 0 10.9794V255.661C0 261.725 4.91548 266.641 10.979 266.641H166.771C172.835 266.641 177.75 261.725 177.75 255.661V10.9794C177.75 4.91566 172.835 0 166.771 0Z" fill="white"/>
<path d="M22.747 49.2777C20.6709 47.2615 19.2935 45.2952 18.3951 43.7381C17.4868 45.2952 16.1194 47.2615 14.0433 49.2777C12.4064 50.8648 10.7594 52.0625 9.36206 52.9508C10.7694 53.8392 12.4163 55.0369 14.0433 56.624C16.1194 58.6402 17.4968 60.6065 18.3951 62.1636C19.3034 60.6065 20.6709 58.6402 22.747 56.624C24.3839 55.0369 26.0308 53.8392 27.4282 52.9508C26.0209 52.0625 24.374 50.8648 22.747 49.2777Z" fill="#B4171E"/>
<path d="M155.004 217.363C157.08 219.379 158.458 221.346 159.356 222.903C160.264 221.346 161.632 219.379 163.708 217.363C165.345 215.776 166.992 214.578 168.389 213.69C166.982 212.802 165.335 211.604 163.708 210.017C161.632 208.01 160.254 206.034 159.356 204.477C158.448 206.034 157.08 208.001 155.004 210.017C153.367 211.604 151.72 212.802 150.323 213.69C151.73 214.578 153.377 215.786 155.004 217.363Z" fill="#B4171E"/>
<path d="M10.4699 16.7387L13.4444 17.2377L13.664 16.1997C13.8935 15.1117 14.2529 14.3032 14.712 13.8042C15.1013 13.385 15.6203 13.1853 16.329 13.1853H21.3895C18.435 18.6351 16.6284 22.4879 15.8898 24.9333C15.0713 27.6183 14.6621 29.924 14.6621 31.7805C14.6621 32.9284 14.9316 33.7568 15.4706 34.2958C15.9996 34.8248 16.6783 35.1043 17.4369 35.1043C18.3352 35.1043 19.0139 34.8248 19.4731 34.2858C19.8823 33.7868 20.072 33.0781 20.072 32.05V29.395C19.9821 28.8161 19.9322 28.3569 19.9322 28.0275C19.9322 25.9514 20.4912 23.4461 21.5891 20.5815C22.717 17.647 24.2541 14.6027 26.1406 11.5384L26.3103 11.2689V8.87341H11.7675L10.46 16.7187L10.4699 16.7387Z" fill="#B4171E"/>
<path d="M167.281 249.902L164.307 249.403L164.087 250.441C163.857 251.539 163.498 252.337 163.039 252.837C162.65 253.256 162.131 253.455 161.422 253.455H156.361C159.316 248.006 161.123 244.153 161.861 241.707C162.68 239.022 163.089 236.727 163.089 234.86C163.089 233.712 162.819 232.884 162.28 232.345C161.751 231.816 161.073 231.536 160.314 231.536C159.416 231.536 158.737 231.816 158.278 232.355C157.869 232.854 157.679 233.563 157.679 234.591V237.246C157.769 237.825 157.819 238.284 157.819 238.613C157.819 240.689 157.26 243.195 156.162 246.059C155.034 248.994 153.497 252.038 151.61 255.102L151.441 255.372V257.767H165.983L167.291 249.922L167.281 249.902Z" fill="#B4171E"/>
<path d="M64.0277 39.4661C60.3447 35.8928 57.8994 32.3894 56.2925 29.6345C54.6855 32.3993 52.2402 35.8928 48.5573 39.4661C45.6528 42.2808 42.7284 44.4069 40.2332 45.9939C42.7284 47.5709 45.6528 49.7069 48.5573 52.5217C52.2402 56.095 54.6855 59.5984 56.2925 62.3533C57.8994 59.5884 60.3447 56.095 64.0277 52.5217C66.9322 49.7069 69.8566 47.5809 72.3518 45.9939C69.8566 44.4168 66.9322 42.2808 64.0277 39.4661Z" fill="#B4171E"/>
<path d="M129.203 39.4661C125.52 35.8928 123.075 32.3894 121.468 29.6345C119.861 32.3993 117.416 35.8928 113.733 39.4661C110.828 42.2808 107.904 44.4069 105.409 45.9939C107.904 47.5709 110.828 49.7069 113.733 52.5217C117.416 56.095 119.861 59.5984 121.468 62.3533C123.075 59.5884 125.52 56.095 129.203 52.5217C132.108 49.7069 135.032 47.5809 137.527 45.9939C135.032 44.4168 132.108 42.2808 129.203 39.4661Z" fill="#B4171E"/>
<path d="M64.0277 126.803C60.3447 123.229 57.8994 119.736 56.2925 116.971C54.6855 119.736 52.2402 123.229 48.5573 126.803C45.6528 129.617 42.7284 131.753 40.2332 133.33C42.7284 134.907 45.6528 137.043 48.5573 139.858C52.2402 143.431 54.6855 146.935 56.2925 149.69C57.8994 146.925 60.3447 143.431 64.0277 139.858C66.9322 137.043 69.8566 134.917 72.3518 133.33C69.8566 131.753 66.9322 129.617 64.0277 126.803Z" fill="#B4171E"/>
<path d="M129.203 126.803C125.52 123.229 123.075 119.736 121.468 116.971C119.861 119.736 117.416 123.229 113.733 126.803C110.828 129.617 107.904 131.753 105.409 133.33C107.904 134.907 110.828 137.043 113.733 139.858C117.416 143.431 119.861 146.935 121.468 149.69C123.075 146.925 125.52 143.431 129.203 139.858C132.108 137.043 135.032 134.917 137.527 133.33C135.032 131.753 132.108 129.617 129.203 126.803Z" fill="#B4171E"/>
<path d="M96.6154 82.0863C92.9224 78.513 90.4871 75.0095 88.8801 72.2547C87.2732 75.0195 84.8279 78.513 81.1449 82.0863C78.2504 84.901 75.316 87.027 72.8208 88.6141C75.316 90.1911 78.2405 92.3271 81.1449 95.1319C84.8379 98.7052 87.2732 102.209 88.8801 104.963C90.4871 102.199 92.9324 98.7052 96.6154 95.1319C99.5198 92.3271 102.444 90.1911 104.939 88.6141C102.444 87.037 99.5198 84.901 96.6154 82.0863Z" fill="#B4171E"/>
<path d="M64.0277 214.139C60.3447 210.566 57.8994 207.062 56.2925 204.307C54.6855 207.072 52.2402 210.566 48.5573 214.139C45.6528 216.954 42.7284 219.08 40.2332 220.657C42.7284 222.234 45.6528 224.37 48.5573 227.185C52.2402 230.758 54.6855 234.251 56.2925 237.016C57.8994 234.251 60.3447 230.758 64.0277 227.185C66.9322 224.37 69.8566 222.244 72.3518 220.657C69.8566 219.08 66.9322 216.944 64.0277 214.139Z" fill="#B4171E"/>
<path d="M129.203 214.139C125.52 210.566 123.075 207.062 121.468 204.307C119.861 207.072 117.416 210.566 113.733 214.139C110.828 216.954 107.904 219.08 105.409 220.657C107.904 222.234 110.828 224.37 113.733 227.185C117.416 230.758 119.861 234.251 121.468 237.016C123.075 234.251 125.52 230.758 129.203 227.185C132.108 224.37 135.032 222.244 137.527 220.657C135.032 219.08 132.108 216.944 129.203 214.139Z" fill="#B4171E"/>
</svg>
