<svg width="178" height="267" viewBox="0 0 178 267" fill="none" xmlns="http://www.w3.org/2000/svg">
<path d="M166.771 0.359314H10.979C4.91548 0.359314 0 5.27498 0 11.3388V256.021C0 262.084 4.91548 267 10.979 267H166.771C172.835 267 177.75 262.084 177.75 256.021V11.3388C177.75 5.27498 172.835 0.359314 166.771 0.359314Z" fill="white"/>
<path d="M22.747 49.637C20.6709 47.6208 19.2935 45.6545 18.3951 44.0974C17.4868 45.6545 16.1194 47.6208 14.0433 49.637C12.4064 51.2241 10.7594 52.4218 9.36206 53.3102C10.7694 54.1985 12.4163 55.3963 14.0433 56.9833C16.1194 58.9995 17.4968 60.9658 18.3951 62.5229C19.3034 60.9658 20.6709 58.9995 22.747 56.9833C24.3839 55.3963 26.0308 54.1985 27.4282 53.3102C26.0209 52.4218 24.374 51.2241 22.747 49.637Z" fill="#B4171E"/>
<path d="M155.004 217.722C157.08 219.739 158.458 221.705 159.356 223.262C160.264 221.705 161.632 219.739 163.708 217.722C165.345 216.135 166.992 214.938 168.389 214.049C166.982 213.161 165.335 211.963 163.708 210.376C161.632 208.37 160.254 206.394 159.356 204.836C158.448 206.394 157.08 208.36 155.004 210.376C153.367 211.963 151.72 213.161 150.323 214.049C151.73 214.938 153.377 216.145 155.004 217.722Z" fill="#B4171E"/>
<path d="M13.0157 32.2496C12.9459 32.1897 12.7662 32.03 12.7662 31.4511V9.25269H10.6003L10.3208 9.87153C10.0712 10.4105 9.73188 10.7898 9.28273 11.0493C8.79364 11.3288 8.11491 11.4785 7.2665 11.4785H5.09058V14.5328H8.41435C8.604 14.5328 8.66388 14.5727 8.67387 14.6725V31.4611C8.67387 31.8703 8.59402 32.1498 8.4443 32.2995C8.35446 32.3794 8.07499 32.569 7.2665 32.569H5.09058V35.6233H16.4693V32.569H14.1636C13.6346 32.569 13.2553 32.4592 13.0058 32.2596L13.0157 32.2496Z" fill="#B4171E"/>
<path d="M24.1441 9.3924C21.8085 9.3924 19.9021 10.69 18.4747 13.2552C17.1472 15.6407 16.4685 18.7748 16.4685 22.5677C16.4685 26.6501 17.1672 29.894 18.5546 32.1897C20.0219 34.6451 21.9083 35.8828 24.1441 35.8828C26.3799 35.8828 28.2564 34.6052 29.6838 32.0899C31.0113 29.7443 31.69 26.5403 31.69 22.5577C31.69 18.5752 31.0113 15.3912 29.6838 13.0855C28.2564 10.6201 26.3899 9.37244 24.1441 9.37244V9.3924ZM26.2103 30.3432C25.3818 32.559 24.4536 32.559 24.1541 32.559C23.4055 32.559 22.7068 31.8004 22.078 30.2933C21.3294 28.5066 20.9501 25.9115 20.9501 22.5677C20.9501 19.4037 21.3294 16.8684 22.078 15.0318C22.7068 13.4947 23.4055 12.7062 24.1441 12.7062C24.7131 12.7062 25.5615 12.9457 26.2502 14.972C26.889 16.8285 27.2084 19.3837 27.2084 22.5677C27.2084 25.9214 26.869 28.5365 26.2003 30.3432H26.2103Z" fill="#B4171E"/>
<path d="M164.736 235.12C164.805 235.18 164.985 235.339 164.985 235.918V258.117H167.151L167.43 257.498C167.68 256.969 168.019 256.579 168.469 256.32C168.958 256.04 169.636 255.891 170.485 255.891H172.661V252.837H169.337C169.147 252.837 169.087 252.797 169.077 252.697V235.908C169.077 235.499 169.157 235.219 169.307 235.07C169.397 234.99 169.676 234.79 170.485 234.79H172.661V231.736H161.282V234.79H163.588C164.117 234.79 164.496 234.9 164.736 235.1V235.12Z" fill="#B4171E"/>
<path d="M153.607 257.977C155.943 257.977 157.849 256.679 159.276 254.104C160.604 251.719 161.283 248.585 161.283 244.792C161.283 240.709 160.584 237.465 159.196 235.17C157.719 232.714 155.843 231.477 153.607 231.477C151.371 231.477 149.495 232.754 148.067 235.269C146.74 237.615 146.061 240.819 146.061 244.802C146.061 248.784 146.74 251.978 148.077 254.274C149.505 256.739 151.371 257.987 153.607 257.987V257.977ZM151.551 237.026C152.379 234.81 153.307 234.81 153.607 234.81C154.356 234.81 155.054 235.569 155.683 237.076C156.432 238.863 156.811 241.458 156.811 244.802C156.811 247.966 156.432 250.501 155.683 252.337C155.054 253.875 154.356 254.663 153.617 254.663C153.048 254.663 152.2 254.434 151.511 252.407C150.872 250.551 150.553 247.996 150.553 244.812C150.553 241.458 150.892 238.843 151.561 237.036L151.551 237.026Z" fill="#B4171E"/>
<path d="M64.0277 39.8254C60.3348 36.2521 57.8994 32.7487 56.2925 29.9938C54.6855 32.7587 52.2402 36.2521 48.5573 39.8254C45.6528 42.6402 42.7284 44.7662 40.2332 46.3532C42.7284 47.9302 45.6528 50.0662 48.5573 52.881C52.2402 56.4543 54.6855 59.9577 56.2925 62.7126C57.8994 59.9477 60.3447 56.4543 64.0277 52.881C66.9222 50.0662 69.8466 47.9402 72.3518 46.3532C69.8566 44.7762 66.9322 42.6402 64.0277 39.8254Z" fill="#B4171E"/>
<path d="M129.203 39.8254C125.52 36.2521 123.075 32.7487 121.468 29.9938C119.861 32.7587 117.416 36.2521 113.733 39.8254C110.828 42.6402 107.904 44.7662 105.409 46.3532C107.904 47.9302 110.828 50.0662 113.733 52.881C117.416 56.4543 119.861 59.9577 121.468 62.7126C123.075 59.9477 125.52 56.4543 129.203 52.881C132.108 50.0662 135.032 47.9402 137.527 46.3532C135.032 44.7762 132.108 42.6402 129.203 39.8254Z" fill="#B4171E"/>
<path d="M64.0277 98.805C60.3348 95.2317 57.8994 91.7282 56.2925 88.9734C54.6855 91.7382 52.2402 95.2317 48.5573 98.805C45.6528 101.62 42.7284 103.746 40.2332 105.333C42.7284 106.91 45.6528 109.046 48.5573 111.861C52.2402 115.434 54.6855 118.927 56.2925 121.692C57.8994 118.927 60.3447 115.434 64.0277 111.861C66.9222 109.046 69.8466 106.92 72.3518 105.333C69.8566 103.756 66.9322 101.62 64.0277 98.805Z" fill="#B4171E"/>
<path d="M129.203 98.805C125.52 95.2317 123.075 91.7282 121.468 88.9734C119.861 91.7382 117.416 95.2317 113.733 98.805C110.828 101.62 107.904 103.746 105.409 105.333C107.904 106.91 110.828 109.046 113.733 111.861C117.416 115.434 119.861 118.927 121.468 121.692C123.075 118.927 125.52 115.434 129.203 111.861C132.108 109.046 135.032 106.92 137.527 105.333C135.032 103.756 132.108 101.62 129.203 98.805Z" fill="#B4171E"/>
<path d="M96.6154 70.8074C92.9324 67.2341 90.4871 63.7307 88.8801 60.9758C87.2732 63.7407 84.8279 67.2341 81.1449 70.8074C78.2405 73.6222 75.316 75.7482 72.8208 77.3352C75.316 78.9122 78.2405 81.0482 81.1449 83.853C84.8279 87.4263 87.2732 90.9297 88.8801 93.6846C90.4871 90.9198 92.9324 87.4263 96.6154 83.853C99.5198 81.0383 102.444 78.9122 104.939 77.3352C102.444 75.7582 99.5198 73.6222 96.6154 70.8074Z" fill="#B4171E"/>
<path d="M64.0277 157.785C60.3348 154.211 57.8994 150.708 56.2925 147.953C54.6855 150.718 52.2402 154.211 48.5573 157.785C45.6528 160.599 42.7284 162.725 40.2332 164.312C42.7284 165.889 45.6528 168.025 48.5573 170.84C52.2402 174.413 54.6855 177.917 56.2925 180.672C57.8994 177.907 60.3447 174.413 64.0277 170.84C66.9222 168.025 69.8466 165.899 72.3518 164.312C69.8566 162.735 66.9322 160.599 64.0277 157.785Z" fill="#B4171E"/>
<path d="M129.203 157.785C125.52 154.211 123.075 150.708 121.468 147.953C119.861 150.718 117.416 154.211 113.733 157.785C110.828 160.599 107.904 162.725 105.409 164.312C107.904 165.889 110.828 168.025 113.733 170.84C117.416 174.413 119.861 177.917 121.468 180.672C123.075 177.907 125.52 174.413 129.203 170.84C132.108 168.025 135.032 165.899 137.527 164.312C135.032 162.735 132.108 160.599 129.203 157.785Z" fill="#B4171E"/>
<path d="M64.0277 214.498C60.3348 210.925 57.8994 207.422 56.2925 204.667C54.6855 207.432 52.2402 210.925 48.5573 214.498C45.6528 217.313 42.7284 219.439 40.2332 221.016C42.7284 222.593 45.6528 224.729 48.5573 227.544C52.2402 231.117 54.6855 234.611 56.2925 237.375C57.8994 234.611 60.3447 231.117 64.0277 227.544C66.9222 224.729 69.8466 222.603 72.3518 221.016C69.8566 219.439 66.9322 217.303 64.0277 214.498Z" fill="#B4171E"/>
<path d="M96.6154 183.516C92.9324 179.943 90.4871 176.45 88.8801 173.685C87.2732 176.45 84.8279 179.943 81.1449 183.516C78.2405 186.331 75.316 188.457 72.8208 190.044C75.316 191.621 78.2405 193.757 81.1449 196.562C84.8279 200.135 87.2732 203.639 88.8801 206.394C90.4871 203.629 92.9324 200.135 96.6154 196.562C99.5198 193.757 102.444 191.621 104.939 190.044C102.444 188.467 99.5198 186.331 96.6154 183.516Z" fill="#B4171E"/>
<path d="M129.203 214.498C125.52 210.925 123.075 207.422 121.468 204.667C119.861 207.432 117.416 210.925 113.733 214.498C110.828 217.313 107.904 219.439 105.409 221.016C107.904 222.593 110.828 224.729 113.733 227.544C117.416 231.117 119.861 234.611 121.468 237.375C123.075 234.611 125.52 231.117 129.203 227.544C132.108 224.729 135.032 222.603 137.527 221.016C135.032 219.439 132.108 217.303 129.203 214.498Z" fill="#B4171E"/>
</svg>
