<svg width="178" height="267" viewBox="0 0 178 267" fill="none" xmlns="http://www.w3.org/2000/svg">
<path d="M166.771 0.359325H10.979C4.91548 0.359325 0 5.27499 0 11.3388V256.021C0 262.084 4.91548 267 10.979 267H166.771C172.835 267 177.75 262.084 177.75 256.021V11.3388C177.75 5.27499 172.835 0.359325 166.771 0.359325Z" fill="white"/>
<path d="M19.1538 17.7168C18.1157 17.7168 17.0976 17.8765 16.1095 18.1859C15.7402 18.3057 15.3809 18.4754 15.0215 18.705L15.3309 13.5546H25.1925L26.0509 9.25267H12.2667L11.4582 23.9751L12.4763 24.0849C12.7458 24.1148 13.0053 24.1448 13.2648 24.1747L14.5025 24.3145L14.8518 23.6557C15.5206 22.418 16.0895 21.9489 16.4489 21.7593C17.0377 21.4698 17.7564 21.3201 18.5948 21.3201C19.6029 21.3201 20.2717 21.6894 20.7608 22.5178C21.3497 23.496 21.6491 24.8235 21.6491 26.4604C21.6491 28.4467 21.3097 29.9739 20.651 30.992C20.0721 31.8803 19.2835 32.2895 18.1756 32.2895C17.2973 32.2895 16.5087 32.1398 15.7601 31.8204C15.1213 31.5509 15.1213 31.3114 15.1213 31.1816C15.1213 31.0319 15.2311 30.8522 15.2112 30.8522C15.7003 30.3631 15.9498 29.6744 15.9498 28.816C15.9498 28.3569 15.82 27.8778 15.5505 27.3388C15.3309 26.9096 14.762 26.171 13.4545 26.171C12.5561 26.171 11.7976 26.5403 11.2586 27.219C10.7795 27.8379 10.5399 28.5565 10.5399 29.365C10.5399 31.1117 11.3384 32.6089 12.9254 33.7867C14.4127 34.9046 16.1294 35.4636 18.0359 35.4636C20.7907 35.4636 22.8768 34.5753 24.2542 32.8185C25.5618 31.1517 26.2206 28.9059 26.2206 26.171C26.2206 23.6956 25.5718 21.6594 24.2942 20.1223C22.9666 18.5253 21.2299 17.7068 19.1338 17.7068L19.1538 17.7168Z" fill="#B4171E"/>
<path d="M158.597 249.652C159.635 249.652 160.653 249.493 161.642 249.183C162.011 249.064 162.37 248.894 162.73 248.664L162.42 253.815H152.559L151.7 258.117H165.484L166.293 243.394L165.275 243.284C165.005 243.254 164.746 243.225 164.486 243.195L163.249 243.055L162.899 243.714C162.231 244.951 161.662 245.42 161.302 245.61C160.713 245.9 159.995 246.049 159.156 246.049C158.148 246.049 157.479 245.68 156.99 244.851C156.401 243.873 156.112 242.546 156.112 240.909C156.112 238.923 156.451 237.395 157.11 236.377C157.689 235.489 158.478 235.08 159.585 235.08C160.464 235.08 161.252 235.229 162.001 235.549C162.64 235.818 162.64 236.058 162.64 236.188C162.64 236.337 162.53 236.517 162.55 236.517C162.061 237.006 161.811 237.695 161.811 238.553C161.811 239.012 161.941 239.491 162.211 240.03C162.43 240.46 162.999 241.198 164.307 241.198C165.205 241.198 165.964 240.839 166.503 240.15C166.982 239.541 167.221 238.813 167.221 238.004C167.221 236.258 166.423 234.76 164.836 233.583C163.348 232.465 161.632 231.906 159.725 231.906C156.97 231.906 154.884 232.794 153.507 234.551C152.199 236.218 151.541 238.463 151.541 241.198C151.541 243.674 152.189 245.71 153.467 247.247C154.794 248.854 156.531 249.662 158.627 249.662L158.597 249.652Z" fill="#B4171E"/>
<path d="M10.3902 52.9009C9.31226 51.8229 8.71338 50.3757 8.71338 48.8485C8.71338 47.3214 9.31226 45.8741 10.3902 44.7961C11.4682 43.7181 12.9055 43.1192 14.4427 43.1192C15.9798 43.1192 17.3173 43.6782 18.3952 44.6963C19.4633 43.6782 20.8606 43.1192 22.3478 43.1192C23.8351 43.1192 25.3123 43.7181 26.4003 44.7961C27.4882 45.8741 28.0771 47.3114 28.0771 48.8485C28.0771 50.3856 27.4782 51.813 26.4003 52.9009L18.4052 60.9059L10.4002 52.9009H10.3902Z" fill="#B4171E"/>
<path d="M56.2926 57.3127L69.2478 44.3569C72.5315 41.0731 72.5315 35.7431 69.2478 32.4592C65.9641 29.1754 60.6343 29.1754 57.3505 32.4592L56.2926 33.5172L55.2346 32.4592C51.9509 29.1754 46.621 29.1754 43.3373 32.4592C40.0536 35.7431 40.0536 41.0731 43.3373 44.3569L56.2926 57.3127Z" fill="#B4171E"/>
<path d="M88.8802 147.344L101.835 134.388C105.119 131.104 105.119 125.774 101.835 122.491C98.5517 119.207 93.2219 119.207 89.9382 122.491L88.8802 123.549L87.8222 122.491C84.5385 119.207 79.2087 119.207 75.925 122.491C72.6412 125.774 72.6412 131.104 75.925 134.388L88.8802 147.344Z" fill="#B4171E"/>
<path d="M163.309 224.25C161.821 224.25 160.424 223.691 159.356 222.673C158.288 223.691 156.891 224.25 155.403 224.25C153.916 224.25 152.439 223.651 151.351 222.573C150.263 221.495 149.674 220.058 149.674 218.521C149.674 216.984 150.273 215.556 151.351 214.468L159.356 206.473L167.361 214.468C168.439 215.546 169.038 216.984 169.038 218.521C169.038 220.058 168.439 221.485 167.361 222.573C166.273 223.651 164.846 224.25 163.309 224.25Z" fill="#B4171E"/>
<path d="M56.2926 210.057L43.3373 223.012C40.0536 226.296 40.0536 231.626 43.3373 234.91C46.621 238.194 51.9509 238.194 55.2346 234.91L56.2926 233.852L57.3505 234.91C60.6343 238.194 65.9641 238.194 69.2478 234.91C72.5315 231.626 72.5315 226.296 69.2478 223.012L56.2926 210.057Z" fill="#B4171E"/>
<path d="M121.468 57.3127L134.423 44.3569C137.707 41.0731 137.707 35.7431 134.423 32.4592C131.14 29.1754 125.81 29.1754 122.526 32.4592L121.468 33.5172L120.41 32.4592C117.126 29.1754 111.797 29.1754 108.513 32.4592C105.229 35.7431 105.229 41.0731 108.513 44.3569L121.468 57.3127Z" fill="#B4171E"/>
<path d="M121.468 210.057L108.513 223.012C105.229 226.296 105.229 231.626 108.513 234.91C111.797 238.194 117.126 238.194 120.41 234.91L121.468 233.852L122.526 234.91C125.81 238.194 131.14 238.194 134.423 234.91C137.707 231.626 137.707 226.296 134.423 223.012L121.468 210.057Z" fill="#B4171E"/>
</svg>
