<svg width="178" height="267" viewBox="0 0 178 267" fill="none" xmlns="http://www.w3.org/2000/svg">
<path d="M167.006 0H10.9944C4.92238 0 0 4.92229 0 10.9942V256.006C0 262.078 4.92238 267 10.9944 267H167.006C173.078 267 178 262.078 178 256.006V10.9942C178 4.92229 173.078 0 167.006 0Z" fill="white"/>
<path d="M26.1462 33.2326C26.1462 33.2326 25.9663 33.0727 25.8264 32.6529L20.2593 9.52501L16.4513 10.7943L10.8642 32.7328C10.7943 33.1326 10.6943 33.2426 10.6943 33.2426L8.90527 33.3325V36.3909H16.2714V33.3325H14.7422C14.6523 33.3325 14.5923 33.3325 14.5423 33.3325C14.4823 33.1426 14.4624 32.9527 14.4624 32.7728C14.4624 32.5529 14.5023 32.2531 14.5723 31.9133L15.6218 27.4856H20.1094L21.3288 32.8328C21.3687 32.9527 21.3887 33.0926 21.3887 33.3225H19.7496V36.3809H27.9453V33.3225H26.8359L26.1562 33.2326H26.1462ZM16.4413 24.4372L17.9705 18.3704L19.4298 24.4372H16.4313H16.4413Z" fill="#B4171E"/>
<path d="M151.853 233.767C151.853 233.767 152.033 233.927 152.173 234.347L157.74 257.475L161.548 256.206L167.135 234.267C167.205 233.867 167.305 233.757 167.305 233.757L169.094 233.667V230.609H161.728V233.667H163.257C163.347 233.667 163.407 233.667 163.457 233.667C163.507 233.857 163.537 234.047 163.537 234.227C163.537 234.447 163.497 234.747 163.427 235.087L162.378 239.514H157.89L156.671 234.167C156.631 234.047 156.611 233.907 156.611 233.677H158.25V230.619H150.054V233.677H151.164L151.843 233.767H151.853ZM161.558 242.573L160.019 248.64L158.56 242.573H161.558Z" fill="#B4171E"/>
<path d="M10.0747 52.6024C8.99532 51.523 8.39563 50.0737 8.39563 48.5445C8.39563 47.0153 8.99532 45.5661 10.0747 44.4867C11.1542 43.4072 12.5934 42.8076 14.1326 42.8076C15.6718 42.8076 17.0211 43.3673 18.0905 44.3867C19.16 43.3673 20.5593 42.8076 22.0485 42.8076C23.5377 42.8076 25.0169 43.4072 26.1063 44.4867C28.3452 46.7255 28.3452 50.3636 26.1063 52.6024L18.0905 60.6182L10.0747 52.6024Z" fill="#B4171E"/>
<path d="M163.207 224.192C161.718 224.192 160.319 223.633 159.249 222.613C158.18 223.633 156.781 224.192 155.291 224.192C153.802 224.192 152.323 223.593 151.234 222.513C148.995 220.274 148.995 216.636 151.234 214.398L159.249 206.392L167.265 214.398C168.345 215.477 168.944 216.916 168.944 218.455C168.944 219.995 168.345 221.424 167.265 222.513C166.186 223.603 164.746 224.192 163.207 224.192Z" fill="#B4171E"/>
<path d="M89.005 159.776L113.932 134.849C120.249 128.533 120.249 118.288 113.932 111.961C107.616 105.645 97.3607 105.645 91.0439 111.961L89.005 114L86.966 111.961C80.6492 105.645 70.4044 105.645 64.0776 111.961C57.7608 118.278 57.7608 128.523 64.0776 134.849L89.005 159.776Z" fill="#B4171E"/>
</svg>
