<svg width="178" height="267" viewBox="0 0 178 267" fill="none" xmlns="http://www.w3.org/2000/svg">
<path d="M166.771 0.359325H10.979C4.91548 0.359325 0 5.27499 0 11.3388V256.021C0 262.084 4.91548 267 10.979 267H166.771C172.835 267 177.75 262.084 177.75 256.021V11.3388C177.75 5.27499 172.835 0.359325 166.771 0.359325Z" fill="white"/>
<path d="M13.0157 32.2496C12.9459 32.1897 12.7662 32.03 12.7662 31.4511V9.25267H10.6003L10.3208 9.87152C10.0712 10.4105 9.73188 10.7898 9.28273 11.0493C8.79364 11.3288 8.11491 11.4785 7.2665 11.4785H5.09058V14.5328H8.41435C8.604 14.5328 8.66388 14.5727 8.67387 14.6725V31.4611C8.67387 31.8703 8.59402 32.1498 8.4443 32.2995C8.35446 32.3794 8.07499 32.569 7.2665 32.569H5.09058V35.6233H16.4693V32.569H14.1636C13.6346 32.569 13.2553 32.4592 13.0058 32.2596L13.0157 32.2496Z" fill="#B4171E"/>
<path d="M24.1441 9.39241C21.8085 9.39241 19.9021 10.69 18.4747 13.2552C17.1472 15.6407 16.4685 18.7748 16.4685 22.5677C16.4685 26.6501 17.1672 29.894 18.5546 32.1897C20.0219 34.6451 21.9083 35.8828 24.1441 35.8828C26.3799 35.8828 28.2564 34.6052 29.6838 32.0899C31.0113 29.7443 31.69 26.5403 31.69 22.5578C31.69 18.5752 31.0113 15.3912 29.6838 13.0855C28.2564 10.6201 26.3899 9.37245 24.1441 9.37245V9.39241ZM26.2103 30.3432C25.3818 32.559 24.4536 32.559 24.1541 32.559C23.4055 32.559 22.7068 31.8004 22.078 30.2933C21.3294 28.5066 20.9501 25.9115 20.9501 22.5677C20.9501 19.4037 21.3294 16.8684 22.078 15.0318C22.7068 13.4947 23.4055 12.7062 24.1441 12.7062C24.7131 12.7062 25.5615 12.9458 26.2502 14.972C26.889 16.8285 27.2084 19.3837 27.2084 22.5677C27.2084 25.9215 26.869 28.5366 26.2003 30.3432H26.2103Z" fill="#B4171E"/>
<path d="M164.736 235.12C164.805 235.18 164.985 235.339 164.985 235.918V258.117H167.151L167.43 257.498C167.68 256.969 168.019 256.579 168.469 256.32C168.958 256.04 169.636 255.891 170.485 255.891H172.661V252.837H169.337C169.147 252.837 169.087 252.797 169.077 252.697V235.908C169.077 235.499 169.157 235.219 169.307 235.07C169.397 234.99 169.676 234.79 170.485 234.79H172.661V231.736H161.282V234.79H163.588C164.117 234.79 164.496 234.9 164.736 235.1V235.12Z" fill="#B4171E"/>
<path d="M153.607 257.977C155.943 257.977 157.849 256.679 159.276 254.104C160.604 251.719 161.283 248.584 161.283 244.792C161.283 240.709 160.584 237.465 159.196 235.17C157.719 232.714 155.843 231.477 153.607 231.477C151.371 231.477 149.495 232.754 148.067 235.269C146.74 237.615 146.061 240.819 146.061 244.802C146.061 248.784 146.74 251.978 148.077 254.274C149.505 256.739 151.371 257.987 153.607 257.987V257.977ZM151.551 237.026C152.379 234.81 153.307 234.81 153.607 234.81C154.356 234.81 155.054 235.569 155.683 237.076C156.432 238.863 156.811 241.458 156.811 244.802C156.811 247.966 156.432 250.501 155.683 252.337C155.054 253.875 154.356 254.663 153.617 254.663C153.048 254.663 152.2 254.434 151.511 252.407C150.872 250.551 150.553 247.996 150.553 244.812C150.553 241.458 150.892 238.843 151.571 237.036L151.551 237.026Z" fill="#B4171E"/>
<path d="M10.3802 52.9009C9.30225 51.8229 8.70337 50.3757 8.70337 48.8485C8.70337 47.3214 9.30225 45.8741 10.3802 44.7961C11.4582 43.7181 12.8955 43.1192 14.4326 43.1192C15.9698 43.1192 17.3172 43.6782 18.3852 44.6963C19.4532 43.6782 20.8506 43.1192 22.3378 43.1192C23.8251 43.1192 25.3023 43.7181 26.3903 44.7961C27.4682 45.8741 28.0671 47.3114 28.0671 48.8485C28.0671 50.3856 27.4682 51.813 26.3903 52.9009L18.3852 60.9059L10.3902 52.9009H10.3802Z" fill="#B4171E"/>
<path d="M56.2725 57.3127L69.2278 44.3569C72.5115 41.0731 72.5115 35.7431 69.2278 32.4592C65.9441 29.1754 60.6142 29.1754 57.3305 32.4592L56.2725 33.5172L55.2146 32.4592C51.9308 29.1754 46.601 29.1754 43.3173 32.4592C40.0336 35.7431 40.0336 41.0731 43.3173 44.3569L56.2725 57.3127Z" fill="#B4171E"/>
<path d="M56.2725 116.302L69.2278 103.346C72.5115 100.063 72.5115 94.7326 69.2278 91.4488C65.9441 88.1649 60.6142 88.1649 57.3305 91.4488L56.2725 92.5068L55.2146 91.4488C51.9308 88.1649 46.601 88.1649 43.3173 91.4488C40.0336 94.7326 40.0336 100.063 43.3173 103.346L56.2725 116.302Z" fill="#B4171E"/>
<path d="M163.299 224.25C161.811 224.25 160.414 223.691 159.346 222.673C158.278 223.691 156.881 224.25 155.393 224.25C153.906 224.25 152.429 223.651 151.341 222.573C150.263 221.495 149.664 220.058 149.664 218.521C149.664 216.984 150.263 215.556 151.341 214.468L159.336 206.473L167.341 214.468C168.419 215.546 169.018 216.984 169.018 218.521C169.018 220.058 168.419 221.485 167.341 222.573C166.263 223.651 164.816 224.25 163.289 224.25H163.299Z" fill="#B4171E"/>
<path d="M56.2725 210.057L43.3173 223.012C40.0336 226.296 40.0336 231.626 43.3173 234.91C46.601 238.194 51.9308 238.194 55.2146 234.91L56.2725 233.852L57.3305 234.91C60.6142 238.194 65.9441 238.194 69.2278 234.91C72.5115 231.626 72.5115 226.296 69.2278 223.012L56.2725 210.057Z" fill="#B4171E"/>
<path d="M56.2725 151.067L43.3173 164.023C40.0336 167.307 40.0336 172.637 43.3173 175.921C46.601 179.204 51.9308 179.204 55.2146 175.921L56.2725 174.863L57.3305 175.921C60.6142 179.204 65.9441 179.204 69.2278 175.921C72.5115 172.637 72.5115 167.307 69.2278 164.023L56.2725 151.067Z" fill="#B4171E"/>
<path d="M121.478 151.067L108.523 164.023C105.239 167.307 105.239 172.637 108.523 175.921C111.806 179.204 117.136 179.204 120.42 175.921L121.478 174.863L122.536 175.921C125.82 179.204 131.149 179.204 134.433 175.921C137.717 172.637 137.717 167.307 134.433 164.023L121.478 151.067Z" fill="#B4171E"/>
<path d="M121.478 116.302L134.433 103.346C137.717 100.063 137.717 94.7326 134.433 91.4488C131.149 88.1649 125.82 88.1649 122.536 91.4488L121.478 92.5068L120.42 91.4488C117.136 88.1649 111.806 88.1649 108.523 91.4488C105.239 94.7326 105.239 100.063 108.523 103.346L121.478 116.302Z" fill="#B4171E"/>
<path d="M88.8802 86.8074L101.835 73.8517C105.119 70.5678 105.119 65.2378 101.835 61.954C98.5517 58.6701 93.2219 58.6701 89.9382 61.954L88.8802 63.012L87.8222 61.954C84.5385 58.6701 79.2087 58.6701 75.925 61.954C72.6412 65.2378 72.6412 70.5678 75.925 73.8517L88.8802 86.8074Z" fill="#B4171E"/>
<path d="M88.8802 180.562L75.925 193.518C72.6412 196.801 72.6412 202.131 75.925 205.415C79.2087 208.699 84.5385 208.699 87.8222 205.415L88.8802 204.357L89.9382 205.415C93.2219 208.699 98.5517 208.699 101.835 205.415C105.119 202.131 105.119 196.801 101.835 193.518L88.8802 180.562Z" fill="#B4171E"/>
<path d="M121.458 57.3127L134.413 44.3569C137.697 41.0731 137.697 35.7431 134.413 32.4592C131.13 29.1754 125.8 29.1754 122.516 32.4592L121.458 33.5172L120.4 32.4592C117.116 29.1754 111.787 29.1754 108.503 32.4592C105.219 35.7431 105.219 41.0731 108.503 44.3569L121.458 57.3127Z" fill="#B4171E"/>
<path d="M121.458 210.057L108.503 223.012C105.219 226.296 105.219 231.626 108.503 234.91C111.787 238.194 117.116 238.194 120.4 234.91L121.458 233.852L122.516 234.91C125.8 238.194 131.13 238.194 134.413 234.91C137.697 231.626 137.697 226.296 134.413 223.012L121.458 210.057Z" fill="#B4171E"/>
</svg>
