<svg width="178" height="267" viewBox="0 0 178 267" fill="none" xmlns="http://www.w3.org/2000/svg">
<path d="M166.771 0.359325H10.979C4.91548 0.359325 0 5.27499 0 11.3388V256.021C0 262.084 4.91548 267 10.979 267H166.771C172.835 267 177.75 262.084 177.75 256.021V11.3388C177.75 5.27499 172.835 0.359325 166.771 0.359325Z" fill="white"/>
<path d="M10.4699 17.098L13.4444 17.597L13.664 16.559C13.8935 15.471 14.2529 14.6625 14.712 14.1735C15.1013 13.7542 15.6203 13.5546 16.329 13.5546H21.3895C18.435 19.0044 16.6284 22.8572 15.8898 25.3026C15.0713 27.9876 14.6621 30.2933 14.6621 32.1498C14.6621 33.2976 14.9316 34.1261 15.4706 34.6651C15.9996 35.1941 16.6783 35.4736 17.4369 35.4736C18.3352 35.4736 19.0139 35.1941 19.4731 34.6551C19.8823 34.156 20.072 33.4474 20.072 32.4193V29.7643C19.9821 29.1853 19.9322 28.7262 19.9322 28.3968C19.9322 26.3207 20.4912 23.8154 21.5891 20.9508C22.717 18.0163 24.2541 14.972 26.1406 11.9077L26.3103 11.6382V9.24269H11.7675L10.46 17.088L10.4699 17.098Z" fill="#B4171E"/>
<path d="M167.281 250.261L164.307 249.762L164.087 250.8C163.857 251.898 163.498 252.697 163.039 253.196C162.65 253.615 162.131 253.815 161.422 253.815H156.361C159.316 248.365 161.123 244.512 161.861 242.067C162.68 239.382 163.089 237.086 163.089 235.219C163.089 234.072 162.819 233.243 162.28 232.704C161.751 232.175 161.073 231.886 160.314 231.886C159.416 231.886 158.737 232.165 158.278 232.704C157.869 233.203 157.679 233.912 157.679 234.94V237.595C157.769 238.174 157.819 238.633 157.819 238.962C157.819 241.039 157.26 243.544 156.162 246.409C155.034 249.343 153.497 252.387 151.61 255.452L151.441 255.721V258.117H165.983L167.291 250.271L167.281 250.261Z" fill="#B4171E"/>
<path d="M10.3802 52.9009C9.30225 51.8229 8.70337 50.3757 8.70337 48.8485C8.70337 47.3214 9.30225 45.8741 10.3802 44.7961C11.4582 43.7181 12.9055 43.1192 14.4326 43.1192C15.9598 43.1192 17.3172 43.6782 18.3852 44.6963C19.4532 43.6782 20.8506 43.1192 22.3378 43.1192C23.8251 43.1192 25.3023 43.7181 26.3903 44.7961C27.4682 45.8741 28.0671 47.3114 28.0671 48.8485C28.0671 50.3856 27.4682 51.813 26.3903 52.9009L18.3852 60.9059L10.3802 52.9009Z" fill="#B4171E"/>
<path d="M56.2826 57.3127L69.2378 44.3569C72.5215 41.0731 72.5215 35.7431 69.2378 32.4592C65.9541 29.1754 60.6243 29.1754 57.3405 32.4592L56.2826 33.5172L55.2246 32.4592C51.9408 29.1754 46.611 29.1754 43.3273 32.4592C40.0436 35.7431 40.0436 41.0731 43.3273 44.3569L56.2826 57.3127Z" fill="#B4171E"/>
<path d="M56.2826 147.344L69.2378 134.388C72.5215 131.104 72.5215 125.774 69.2378 122.491C65.9541 119.207 60.6243 119.207 57.3405 122.491L56.2826 123.549L55.2246 122.491C51.9408 119.207 46.611 119.207 43.3273 122.491C40.0436 125.774 40.0436 131.104 43.3273 134.388L56.2826 147.344Z" fill="#B4171E"/>
<path d="M121.458 147.344L134.413 134.388C137.697 131.104 137.697 125.774 134.413 122.491C131.13 119.207 125.8 119.207 122.516 122.491L121.458 123.549L120.4 122.491C117.116 119.207 111.787 119.207 108.503 122.491C105.219 125.774 105.219 131.104 108.503 134.388L121.458 147.344Z" fill="#B4171E"/>
<path d="M163.299 224.25C161.811 224.25 160.414 223.691 159.346 222.673C158.278 223.691 156.881 224.25 155.393 224.25C153.906 224.25 152.429 223.651 151.341 222.573C150.253 221.495 149.664 220.058 149.664 218.521C149.664 216.984 150.263 215.556 151.341 214.468L159.346 206.473L167.351 214.468C168.439 215.546 169.028 216.984 169.028 218.521C169.028 220.058 168.429 221.485 167.351 222.573C166.273 223.651 164.836 224.25 163.299 224.25Z" fill="#B4171E"/>
<path d="M56.2826 210.057L43.3273 223.012C40.0436 226.296 40.0436 231.626 43.3273 234.91C46.611 238.194 51.9408 238.194 55.2246 234.91L56.2826 233.852L57.3405 234.91C60.6243 238.194 65.9541 238.194 69.2378 234.91C72.5215 231.626 72.5215 226.296 69.2378 223.012L56.2826 210.057Z" fill="#B4171E"/>
<path d="M121.458 57.3127L134.413 44.3569C137.697 41.0731 137.697 35.7431 134.413 32.4592C131.13 29.1754 125.8 29.1754 122.516 32.4592L121.458 33.5172L120.4 32.4592C117.116 29.1754 111.787 29.1754 108.503 32.4592C105.219 35.7431 105.219 41.0731 108.503 44.3569L121.458 57.3127Z" fill="#B4171E"/>
<path d="M88.8802 102.328L101.835 89.3726C105.119 86.0888 105.119 80.7588 101.835 77.4749C98.5517 74.1911 93.2219 74.1911 89.9382 77.4749L88.8802 78.5329L87.8222 77.4749C84.5385 74.1911 79.2087 74.1911 75.925 77.4749C72.6412 80.7588 72.6412 86.0888 75.925 89.3726L88.8802 102.328Z" fill="#B4171E"/>
<path d="M121.458 210.057L108.503 223.012C105.219 226.296 105.219 231.626 108.503 234.91C111.787 238.194 117.116 238.194 120.4 234.91L121.458 233.852L122.516 234.91C125.8 238.194 131.13 238.194 134.413 234.91C137.697 231.626 137.697 226.296 134.413 223.012L121.458 210.057Z" fill="#B4171E"/>
</svg>
