<svg width="178" height="268" viewBox="0 0 178 268" fill="none" xmlns="http://www.w3.org/2000/svg">
<path d="M166.771 0.489082H10.979C4.91548 0.489082 0 5.40474 0 11.4685V256.15C0 262.214 4.91548 267.13 10.979 267.13H166.771C172.835 267.13 177.75 262.214 177.75 256.15V11.4685C177.75 5.40474 172.835 0.489082 166.771 0.489082Z" fill="white"/>
<path d="M18.1855 9.37245C15.6203 9.37245 13.6041 10.2608 12.1868 11.9975C10.8193 13.6744 10.1306 15.7804 10.1306 18.2458C10.1306 21.1204 10.7994 23.2664 12.1069 24.6339C13.4244 26.0113 15.1911 26.71 17.3471 26.71C18.984 26.71 20.3714 26.2608 21.4893 25.3725C21.1999 27.6283 20.7407 29.345 20.1219 30.4729C19.0339 32.4492 17.8661 32.6688 17.0676 32.6688C16.858 32.6688 16.6784 32.6489 16.5686 32.599C16.5586 32.569 16.5087 32.4293 16.5087 32.1099C16.5087 31.4012 16.3789 30.7624 16.1294 30.1935C15.9198 29.7144 15.3508 28.9158 14.0034 28.9158C12.7457 28.9158 12.1369 29.5946 11.8873 29.9938C11.548 30.5428 11.3683 31.1117 11.3683 31.6907C11.3683 32.9982 12.0071 34.0961 13.2049 34.8547C14.2629 35.5235 15.5105 35.8628 16.9179 35.8628C20.0121 35.8628 22.4475 34.3956 24.1843 31.511C25.8113 28.8061 26.6297 25.3625 26.6297 21.3001C26.6297 17.5671 25.9111 14.6426 24.4837 12.6164C22.9766 10.4604 20.8505 9.37245 18.1656 9.37245H18.1855ZM20.5012 21.7293C19.0439 23.5858 16.9578 23.8354 15.6702 22.0986C15.0314 21.2402 14.712 19.8927 14.712 18.1061C14.712 16.3194 15.0314 14.952 15.6702 13.884C16.2092 12.9757 17.0077 12.5565 18.1855 12.5565C19.4432 12.5565 20.2816 13.0156 20.8206 13.9938C21.4594 15.1616 21.7888 16.7786 21.7888 18.7948C21.7888 19.6432 21.3596 20.6314 20.5012 21.7193V21.7293Z" fill="#B4171E"/>
<path d="M159.566 258.236C162.131 258.236 164.147 257.348 165.564 255.601C166.922 253.924 167.62 251.828 167.62 249.353C167.62 246.478 166.962 244.332 165.644 242.965C164.327 241.588 162.56 240.889 160.404 240.889C158.767 240.889 157.38 241.338 156.262 242.226C156.551 239.971 157.01 238.254 157.629 237.126C158.717 235.16 159.885 234.93 160.683 234.93C160.893 234.93 161.073 234.95 161.182 235C161.192 235.03 161.242 235.17 161.242 235.489C161.242 236.198 161.372 236.836 161.622 237.395C161.831 237.875 162.4 238.673 163.748 238.673C165.005 238.673 165.614 237.994 165.864 237.595C166.203 237.046 166.383 236.477 166.383 235.898C166.383 234.591 165.744 233.493 164.546 232.734C163.488 232.065 162.241 231.726 160.833 231.726C157.739 231.726 155.304 233.193 153.567 236.078C151.94 238.783 151.121 242.226 151.121 246.289C151.121 250.022 151.84 252.946 153.267 254.973C154.774 257.128 156.901 258.216 159.585 258.216L159.566 258.236ZM157.25 245.88C158.707 244.023 160.793 243.764 162.081 245.51C162.72 246.369 163.039 247.716 163.039 249.493C163.039 251.269 162.72 252.647 162.081 253.715C161.542 254.623 160.743 255.042 159.566 255.042C158.308 255.042 157.469 254.583 156.93 253.605C156.282 252.437 155.962 250.82 155.962 248.794C155.962 247.946 156.391 246.958 157.25 245.87V245.88Z" fill="#B4171E"/>
<path d="M10.3802 53.0207C9.30225 51.9427 8.70337 50.4954 8.70337 48.9683C8.70337 47.4412 9.30225 45.9939 10.3802 44.9159C11.4582 43.8379 12.8955 43.239 14.4326 43.239C15.9698 43.239 17.3172 43.798 18.3852 44.8161C19.4532 43.798 20.8506 43.239 22.3378 43.239C23.8251 43.239 25.3023 43.8379 26.3903 44.9159C27.4782 45.9939 28.0671 47.4312 28.0671 48.9683C28.0671 50.5054 27.4682 51.9327 26.3903 53.0207L18.3952 61.0257L10.3902 53.0207H10.3802Z" fill="#B4171E"/>
<path d="M56.2725 57.4325L69.2278 44.4767C72.5115 41.1929 72.5115 35.8628 69.2278 32.579C65.9441 29.2951 60.6142 29.2951 57.3305 32.579L56.2725 33.637L55.2146 32.579C51.9308 29.2951 46.601 29.2951 43.3173 32.579C40.0336 35.8628 40.0336 41.1929 43.3173 44.4767L56.2725 57.4325Z" fill="#B4171E"/>
<path d="M56.2725 116.422L69.2278 103.466C72.5115 100.182 72.5115 94.8524 69.2278 91.5685C65.9441 88.2847 60.6142 88.2847 57.3305 91.5685L56.2725 92.6265L55.2146 91.5685C51.9308 88.2847 46.601 88.2847 43.3173 91.5685C40.0336 94.8524 40.0336 100.182 43.3173 103.466L56.2725 116.422Z" fill="#B4171E"/>
<path d="M163.299 224.37C161.821 224.37 160.414 223.811 159.346 222.793C158.278 223.811 156.881 224.37 155.393 224.37C153.906 224.37 152.429 223.771 151.341 222.693C150.263 221.615 149.664 220.178 149.664 218.641C149.664 217.103 150.263 215.676 151.341 214.588L159.346 206.593L167.351 214.588C168.429 215.666 169.028 217.103 169.028 218.641C169.028 220.178 168.429 221.605 167.351 222.693C166.273 223.771 164.826 224.37 163.299 224.37Z" fill="#B4171E"/>
<path d="M56.2725 210.176L43.3173 223.132C40.0336 226.416 40.0336 231.746 43.3173 235.03C46.601 238.314 51.9308 238.314 55.2146 235.03L56.2725 233.972L57.3305 235.03C60.6142 238.314 65.9441 238.314 69.2278 235.03C72.5115 231.746 72.5115 226.416 69.2278 223.132L56.2725 210.176Z" fill="#B4171E"/>
<path d="M56.2725 151.187L43.3173 164.143C40.0336 167.426 40.0336 172.756 43.3173 176.04C46.601 179.324 51.9308 179.324 55.2146 176.04L56.2725 174.982L57.3305 176.04C60.6142 179.324 65.9441 179.324 69.2278 176.04C72.5115 172.756 72.5115 167.426 69.2278 164.143L56.2725 151.187Z" fill="#B4171E"/>
<path d="M121.478 151.187L108.523 164.143C105.239 167.426 105.239 172.756 108.523 176.04C111.806 179.324 117.136 179.324 120.42 176.04L121.478 174.982L122.536 176.04C125.82 179.324 131.149 179.324 134.433 176.04C137.717 172.756 137.717 167.426 134.433 164.143L121.478 151.187Z" fill="#B4171E"/>
<path d="M121.478 116.422L134.433 103.466C137.717 100.182 137.717 94.8524 134.433 91.5685C131.149 88.2847 125.82 88.2847 122.536 91.5685L121.478 92.6265L120.42 91.5685C117.136 88.2847 111.806 88.2847 108.523 91.5685C105.239 94.8524 105.239 100.182 108.523 103.466L121.478 116.422Z" fill="#B4171E"/>
<path d="M88.8802 147.464L101.835 134.508C105.119 131.224 105.119 125.894 101.835 122.61C98.5517 119.327 93.2219 119.327 89.9382 122.61L88.8802 123.668L87.8222 122.61C84.5385 119.327 79.2087 119.327 75.925 122.61C72.6412 125.894 72.6412 131.224 75.925 134.508L88.8802 147.464Z" fill="#B4171E"/>
<path d="M121.458 57.4325L134.413 44.4767C137.697 41.1929 137.697 35.8628 134.413 32.579C131.13 29.2951 125.8 29.2951 122.516 32.579L121.458 33.637L120.4 32.579C117.116 29.2951 111.787 29.2951 108.503 32.579C105.219 35.8628 105.219 41.1929 108.503 44.4767L121.458 57.4325Z" fill="#B4171E"/>
<path d="M121.458 210.176L108.503 223.132C105.219 226.416 105.219 231.746 108.503 235.03C111.787 238.314 117.116 238.314 120.4 235.03L121.458 233.972L122.516 235.03C125.8 238.314 131.13 238.314 134.413 235.03C137.697 231.746 137.697 226.416 134.413 223.132L121.458 210.176Z" fill="#B4171E"/>
</svg>
