<svg width="178" height="267" viewBox="0 0 178 267" fill="none" xmlns="http://www.w3.org/2000/svg">
<path d="M166.771 0.359325H10.979C4.91548 0.359325 0 5.27499 0 11.3388V256.021C0 262.084 4.91548 267 10.979 267H166.771C172.835 267 177.75 262.084 177.75 256.021V11.3388C177.75 5.27499 172.835 0.359325 166.771 0.359325Z" fill="white"/>
<path d="M22.9765 21.7992C23.8449 21.2003 24.5436 20.5415 25.0526 19.8129C25.8811 18.6551 26.3003 17.3874 26.3003 16.0499C26.3003 14.1635 25.5717 12.5365 24.1443 11.209C22.737 9.91144 20.8904 9.25267 18.6746 9.25267C16.2691 9.25267 14.3327 9.91144 12.9253 11.209C11.488 12.5365 10.7594 14.1635 10.7594 16.0499C10.7594 17.4873 11.1786 18.7948 12.0071 19.9526C12.4862 20.6214 13.095 21.2302 13.8137 21.7692C12.9054 22.448 12.1668 23.1966 11.5878 24.015C10.6696 25.3126 10.2004 26.8797 10.2004 28.6763C10.2004 30.5827 11.0289 32.2596 12.6658 33.6769C14.2529 35.0544 16.1792 35.753 18.3851 35.753C20.7906 35.753 22.7669 35.0444 24.2741 33.657C25.8012 32.2396 26.5698 30.4729 26.5698 28.3968C26.5698 26.8896 26.1306 25.4623 25.2722 24.1747C24.7033 23.3363 23.9347 22.5378 22.9665 21.7992H22.9765ZM15.79 13.4149C16.309 12.7661 17.2772 12.4467 18.6746 12.4467C19.8923 12.4467 20.7407 12.7761 21.2597 13.4648C21.8586 14.2433 22.1381 15.1416 22.1381 16.1897C22.1381 17.088 21.9285 17.8366 21.4893 18.4854C21.11 19.0443 20.561 19.5434 19.8424 19.9626C18.2653 19.3238 17.0177 18.5952 16.1493 17.7967C15.3308 17.0481 14.9116 16.3194 14.9116 15.6307C14.9116 14.8622 15.1911 14.1335 15.78 13.4149H15.79ZM21.3695 31.5709C20.8106 32.2296 19.8124 32.569 18.3951 32.569C17.1973 32.569 16.2491 32.2197 15.4806 31.491C14.732 30.7824 14.3726 29.8641 14.3726 28.6863C14.3726 27.5085 14.6222 26.5603 15.1412 25.612C15.5704 24.8235 16.1393 24.1548 16.868 23.5759C18.6646 24.3744 20.032 25.2327 20.9403 26.141C21.8386 27.0394 22.2778 27.9177 22.2778 28.826C22.2778 29.9539 21.9784 30.8522 21.3595 31.5809L21.3695 31.5709Z" fill="#B4171E"/>
<path d="M154.774 245.57C153.906 246.169 153.207 246.828 152.698 247.556C151.87 248.714 151.451 249.982 151.451 251.319C151.451 253.206 152.179 254.833 153.617 256.16C155.024 257.458 156.861 258.117 159.086 258.117C161.492 258.117 163.428 257.458 164.836 256.16C166.273 254.843 167.002 253.206 167.002 251.319C167.002 249.882 166.582 248.575 165.754 247.417C165.275 246.738 164.666 246.139 163.947 245.6C164.856 244.921 165.594 244.173 166.173 243.354C167.091 242.057 167.561 240.49 167.561 238.693C167.561 236.787 166.732 235.11 165.095 233.692C163.508 232.315 161.582 231.616 159.376 231.616C156.97 231.616 154.984 232.325 153.487 233.712C151.96 235.13 151.191 236.896 151.191 238.963C151.191 240.47 151.63 241.897 152.489 243.185C153.048 244.023 153.826 244.822 154.794 245.56L154.774 245.57ZM161.961 253.954C161.442 254.603 160.474 254.923 159.076 254.923C157.859 254.923 157.01 254.593 156.491 253.905C155.892 253.126 155.603 252.228 155.603 251.18C155.603 250.281 155.813 249.533 156.252 248.884C156.631 248.325 157.18 247.826 157.899 247.407C159.476 248.045 160.723 248.774 161.592 249.573C162.41 250.321 162.829 251.05 162.829 251.739C162.829 252.507 162.55 253.236 161.961 253.954ZM156.391 235.798C156.95 235.14 157.949 234.8 159.366 234.8C160.564 234.8 161.512 235.15 162.28 235.888C163.029 236.597 163.388 237.515 163.388 238.693C163.388 239.871 163.139 240.819 162.62 241.767C162.191 242.556 161.622 243.225 160.893 243.803C159.096 243.005 157.729 242.147 156.821 241.238C155.922 240.34 155.483 239.462 155.483 238.553C155.483 237.425 155.783 236.527 156.401 235.798H156.391Z" fill="#B4171E"/>
<path d="M10.3802 52.9009C9.30225 51.8229 8.70337 50.3757 8.70337 48.8485C8.70337 47.3214 9.30225 45.8741 10.3802 44.7961C11.4582 43.7181 12.8955 43.1192 14.4326 43.1192C15.9698 43.1192 17.3172 43.6782 18.3852 44.6963C19.4532 43.6782 20.8506 43.1192 22.3378 43.1192C23.8251 43.1192 25.3023 43.7181 26.3903 44.7961C28.6261 47.0319 28.6261 50.6651 26.3903 52.9009L18.3952 60.9059L10.3902 52.9009H10.3802Z" fill="#B4171E"/>
<path d="M56.2826 57.3127L69.2378 44.3569C72.5215 41.0731 72.5215 35.7431 69.2378 32.4592C65.9541 29.1754 60.6243 29.1754 57.3405 32.4592L56.2826 33.5172L55.2246 32.4592C51.9408 29.1754 46.611 29.1754 43.3273 32.4592C40.0436 35.7431 40.0436 41.0731 43.3273 44.3569L56.2826 57.3127Z" fill="#B4171E"/>
<path d="M56.2826 147.344L69.2378 134.388C72.5215 131.104 72.5215 125.774 69.2378 122.491C65.9541 119.207 60.6243 119.207 57.3405 122.491L56.2826 123.549L55.2246 122.491C51.9408 119.207 46.611 119.207 43.3273 122.491C40.0436 125.774 40.0436 131.104 43.3273 134.388L56.2826 147.344Z" fill="#B4171E"/>
<path d="M121.458 147.344L134.413 134.388C137.697 131.104 137.697 125.774 134.413 122.491C131.13 119.207 125.8 119.207 122.516 122.491L121.458 123.549L120.4 122.491C117.116 119.207 111.787 119.207 108.503 122.491C105.219 125.774 105.219 131.104 108.503 134.388L121.458 147.344Z" fill="#B4171E"/>
<path d="M163.299 224.25C161.811 224.25 160.414 223.691 159.346 222.673C158.278 223.691 156.881 224.25 155.393 224.25C153.906 224.25 152.429 223.651 151.341 222.573C149.105 220.337 149.105 216.704 151.341 214.468L159.346 206.473L167.341 214.468C168.419 215.546 169.018 216.984 169.018 218.521C169.018 220.058 168.419 221.485 167.341 222.573C166.263 223.651 164.826 224.25 163.289 224.25H163.299Z" fill="#B4171E"/>
<path d="M56.2826 210.057L43.3273 223.012C40.0436 226.296 40.0436 231.626 43.3273 234.91C46.611 238.194 51.9408 238.194 55.2246 234.91L56.2826 233.852L57.3405 234.91C60.6243 238.194 65.9541 238.194 69.2378 234.91C72.5215 231.626 72.5215 226.296 69.2378 223.012L56.2826 210.057Z" fill="#B4171E"/>
<path d="M121.458 57.3127L134.413 44.3569C137.697 41.0731 137.697 35.7431 134.413 32.4592C131.13 29.1754 125.8 29.1754 122.516 32.4592L121.458 33.5172L120.4 32.4592C117.116 29.1754 111.787 29.1754 108.503 32.4592C105.219 35.7431 105.219 41.0731 108.503 44.3569L121.458 57.3127Z" fill="#B4171E"/>
<path d="M88.8802 102.328L101.835 89.3726C105.119 86.0888 105.119 80.7588 101.835 77.4749C98.5517 74.1911 93.2219 74.1911 89.9382 77.4749L88.8802 78.5329L87.8222 77.4749C84.5385 74.1911 79.2087 74.1911 75.925 77.4749C72.6412 80.7588 72.6412 86.0888 75.925 89.3726L88.8802 102.328Z" fill="#B4171E"/>
<path d="M88.8802 165.041L75.925 177.997C72.6412 181.281 72.6412 186.611 75.925 189.894C79.2087 193.178 84.5385 193.178 87.8222 189.894L88.8802 188.836L89.9382 189.894C93.2219 193.178 98.5517 193.178 101.835 189.894C105.119 186.611 105.119 181.281 101.835 177.997L88.8802 165.041Z" fill="#B4171E"/>
<path d="M121.458 210.057L108.503 223.012C105.219 226.296 105.219 231.626 108.503 234.91C111.787 238.194 117.116 238.194 120.4 234.91L121.458 233.852L122.516 234.91C125.8 238.194 131.13 238.194 134.413 234.91C137.697 231.626 137.697 226.296 134.413 223.012L121.458 210.057Z" fill="#B4171E"/>
</svg>
