<svg width="178" height="267" viewBox="0 0 178 267" fill="none" xmlns="http://www.w3.org/2000/svg">
<path d="M166.771 0.359325H10.979C4.91548 0.359325 0 5.27499 0 11.3388V256.021C0 262.084 4.91548 267 10.979 267H166.771C172.835 267 177.75 262.084 177.75 256.021V11.3388C177.75 5.27499 172.835 0.359325 166.771 0.359325Z" fill="white"/>
<path d="M19.2935 18.136C17.9759 18.136 16.7283 18.4954 15.5904 19.204C15.4207 19.3039 15.261 19.4236 15.1013 19.5334C15.3409 16.2795 15.9198 14.8123 16.4288 14.1635C17.3271 13.0056 18.3552 12.4467 19.5729 12.4467C20.2117 12.4467 20.4114 12.5565 20.4014 12.5864V12.9158C20.3116 13.1653 20.2616 13.4348 20.2616 13.6944C20.2616 14.4629 20.4912 15.0818 20.9304 15.5209C21.8986 16.4891 23.9547 16.3893 24.7932 15.3812C25.1924 14.9021 25.392 14.2433 25.392 13.4249C25.392 12.5465 24.893 11.6482 23.8649 10.67C22.8668 9.73178 21.5692 9.25267 19.9822 9.25267C16.9279 9.25267 14.4725 10.5602 12.6858 13.1254C10.989 15.5708 10.1306 19.0743 10.1306 23.5459C10.1306 27.3687 10.8493 30.3532 12.2666 32.4293C13.7738 34.6351 15.9996 35.753 18.8742 35.753C20.9304 35.753 22.757 34.9645 24.3041 33.4174C25.8512 31.8703 26.6397 29.5247 26.6397 26.4604C26.6397 24.3943 26.0907 22.5079 25.0028 20.851C23.815 19.0443 21.8886 18.136 19.2835 18.136H19.2935ZM21.1699 31.491C20.6409 32.2197 19.9123 32.559 18.8742 32.559C17.8362 32.559 17.0377 31.9801 16.2691 30.7824C15.4407 29.4848 15.0115 27.5983 14.9915 25.1629C15.6104 23.8154 16.2691 22.8971 16.9379 22.448C18.3053 21.5097 19.9422 21.3101 21.12 22.8372C21.7489 23.6557 22.0683 24.8734 22.0683 26.4604C22.0683 29.6046 21.5792 30.9321 21.1699 31.501V31.491Z" fill="#B4171E"/>
<path d="M158.458 249.233C159.775 249.233 161.023 248.874 162.161 248.165C162.33 248.065 162.49 247.946 162.65 247.836C162.41 251.09 161.831 252.557 161.322 253.206C160.424 254.364 159.396 254.923 158.178 254.923C157.529 254.923 157.34 254.813 157.35 254.783V254.454C157.439 254.194 157.489 253.934 157.489 253.675C157.489 252.906 157.26 252.288 156.821 251.848C155.852 250.88 153.796 250.98 152.958 251.988C152.559 252.467 152.359 253.126 152.359 253.944C152.359 254.823 152.858 255.721 153.886 256.699C154.884 257.638 156.192 258.107 157.769 258.107C160.823 258.107 163.279 256.799 165.065 254.234C166.762 251.789 167.62 248.285 167.62 243.813C167.62 239.991 166.902 237.006 165.484 234.93C163.977 232.724 161.751 231.596 158.877 231.596C156.821 231.596 154.994 232.385 153.437 233.932C151.88 235.479 151.101 237.825 151.101 240.889C151.101 242.945 151.65 244.842 152.738 246.498C153.926 248.305 155.852 249.223 158.458 249.223V249.233ZM156.581 235.868C157.11 235.14 157.839 234.8 158.877 234.8C159.915 234.8 160.713 235.379 161.482 236.577C162.31 237.875 162.74 239.761 162.759 242.196C162.141 243.544 161.482 244.462 160.813 244.921C159.446 245.86 157.809 246.059 156.631 244.532C156.002 243.714 155.683 242.496 155.683 240.909C155.683 237.765 156.172 236.437 156.581 235.868Z" fill="#B4171E"/>
<path d="M10.3802 52.9009C9.30225 51.8229 8.70337 50.3757 8.70337 48.8485C8.70337 47.3214 9.30225 45.8741 10.3802 44.7961C11.4582 43.7181 12.8955 43.1192 14.4326 43.1192C15.9698 43.1192 17.3172 43.6782 18.3852 44.6963C19.4532 43.6782 20.8506 43.1192 22.3378 43.1192C23.8251 43.1192 25.3023 43.7181 26.3903 44.7961C27.4682 45.8741 28.0671 47.3114 28.0671 48.8485C28.0671 50.3856 27.4682 51.813 26.3903 52.9009L18.3852 60.9059L10.3802 52.9009Z" fill="#B4171E"/>
<path d="M56.2725 57.3127L69.2278 44.3569C72.5115 41.0731 72.5115 35.7431 69.2278 32.4592C65.9441 29.1754 60.6142 29.1754 57.3305 32.4592L56.2725 33.5172L55.2146 32.4592C51.9308 29.1754 46.601 29.1754 43.3173 32.4592C40.0336 35.7431 40.0336 41.0731 43.3173 44.3569L56.2725 57.3127Z" fill="#B4171E"/>
<path d="M56.2725 147.344L69.2278 134.388C72.5115 131.104 72.5115 125.774 69.2278 122.491C65.9441 119.207 60.6142 119.207 57.3305 122.491L56.2725 123.549L55.2146 122.491C51.9308 119.207 46.601 119.207 43.3173 122.491C40.0336 125.774 40.0336 131.104 43.3173 134.388L56.2725 147.344Z" fill="#B4171E"/>
<path d="M121.458 147.344L134.413 134.388C137.697 131.104 137.697 125.774 134.413 122.491C131.13 119.207 125.8 119.207 122.516 122.491L121.458 123.549L120.4 122.491C117.116 119.207 111.787 119.207 108.503 122.491C105.219 125.774 105.219 131.104 108.503 134.388L121.458 147.344Z" fill="#B4171E"/>
<path d="M163.299 224.25C161.811 224.25 160.414 223.691 159.346 222.673C158.278 223.691 156.881 224.25 155.393 224.25C153.906 224.25 152.429 223.651 151.341 222.573C150.263 221.495 149.664 220.058 149.664 218.521C149.664 216.984 150.263 215.556 151.341 214.468L159.346 206.473L167.351 214.468C168.429 215.546 169.028 216.984 169.028 218.521C169.028 220.058 168.429 221.485 167.351 222.573C166.273 223.661 164.826 224.25 163.299 224.25Z" fill="#B4171E"/>
<path d="M56.2725 210.057L43.3173 223.012C40.0336 226.296 40.0336 231.626 43.3173 234.91C46.601 238.194 51.9308 238.194 55.2146 234.91L56.2725 233.852L57.3305 234.91C60.6142 238.194 65.9441 238.194 69.2278 234.91C72.5115 231.626 72.5115 226.296 69.2278 223.012L56.2725 210.057Z" fill="#B4171E"/>
<path d="M121.458 57.3127L134.413 44.3569C137.697 41.0731 137.697 35.7431 134.413 32.4592C131.13 29.1754 125.8 29.1754 122.516 32.4592L121.458 33.5172L120.4 32.4592C117.116 29.1754 111.787 29.1754 108.503 32.4592C105.219 35.7431 105.219 41.0731 108.503 44.3569L121.458 57.3127Z" fill="#B4171E"/>
<path d="M121.458 210.057L108.503 223.012C105.219 226.296 105.219 231.626 108.503 234.91C111.787 238.194 117.116 238.194 120.4 234.91L121.458 233.852L122.516 234.91C125.8 238.194 131.13 238.194 134.413 234.91C137.697 231.626 137.697 226.296 134.413 223.012L121.458 210.057Z" fill="#B4171E"/>
</svg>
