<svg width="178" height="267" viewBox="0 0 178 267" fill="none" xmlns="http://www.w3.org/2000/svg">
<path d="M166.891 0.359325H11.0988C5.03523 0.359325 0.119751 5.27499 0.119751 11.3388V256.021C0.119751 262.084 5.03523 267 11.0988 267H166.891C172.955 267 177.87 262.084 177.87 256.021V11.3388C177.87 5.27499 172.955 0.359325 166.891 0.359325Z" fill="white"/>
<path d="M22.5773 21.4598C23.2061 21.0306 23.7251 20.5316 24.1344 19.9626C24.9628 18.8048 25.382 17.3974 25.382 15.7804C25.382 14.1635 24.7233 12.7062 23.4057 11.3388C22.0782 9.96134 20.3215 9.26265 18.1655 9.26265C16.3589 9.26265 14.742 9.78168 13.3446 10.7898C11.8474 11.8877 11.0888 13.335 11.0888 15.0818C11.0888 16.1597 11.3783 16.9582 11.9572 17.4473C12.4762 17.8965 13.0851 18.136 13.7239 18.136C14.7819 18.136 15.3408 17.647 15.6203 17.2277C15.9297 16.7686 16.0894 16.1897 16.0894 15.501C16.0894 14.932 15.8798 14.423 15.6004 14.1834C15.6004 14.1834 15.5305 14.0038 15.5305 13.4249C15.5305 13.2053 15.5604 13.0256 15.9796 12.8459C17.926 11.9876 19.2835 12.4866 19.9722 13.4448C20.5311 14.2333 20.8106 15.1317 20.8106 16.1997C20.8106 17.4773 20.4812 18.4255 19.8224 19.0942C19.1637 19.753 18.0458 20.0824 16.5087 20.0824H15.4007V23.2764H16.5087C18.5349 23.2764 19.9522 23.6757 20.591 24.4243C21.2997 25.2427 21.639 26.3207 21.639 27.7181C21.639 29.4748 21.3097 30.7424 20.6609 31.501C20.042 32.2197 19.0938 32.569 17.7563 32.569C17.1075 32.569 16.5286 32.4293 15.9896 32.1498C15.77 32.03 15.5405 31.8603 15.5405 31.7406C15.5405 31.7106 15.5405 31.5709 15.6303 31.3812C15.9397 30.9221 16.0994 30.3432 16.0994 29.6545C16.0994 29.1853 15.9397 28.6663 15.6103 28.0774C14.8717 26.7399 12.9054 26.3107 11.518 27.8778C10.959 28.4966 10.6796 29.2452 10.6796 30.0737C10.6796 31.6308 11.4282 33.0082 12.9154 34.1461C14.3128 35.224 15.9896 35.763 17.8961 35.763C20.5112 35.763 22.5972 34.9745 24.1044 33.4174C25.6016 31.8703 26.3602 30.0437 26.3602 27.9976C26.3602 26.5902 25.931 25.1828 25.0826 23.8054C24.5336 22.9071 23.6952 22.1286 22.5773 21.4698V21.4598Z" fill="#B4171E"/>
<path d="M155.413 246.249C154.785 246.678 154.265 247.177 153.856 247.746C153.028 248.904 152.609 250.311 152.609 251.928C152.609 253.545 153.267 255.002 154.585 256.37C155.912 257.747 157.669 258.446 159.825 258.446C161.632 258.446 163.249 257.927 164.646 256.909C166.143 255.811 166.902 254.364 166.902 252.617C166.902 251.539 166.602 250.74 166.023 250.251C165.504 249.802 164.896 249.563 164.257 249.563C163.199 249.563 162.64 250.052 162.36 250.471C162.051 250.93 161.901 251.509 161.901 252.198C161.901 252.767 162.111 253.276 162.39 253.515C162.39 253.515 162.46 253.695 162.46 254.274C162.46 254.493 162.43 254.673 162.021 254.853C160.075 255.711 158.717 255.212 158.028 254.254C157.469 253.465 157.19 252.567 157.19 251.499C157.19 250.221 157.519 249.273 158.188 248.604C158.847 247.946 159.955 247.606 161.492 247.606H162.6V244.412H161.492C159.466 244.412 158.048 244.013 157.41 243.274C156.701 242.456 156.362 241.378 156.362 239.981C156.362 238.224 156.691 236.956 157.34 236.198C157.959 235.479 158.907 235.13 160.244 235.13C160.893 235.13 161.472 235.269 162.011 235.559C162.231 235.679 162.46 235.848 162.46 235.968C162.46 235.998 162.46 236.138 162.37 236.327C162.061 236.787 161.911 237.365 161.911 238.054C161.911 238.523 162.071 239.042 162.4 239.631C163.149 240.969 165.105 241.398 166.493 239.831C167.042 239.212 167.331 238.473 167.331 237.635C167.331 236.078 166.582 234.7 165.095 233.563C163.698 232.485 162.021 231.946 160.115 231.946C157.499 231.946 155.413 232.734 153.906 234.301C152.409 235.848 151.65 237.675 151.65 239.721C151.65 241.128 152.08 242.536 152.928 243.913C153.477 244.812 154.315 245.59 155.433 246.249H155.413Z" fill="#B4171E"/>
<path d="M10.51 52.9009C9.43201 51.8229 8.83313 50.3757 8.83313 48.8485C8.83313 47.3214 9.43201 45.8741 10.51 44.7961C11.588 43.7181 13.0253 43.1192 14.5624 43.1192C16.0995 43.1192 17.447 43.6782 18.515 44.6963C19.583 43.6782 20.9804 43.1192 22.4676 43.1192C23.9548 43.1192 25.432 43.7181 26.52 44.7961C27.608 45.8741 28.1969 47.3114 28.1969 48.8485C28.1969 50.3856 27.598 51.813 26.52 52.9009L18.515 60.9059L10.51 52.9009Z" fill="#B4171E"/>
<path d="M89 57.3127L101.955 44.3569C105.239 41.0731 105.239 35.7431 101.955 32.4592C98.6715 29.1754 93.3417 29.1754 90.0579 32.4592L89 33.5172L87.942 32.4592C84.6583 29.1754 79.3284 29.1754 76.0447 32.4592C72.761 35.7431 72.761 41.0731 76.0447 44.3569L89 57.3127Z" fill="#B4171E"/>
<path d="M89 147.344L101.955 134.388C105.239 131.104 105.239 125.774 101.955 122.491C98.6715 119.207 93.3417 119.207 90.0579 122.491L89 123.549L87.942 122.491C84.6583 119.207 79.3284 119.207 76.0447 122.491C72.761 125.774 72.761 131.104 76.0447 134.388L89 147.344Z" fill="#B4171E"/>
<path d="M163.428 224.25C161.941 224.25 160.544 223.691 159.476 222.673C158.408 223.691 157.01 224.25 155.523 224.25C154.036 224.25 152.559 223.651 151.471 222.573C150.393 221.495 149.794 220.058 149.794 218.521C149.794 216.984 150.393 215.556 151.471 214.468L159.476 206.473L167.481 214.468C168.559 215.546 169.158 216.984 169.158 218.521C169.158 220.058 168.559 221.485 167.481 222.573C166.403 223.651 164.966 224.25 163.428 224.25Z" fill="#B4171E"/>
<path d="M89 210.057L76.0447 223.012C72.761 226.296 72.761 231.626 76.0447 234.91C79.3284 238.194 84.6583 238.194 87.942 234.91L89 233.852L90.0579 234.91C93.3417 238.194 98.6715 238.194 101.955 234.91C105.239 231.626 105.239 226.296 101.955 223.012L89 210.057Z" fill="#B4171E"/>
</svg>
