<svg width="178" height="267" viewBox="0 0 178 267" fill="none" xmlns="http://www.w3.org/2000/svg">
<path d="M166.771 0.359325H10.979C4.91548 0.359325 0 5.27499 0 11.3388V256.021C0 262.084 4.91548 267 10.979 267H166.771C172.835 267 177.75 262.084 177.75 256.021V11.3388C177.75 5.27499 172.835 0.359325 166.771 0.359325Z" fill="white"/>
<path d="M23.3859 9.25267H20.2717L9.6416 26.141V28.2671H18.9342V31.7406C18.9342 32.1698 18.8344 32.2796 18.8344 32.2796C18.8344 32.2796 18.6547 32.4293 17.956 32.4293H15.321V35.4835H26.6997V32.4293H24.3441C23.9548 32.4293 23.6454 32.3594 23.4857 32.2296C23.4258 32.1897 23.3759 32.02 23.3759 31.7306V28.2571H27.1189V25.2028H23.3759V9.24269L23.3859 9.25267ZM18.9442 25.2128H14.0134L18.9442 17.3675V25.2128Z" fill="#B4171E"/>
<path d="M154.365 258.117H157.479L168.11 241.228V239.102H158.807V235.629C158.807 235.2 158.907 235.09 158.907 235.09C158.907 235.09 159.086 234.94 159.785 234.94H162.42V231.886H151.042V234.94H153.397C153.786 234.94 154.086 235.01 154.256 235.13C154.305 235.17 154.365 235.339 154.365 235.629V239.102H150.622V242.157H154.365V258.117ZM158.807 242.157H163.738L158.807 250.002V242.157Z" fill="#B4171E"/>
<path d="M10.3902 52.9009C9.31226 51.8229 8.71338 50.3757 8.71338 48.8485C8.71338 47.3214 9.31226 45.8741 10.3902 44.7961C11.4682 43.7181 12.9055 43.1192 14.4427 43.1192C15.9798 43.1192 17.3173 43.6782 18.3952 44.6963C19.4633 43.6782 20.8606 43.1192 22.3478 43.1192C23.8351 43.1192 25.3123 43.7181 26.4003 44.7961C27.4882 45.8741 28.0771 47.3114 28.0771 48.8485C28.0771 50.3856 27.4782 51.813 26.4003 52.9009L18.3952 60.9059L10.3902 52.9009Z" fill="#B4171E"/>
<path d="M56.2924 57.3127L69.2477 44.3569C72.5314 41.0731 72.5314 35.7431 69.2477 32.4592C65.964 29.1754 60.6341 29.1754 57.3504 32.4592L56.2924 33.5172L55.2345 32.4592C51.9507 29.1754 46.6209 29.1754 43.3372 32.4592C40.0535 35.7431 40.0535 41.0731 43.3372 44.3569L56.2924 57.3127Z" fill="#B4171E"/>
<path d="M163.309 224.25C161.821 224.25 160.424 223.691 159.356 222.673C158.288 223.691 156.891 224.25 155.403 224.25C153.916 224.25 152.439 223.651 151.351 222.573C150.273 221.495 149.674 220.058 149.674 218.521C149.674 216.984 150.273 215.556 151.351 214.468L159.356 206.473L167.361 214.468C168.449 215.546 169.038 216.984 169.038 218.521C169.038 220.058 168.439 221.485 167.361 222.573C166.283 223.651 164.846 224.25 163.309 224.25Z" fill="#B4171E"/>
<path d="M56.2924 210.057L43.3372 223.012C40.0535 226.296 40.0535 231.626 43.3372 234.91C46.6209 238.194 51.9507 238.194 55.2345 234.91L56.2924 233.852L57.3504 234.91C60.6341 238.194 65.964 238.194 69.2477 234.91C72.5314 231.626 72.5314 226.296 69.2477 223.012L56.2924 210.057Z" fill="#B4171E"/>
<path d="M121.468 57.3127L134.423 44.3569C137.707 41.0731 137.707 35.7431 134.423 32.4592C131.139 29.1754 125.81 29.1754 122.526 32.4592L121.468 33.5172L120.41 32.4592C117.126 29.1754 111.796 29.1754 108.513 32.4592C105.229 35.7431 105.229 41.0731 108.513 44.3569L121.468 57.3127Z" fill="#B4171E"/>
<path d="M121.468 210.057L108.513 223.012C105.229 226.296 105.229 231.626 108.513 234.91C111.796 238.194 117.126 238.194 120.41 234.91L121.468 233.852L122.526 234.91C125.81 238.194 131.139 238.194 134.423 234.91C137.707 231.626 137.707 226.296 134.423 223.012L121.468 210.057Z" fill="#B4171E"/>
</svg>
