<svg width="178" height="267" viewBox="0 0 178 267" fill="none" xmlns="http://www.w3.org/2000/svg">
<path d="M166.771 0.359325H10.979C4.91548 0.359325 0 5.27499 0 11.3388V256.021C0 262.084 4.91548 267 10.979 267H166.771C172.835 267 177.75 262.084 177.75 256.021V11.3388C177.75 5.27499 172.835 0.359325 166.771 0.359325Z" fill="white"/>
<path d="M23.2461 28.2471C23.0864 29.3251 22.8069 30.1136 22.3877 30.5927C22.0383 30.992 21.6591 31.1716 21.15 31.1716H15.1413C15.4607 30.7923 15.8599 30.3232 16.359 29.7543C17.7863 28.1473 19.8425 26.0412 22.4576 23.5259C23.6753 22.408 24.5736 21.2203 25.1425 19.9726C25.7115 18.715 26.0009 17.4373 26.0009 16.1797C26.0009 14.2234 25.3621 12.5665 24.0945 11.2489C22.8169 9.91144 20.8905 9.24269 18.3652 9.24269C16.5586 9.24269 14.8418 9.83159 13.2648 10.9894C11.5879 12.2271 10.7295 14.0138 10.7295 16.3294C10.7295 17.3675 10.999 18.176 11.538 18.705C11.9073 19.0743 12.5761 19.5234 13.6441 19.5234C14.4126 19.5234 15.0215 19.2939 15.4706 18.8547C15.9198 18.4055 16.1394 17.7967 16.1394 17.0281C16.1394 16.4093 15.9198 15.8204 15.4008 15.1317C15.2411 14.972 15.1712 14.7923 15.1712 14.5328C15.1712 13.9539 15.4008 13.5147 15.9198 13.1254C16.5087 12.6763 17.2174 12.4567 18.0857 12.4567C19.2336 12.4567 20.0421 12.7561 20.5611 13.375C21.13 14.0437 21.4095 15.0917 21.4095 16.4791C21.4095 17.4972 21.0801 18.6251 20.4313 19.8428C19.7426 21.1304 18.6447 22.5378 17.1575 24.025C15.3708 25.8117 13.9235 27.3787 12.8555 28.6863C11.7376 30.0537 10.9491 31.1517 10.45 32.04L10.3103 32.2895V35.4935H25.2922L26.4401 27.3089H23.3659L23.2261 28.2571L23.2461 28.2471Z" fill="#B4171E"/>
<path d="M154.505 239.122C154.665 238.044 154.944 237.256 155.363 236.777C155.713 236.377 156.092 236.198 156.601 236.198H162.61C162.29 236.577 161.891 237.046 161.392 237.615C159.965 239.222 157.909 241.328 155.294 243.843C154.076 244.951 153.178 246.149 152.609 247.397C152.04 248.654 151.75 249.922 151.75 251.19C151.75 253.136 152.389 254.803 153.657 256.12C154.934 257.448 156.861 258.127 159.386 258.127C161.193 258.127 162.909 257.538 164.486 256.39C166.163 255.152 167.022 253.356 167.022 251.05C167.022 250.002 166.752 249.203 166.213 248.674C165.844 248.305 165.175 247.866 164.107 247.866C163.339 247.866 162.73 248.085 162.28 248.535C161.831 248.984 161.612 249.593 161.612 250.361C161.612 250.98 161.831 251.569 162.35 252.258C162.51 252.417 162.58 252.597 162.58 252.856C162.58 253.435 162.35 253.875 161.831 254.264C161.242 254.713 160.534 254.933 159.665 254.933C158.518 254.933 157.709 254.633 157.19 254.014C156.621 253.346 156.342 252.298 156.342 250.91C156.342 249.892 156.671 248.764 157.32 247.546C158.008 246.259 159.106 244.851 160.594 243.364C162.38 241.578 163.828 240.011 164.906 238.703C166.023 237.336 166.812 236.238 167.301 235.349L167.441 235.1V231.896H152.459L151.311 240.08H154.385L154.525 239.132L154.505 239.122Z" fill="#B4171E"/>
<path d="M10.3902 52.9009C9.31226 51.8229 8.71338 50.3757 8.71338 48.8485C8.71338 47.3214 9.31226 45.8741 10.3902 44.7961C11.4682 43.7181 12.9055 43.1192 14.4427 43.1192C15.9798 43.1192 17.3272 43.6782 18.3952 44.6963C19.4633 43.6782 20.8606 43.1192 22.3478 43.1192C23.8351 43.1192 25.3123 43.7181 26.4003 44.7961C27.4782 45.8741 28.0771 47.3114 28.0771 48.8485C28.0771 50.3856 27.4782 51.813 26.4003 52.9009L18.3952 60.9059L10.3902 52.9009Z" fill="#B4171E"/>
<path d="M88.8802 57.3127L101.835 44.3569C105.119 41.0731 105.119 35.7431 101.835 32.4592C98.5517 29.1754 93.2219 29.1754 89.9382 32.4592L88.8802 33.5172L87.8222 32.4592C84.5385 29.1754 79.2087 29.1754 75.925 32.4592C72.6412 35.7431 72.6412 41.0731 75.925 44.3569L88.8802 57.3127Z" fill="#B4171E"/>
<path d="M163.309 224.25C161.821 224.25 160.424 223.691 159.356 222.673C158.288 223.691 156.891 224.25 155.403 224.25C153.916 224.25 152.439 223.651 151.351 222.573C150.273 221.495 149.674 220.058 149.674 218.521C149.674 216.984 150.273 215.556 151.351 214.468L159.356 206.473L167.361 214.468C168.439 215.546 169.038 216.984 169.038 218.521C169.038 220.058 168.439 221.485 167.361 222.573C166.283 223.651 164.846 224.25 163.309 224.25Z" fill="#B4171E"/>
<path d="M88.8802 210.057L75.925 223.012C72.6412 226.296 72.6412 231.626 75.925 234.91C79.2087 238.194 84.5385 238.194 87.8222 234.91L88.8802 233.852L89.9382 234.91C93.2219 238.194 98.5517 238.194 101.835 234.91C105.119 231.626 105.119 226.296 101.835 223.012L88.8802 210.057Z" fill="#B4171E"/>
</svg>
