<svg width="178" height="267" viewBox="0 0 178 267" fill="none" xmlns="http://www.w3.org/2000/svg">
<path d="M166.771 0.359329H10.979C4.91548 0.359329 0 5.27499 0 11.3388V256.021C0 262.084 4.91548 267 10.979 267H166.771C172.835 267 177.75 262.084 177.75 256.021V11.3388C177.75 5.27499 172.835 0.359329 166.771 0.359329Z" fill="white"/>
<path d="M23.3859 9.25267H20.2717L9.6416 26.141V28.2671H18.9342V31.7406C18.9342 32.1698 18.8344 32.2795 18.8344 32.2795C18.8344 32.2795 18.6547 32.4293 17.956 32.4293H15.321V35.4835H26.6997V32.4293H24.3441C23.9548 32.4293 23.6454 32.3594 23.4857 32.2396C23.4258 32.1997 23.3759 32.03 23.3759 31.7406V28.2671H27.1189V25.2128H23.3759V9.25267H23.3859ZM18.9442 25.2128H14.0134L18.9442 17.3675V25.2128Z" fill="black"/>
<path d="M158.807 235.629C158.807 235.2 158.907 235.08 158.907 235.08C158.907 235.08 159.086 234.93 159.785 234.93H162.42V231.876H151.042V234.93H153.397C153.786 234.93 154.086 235 154.256 235.13C154.305 235.17 154.365 235.339 154.365 235.629V239.102H150.622V242.157H154.365V258.117H157.479L168.11 241.228V239.102H158.807V235.629ZM163.738 242.157L158.807 250.002V242.157H163.738Z" fill="black"/>
<path d="M18.3952 42.6202L11.0889 49.9265C9.2324 51.783 9.2324 54.7774 11.0889 56.6339C12.9454 58.4905 15.9398 58.4905 17.7964 56.6339L18.1856 56.2447V57.0032C18.1856 58.9995 16.5687 60.6265 14.5624 60.6265V61.0457H22.2081V60.6265C20.2118 60.6265 18.5849 59.0095 18.5849 57.0032V56.2447L18.9742 56.6339C20.8307 58.4905 23.8251 58.4905 25.6816 56.6339C27.5381 54.7774 27.5381 51.783 25.6816 49.9265L18.3753 42.6202H18.3952Z" fill="black"/>
<path d="M56.2925 30.0138L43.3273 42.9795C40.0436 46.2634 40.0436 51.5934 43.3273 54.8772C46.611 58.1611 51.9408 58.1611 55.2246 54.8772L55.9232 54.1785V55.526C55.9232 59.0694 53.0487 61.944 49.5055 61.944V62.6926H63.0796V61.944C59.5363 61.944 56.6518 59.0694 56.6518 55.526V54.1785L57.3505 54.8772C60.6342 58.1611 65.9641 58.1611 69.2578 54.8772C72.5415 51.5934 72.5415 46.2634 69.2578 42.9795L56.2925 30.0138Z" fill="black"/>
<path d="M57.3505 212.482L56.6518 213.181V211.833C56.6518 208.29 59.5263 205.405 63.0696 205.405V204.657H49.4955V205.405C53.0387 205.405 55.9232 208.28 55.9232 211.833V213.181L55.2245 212.482C51.9408 209.198 46.611 209.198 43.3173 212.482C40.0336 215.766 40.0336 221.096 43.3173 224.38L56.2825 237.346L69.2478 224.38C72.5315 221.096 72.5315 215.766 69.2478 212.482C65.964 209.198 60.6342 209.198 57.3505 212.482Z" fill="black"/>
<path d="M121.468 30.0138L108.503 42.9795C105.219 46.2634 105.219 51.5934 108.503 54.8772C111.786 58.1611 117.116 58.1611 120.41 54.8772L121.109 54.1785V55.526C121.109 59.0694 118.234 61.944 114.691 61.944V62.6926H128.265V61.944C124.722 61.944 121.847 59.0694 121.847 55.526V54.1785L122.546 54.8772C125.83 58.1611 131.159 58.1611 134.443 54.8772C137.727 51.5934 137.727 46.2634 134.443 42.9795L121.478 30.0138H121.468Z" fill="black"/>
<path d="M122.526 212.482L121.827 213.181V211.833C121.827 208.29 124.702 205.405 128.245 205.405V204.657H114.671V205.405C118.214 205.405 121.089 208.28 121.089 211.833V213.181L120.39 212.482C117.106 209.198 111.777 209.198 108.493 212.482C105.209 215.766 105.209 221.096 108.493 224.38L121.458 237.346L134.423 224.38C137.707 221.096 137.707 215.766 134.423 212.482C131.14 209.198 125.81 209.198 122.516 212.482H122.526Z" fill="black"/>
<path d="M158.767 210.725C156.911 208.879 153.916 208.879 152.06 210.725C150.203 212.582 150.203 215.576 152.06 217.433L159.366 224.739L166.672 217.433C168.529 215.576 168.529 212.582 166.672 210.725C164.816 208.879 161.821 208.879 159.965 210.725L159.576 211.115V210.356C159.576 208.36 161.193 206.733 163.199 206.733V206.314H155.553V206.733C157.549 206.733 159.176 208.35 159.176 210.356V211.115L158.787 210.715L158.767 210.725Z" fill="black"/>
</svg>
