<svg width="178" height="267" viewBox="0 0 178 267" fill="none" xmlns="http://www.w3.org/2000/svg">
<path d="M166.771 0.359329H10.979C4.91548 0.359329 0 5.27499 0 11.3388V256.021C0 262.084 4.91548 267 10.979 267H166.771C172.835 267 177.75 262.084 177.75 256.021V11.3388C177.75 5.27499 172.835 0.359329 166.771 0.359329Z" fill="white"/>
<path d="M15.9697 29.6445C15.9697 29.1754 15.81 28.6563 15.4806 28.0674C14.742 26.7299 12.7756 26.3007 11.3882 27.8678C10.8293 28.4866 10.5498 29.2253 10.5498 30.0637C10.5498 31.6208 11.2984 32.9982 12.7856 34.1361C14.183 35.2141 15.8599 35.753 17.7663 35.753C20.3814 35.753 22.4675 34.9645 23.9747 33.4074C25.4719 31.8603 26.2304 30.0338 26.2304 27.9876C26.2304 26.5802 25.8012 25.1729 24.9528 23.7954C24.4039 22.9071 23.5654 22.1186 22.4475 21.4598C23.0763 21.0306 23.5954 20.5315 24.0046 19.9626C24.8331 18.8048 25.2523 17.3974 25.2523 15.7804C25.2523 14.1635 24.5935 12.7062 23.276 11.3388C21.9485 9.96134 20.1917 9.26265 18.0358 9.26265C16.2292 9.26265 14.6122 9.78168 13.2148 10.7998C11.7176 11.8977 10.959 13.345 10.959 15.0917C10.959 16.1697 11.2485 16.9682 11.8274 17.4573C12.3464 17.9065 12.9553 18.136 13.5941 18.136C14.6521 18.136 15.2111 17.6469 15.4906 17.2277C15.8 16.7686 15.9597 16.1897 15.9597 15.501C15.9597 14.932 15.7501 14.423 15.4706 14.1834C15.4706 14.1834 15.4007 14.0038 15.4007 13.4249C15.4007 13.2053 15.4307 13.0256 15.8499 12.8459C17.7962 11.9875 19.1537 12.4866 19.8424 13.4448C20.4014 14.2333 20.6808 15.1317 20.6808 16.1997C20.6808 17.4773 20.3514 18.4255 19.6927 19.0942C19.0339 19.753 17.916 20.0824 16.3789 20.0824H15.271V23.2764H16.3789C18.4051 23.2764 19.8224 23.6757 20.4612 24.4143C21.1699 25.2327 21.5093 26.3107 21.5093 27.7081C21.5093 29.4648 21.1799 30.7324 20.5311 31.491C19.9123 32.2097 18.964 32.559 17.6266 32.559C16.9778 32.559 16.3989 32.4193 15.8599 32.1298C15.6403 32.01 15.4107 31.8404 15.4107 31.7206C15.4107 31.6906 15.4107 31.5509 15.5005 31.3613C15.81 30.9021 15.9697 30.3232 15.9697 29.6345V29.6445Z" fill="black"/>
<path d="M161.791 238.054C161.791 238.523 161.951 239.042 162.28 239.631C163.029 240.969 164.985 241.398 166.373 239.831C166.922 239.212 167.211 238.473 167.211 237.635C167.211 236.068 166.463 234.7 164.975 233.563C163.578 232.485 161.901 231.946 159.995 231.946C157.38 231.946 155.293 232.734 153.786 234.291C152.289 235.838 151.531 237.665 151.531 239.711C151.531 241.118 151.96 242.526 152.808 243.903C153.357 244.792 154.196 245.58 155.313 246.239C154.685 246.658 154.166 247.167 153.756 247.736C152.928 248.894 152.509 250.301 152.509 251.918C152.509 253.535 153.167 254.992 154.485 256.36C155.812 257.737 157.569 258.436 159.725 258.436C161.532 258.436 163.149 257.917 164.546 256.909C166.043 255.811 166.802 254.364 166.802 252.617C166.802 251.539 166.502 250.74 165.924 250.251C165.405 249.802 164.796 249.563 164.157 249.563C163.099 249.563 162.54 250.052 162.26 250.471C161.951 250.93 161.801 251.509 161.801 252.198C161.801 252.767 162.011 253.276 162.29 253.515C162.29 253.515 162.36 253.695 162.36 254.274C162.36 254.493 162.33 254.673 161.911 254.853C159.965 255.711 158.607 255.212 157.919 254.254C157.36 253.465 157.08 252.567 157.08 251.499C157.08 250.221 157.41 249.273 158.078 248.604C158.747 247.936 159.845 247.606 161.382 247.606H162.49V244.412H161.382C159.356 244.412 157.939 244.013 157.3 243.274C156.591 242.456 156.252 241.378 156.252 239.981C156.252 238.224 156.581 236.956 157.23 236.188C157.849 235.469 158.797 235.12 160.134 235.12C160.783 235.12 161.362 235.259 161.901 235.549C162.121 235.669 162.35 235.838 162.35 235.958C162.35 235.988 162.35 236.128 162.26 236.317C161.951 236.777 161.801 237.356 161.801 238.044L161.791 238.054Z" fill="black"/>
<path d="M18.3952 42.6202L11.0889 49.9265C9.2324 51.783 9.2324 54.7774 11.0889 56.6339C12.9454 58.4905 15.9398 58.4905 17.7964 56.6339L18.1856 56.2447V57.0032C18.1856 58.9995 16.5687 60.6265 14.5624 60.6265V61.0457H22.2081V60.6265C20.2118 60.6265 18.5849 59.0095 18.5849 57.0032V56.2447L18.9742 56.6339C20.8307 58.4905 23.8251 58.4905 25.6816 56.6339C27.5381 54.7774 27.5381 51.783 25.6816 49.9265L18.3753 42.6202H18.3952Z" fill="black"/>
<path d="M88.8802 30.0138L75.9149 42.9795C72.6312 46.2634 72.6312 51.5934 75.9149 54.8772C79.1987 58.1611 84.5285 58.1611 87.8222 54.8772L88.5209 54.1785V55.526C88.5209 59.0694 85.6464 61.944 82.1031 61.944V62.6926H95.6772V61.944C92.134 61.944 89.2595 59.0694 89.2595 55.526V54.1785L89.9581 54.8772C93.2418 58.1611 98.5717 58.1611 101.855 54.8772C105.139 51.5934 105.139 46.2634 101.855 42.9795L88.8902 30.0138H88.8802Z" fill="black"/>
<path d="M88.8802 117.34L75.9149 130.306C72.6312 133.59 72.6312 138.92 75.9149 142.204C79.1987 145.488 84.5285 145.488 87.8222 142.204L88.5209 141.505V142.852C88.5209 146.396 85.6464 149.28 82.1031 149.28V150.029H95.6772V149.28C92.134 149.28 89.2595 146.406 89.2595 142.852V141.505L89.9581 142.204C93.2418 145.488 98.5717 145.488 101.855 142.204C105.139 138.92 105.139 133.59 101.855 130.306L88.8902 117.34H88.8802Z" fill="black"/>
<path d="M89.9382 212.482L89.2396 213.181V211.833C89.2396 208.29 92.1141 205.405 95.6573 205.405V204.657H82.0833V205.405C85.6265 205.405 88.501 208.28 88.501 211.833V213.181L87.8023 212.482C84.5186 209.198 79.1888 209.198 75.9051 212.482C72.6213 215.766 72.6213 221.096 75.9051 224.38L88.8703 237.346L101.836 224.38C105.119 221.096 105.119 215.766 101.836 212.482C98.5518 209.198 93.222 209.198 89.9283 212.482H89.9382Z" fill="black"/>
<path d="M159.955 210.725L159.566 211.115V210.356C159.566 208.36 161.183 206.733 163.189 206.733V206.314H155.543V206.733C157.539 206.733 159.166 208.35 159.166 210.356V211.115L158.777 210.715C156.921 208.869 153.926 208.869 152.07 210.715C150.213 212.572 150.213 215.566 152.07 217.423L159.376 224.729L166.682 217.423C168.539 215.566 168.539 212.572 166.682 210.715C164.826 208.869 161.831 208.869 159.975 210.715L159.955 210.725Z" fill="black"/>
</svg>
