<svg width="178" height="267" viewBox="0 0 178 267" fill="none" xmlns="http://www.w3.org/2000/svg">
<path d="M166.771 0.359329H10.979C4.91548 0.359329 0 5.27499 0 11.3388V256.021C0 262.084 4.91548 267 10.979 267H166.771C172.835 267 177.75 262.084 177.75 256.021V11.3388C177.75 5.27499 172.835 0.359329 166.771 0.359329Z" fill="white"/>
<path d="M20.2717 13.6944C20.2717 14.4629 20.5012 15.0818 20.9404 15.5209C21.9086 16.4891 23.9647 16.3893 24.8032 15.3812C25.2024 14.8921 25.402 14.2433 25.402 13.4249C25.402 12.5465 24.903 11.6482 23.8749 10.67C22.8768 9.73177 21.5792 9.25267 19.9922 9.25267C16.9379 9.25267 14.4825 10.5602 12.6958 13.1254C10.999 15.5708 10.1406 19.0743 10.1406 23.5459C10.1406 27.3687 10.8593 30.3532 12.2766 32.4293C13.7838 34.6351 16.0096 35.763 18.8843 35.763C20.9404 35.763 22.767 34.9745 24.3141 33.4274C25.8612 31.8803 26.6497 29.5347 26.6497 26.4704C26.6497 24.4143 26.1007 22.5178 25.0128 20.8609C23.825 19.0543 21.8986 18.136 19.2935 18.136C17.976 18.136 16.7283 18.4954 15.5904 19.204C15.4207 19.3038 15.261 19.4236 15.1013 19.5334C15.3409 16.2795 15.9198 14.8222 16.4288 14.1635C17.3272 13.0056 18.3552 12.4467 19.573 12.4467C20.2118 12.4467 20.4114 12.5565 20.4014 12.5864V12.9158C20.3116 13.1653 20.2617 13.4348 20.2617 13.6944H20.2717ZM16.9379 22.448C18.3053 21.5097 19.9423 21.3101 21.1201 22.8372C21.7489 23.6557 22.0683 24.8734 22.0683 26.4604C22.0683 29.6046 21.5792 30.9321 21.17 31.501C20.641 32.2296 19.9123 32.569 18.8743 32.569C17.8362 32.569 17.0377 31.9901 16.2691 30.7923C15.4407 29.4948 15.0115 27.6083 14.9915 25.1729C15.6104 23.8254 16.2691 22.9071 16.9379 22.448Z" fill="black"/>
<path d="M158.877 231.606C156.821 231.606 154.994 232.395 153.447 233.942C151.9 235.489 151.111 237.835 151.111 240.899C151.111 242.965 151.66 244.851 152.748 246.508C153.936 248.315 155.862 249.223 158.468 249.223C159.785 249.223 161.033 248.864 162.181 248.155C162.35 248.045 162.51 247.936 162.67 247.826C162.43 251.08 161.851 252.547 161.342 253.196C160.444 254.354 159.416 254.913 158.198 254.913C157.549 254.913 157.36 254.803 157.37 254.773V254.444C157.459 254.194 157.509 253.924 157.509 253.665C157.509 252.896 157.28 252.278 156.841 251.838C155.872 250.87 153.816 250.97 152.978 251.978C152.579 252.457 152.379 253.116 152.379 253.934C152.379 254.813 152.878 255.711 153.906 256.689C154.904 257.628 156.212 258.107 157.789 258.107C160.843 258.107 163.299 256.799 165.085 254.234C166.782 251.788 167.64 248.285 167.64 243.813C167.64 239.991 166.922 237.006 165.504 234.93C163.997 232.724 161.771 231.596 158.897 231.596L158.877 231.606ZM160.813 244.911C159.446 245.85 157.809 246.049 156.631 244.522C156.002 243.704 155.683 242.486 155.683 240.899C155.683 237.755 156.172 236.427 156.581 235.858C157.11 235.13 157.839 234.79 158.877 234.79C159.915 234.79 160.723 235.369 161.482 236.567C162.31 237.865 162.74 239.751 162.76 242.186C162.141 243.534 161.482 244.452 160.813 244.901V244.911Z" fill="black"/>
<path d="M18.3952 42.6202L11.0889 49.9265C9.2324 51.783 9.2324 54.7774 11.0889 56.6339C12.9454 58.4905 15.9398 58.4905 17.7964 56.6339L18.1856 56.2447V57.0032C18.1856 58.9995 16.5687 60.6265 14.5624 60.6265V61.0457H22.2081V60.6265C20.2118 60.6265 18.5849 59.0095 18.5849 57.0032V56.2447L18.9742 56.6339C20.8307 58.4905 23.8251 58.4905 25.6816 56.6339C27.5381 54.7774 27.5381 51.783 25.6816 49.9265L18.3753 42.6202H18.3952Z" fill="black"/>
<path d="M56.2925 30.0138L43.3273 42.9795C40.0436 46.2634 40.0436 51.5934 43.3273 54.8772C46.611 58.1611 51.9408 58.1611 55.2346 54.8772L55.9332 54.1785V55.526C55.9332 59.0694 53.0587 61.944 49.5155 61.944V62.6926H63.0895V61.944C59.5463 61.944 56.6718 59.0694 56.6718 55.526V54.1785L57.3705 54.8772C60.6542 58.1611 65.984 58.1611 69.2677 54.8772C72.5515 51.5934 72.5515 46.2634 69.2677 42.9795L56.3025 30.0138H56.2925Z" fill="black"/>
<path d="M57.3505 212.482L56.6518 213.181V211.833C56.6518 208.29 59.5263 205.405 63.0696 205.405V204.657H49.4955V205.405C53.0387 205.405 55.9132 208.28 55.9132 211.833V213.181L55.2146 212.482C51.9308 209.198 46.601 209.198 43.3173 212.482C40.0336 215.766 40.0336 221.096 43.3173 224.38L56.2825 237.346L69.2478 224.38C72.5315 221.096 72.5315 215.766 69.2478 212.482C65.964 209.198 60.6342 209.198 57.3405 212.482H57.3505Z" fill="black"/>
<path d="M121.468 30.0138L108.503 42.9795C105.219 46.2634 105.219 51.5934 108.503 54.8772C111.787 58.1611 117.116 58.1611 120.4 54.8772L121.099 54.1785V55.526C121.099 59.0694 118.224 61.944 114.681 61.944V62.6926H128.255V61.944C124.712 61.944 121.827 59.0694 121.827 55.526V54.1785L122.526 54.8772C125.81 58.1611 131.14 58.1611 134.433 54.8772C137.717 51.5934 137.717 46.2634 134.433 42.9795L121.468 30.0138Z" fill="black"/>
<path d="M56.2925 117.34L43.3273 130.306C40.0436 133.59 40.0436 138.92 43.3273 142.204C46.611 145.488 51.9408 145.488 55.2346 142.204L55.9332 141.505V142.852C55.9332 146.396 53.0587 149.28 49.5155 149.28V150.029H63.0895V149.28C59.5463 149.28 56.6718 146.406 56.6718 142.852V141.505L57.3705 142.204C60.6542 145.488 65.984 145.488 69.2677 142.204C72.5515 138.92 72.5515 133.59 69.2677 130.306L56.3025 117.34H56.2925Z" fill="black"/>
<path d="M121.468 117.34L108.503 130.306C105.219 133.59 105.219 138.92 108.503 142.204C111.787 145.488 117.116 145.488 120.4 142.204L121.099 141.505V142.852C121.099 146.396 118.224 149.28 114.681 149.28V150.029H128.255V149.28C124.712 149.28 121.827 146.406 121.827 142.852V141.505L122.526 142.204C125.81 145.488 131.14 145.488 134.433 142.204C137.717 138.92 137.717 133.59 134.433 130.306L121.468 117.34Z" fill="black"/>
<path d="M122.526 212.482L121.827 213.181V211.833C121.827 208.29 124.702 205.405 128.245 205.405V204.657H114.671V205.405C118.214 205.405 121.099 208.28 121.099 211.833V213.181L120.4 212.482C117.116 209.198 111.787 209.198 108.503 212.482C105.219 215.766 105.219 221.096 108.503 224.38L121.468 237.346L134.433 224.38C137.717 221.096 137.717 215.766 134.433 212.482C131.15 209.198 125.82 209.198 122.536 212.482H122.526Z" fill="black"/>
<path d="M159.955 210.725L159.566 211.115V210.356C159.566 208.36 161.183 206.733 163.189 206.733V206.314H155.543V206.733C157.539 206.733 159.166 208.35 159.166 210.356V211.115L158.777 210.715C156.921 208.869 153.926 208.869 152.07 210.715C150.213 212.572 150.213 215.566 152.07 217.423L159.376 224.729L166.682 217.423C168.539 215.566 168.539 212.572 166.682 210.715C164.826 208.869 161.831 208.869 159.975 210.715L159.955 210.725Z" fill="black"/>
</svg>
