<svg width="178" height="267" viewBox="0 0 178 267" fill="none" xmlns="http://www.w3.org/2000/svg">
<path d="M166.771 0.359329H10.979C4.91548 0.359329 0 5.27499 0 11.3388V256.021C0 262.084 4.91548 267 10.979 267H166.771C172.835 267 177.75 262.084 177.75 256.021V11.3388C177.75 5.27499 172.835 0.359329 166.771 0.359329Z" fill="white"/>
<path d="M16.4792 32.569H14.1736C13.6446 32.569 13.2653 32.4592 13.0157 32.2596C12.9459 32.1997 12.7662 32.04 12.7662 31.4611V9.25267H10.6003L10.3208 9.87151C10.0712 10.4005 9.73188 10.7898 9.28273 11.0493C8.79364 11.3288 8.11491 11.4785 7.2665 11.4785H5.09058V14.5328H8.41435C8.604 14.5328 8.66388 14.5727 8.67387 14.6725V31.4611C8.67387 31.8703 8.59402 32.1498 8.4443 32.2995C8.35446 32.3794 8.07499 32.579 7.2665 32.579H5.09058V35.6333H16.4693V32.579L16.4792 32.569Z" fill="black"/>
<path d="M24.1441 9.39241C21.8085 9.39241 19.9021 10.69 18.4747 13.2552C17.1472 15.6407 16.4685 18.7748 16.4685 22.5677C16.4685 26.6501 17.1672 29.894 18.5546 32.1897C20.0219 34.6451 21.9083 35.8828 24.1441 35.8828C26.3799 35.8828 28.2564 34.6052 29.6838 32.0899C31.0113 29.7443 31.69 26.5403 31.69 22.5578C31.69 18.5752 31.0113 15.3812 29.6838 13.0855C28.2564 10.6201 26.3899 9.37245 24.1441 9.37245V9.39241ZM26.2103 30.3432C25.3818 32.559 24.4536 32.559 24.1541 32.559C23.4055 32.559 22.7068 31.8005 22.078 30.2933C21.3294 28.5066 20.9501 25.9115 20.9501 22.5677C20.9501 19.4037 21.3294 16.8684 22.078 15.0319C22.7068 13.4848 23.4055 12.7062 24.1441 12.7062C24.7131 12.7062 25.5615 12.9358 26.2502 14.962C26.889 16.8185 27.2084 19.3737 27.2084 22.5578C27.2084 25.9115 26.869 28.5266 26.2003 30.3332L26.2103 30.3432Z" fill="black"/>
<path d="M161.282 234.8H163.588C164.117 234.8 164.496 234.91 164.736 235.11C164.805 235.17 164.985 235.329 164.985 235.908V258.117H167.151L167.43 257.498C167.68 256.959 168.019 256.58 168.469 256.32C168.958 256.041 169.636 255.891 170.485 255.891H172.661V252.837H169.337C169.147 252.837 169.087 252.797 169.077 252.697V235.908C169.077 235.499 169.157 235.22 169.307 235.07C169.397 234.99 169.676 234.8 170.485 234.8H172.661V231.746H161.282V234.8Z" fill="black"/>
<path d="M153.607 231.467C151.361 231.467 149.495 232.744 148.067 235.259C146.74 237.605 146.061 240.809 146.061 244.792C146.061 248.774 146.74 251.958 148.077 254.264C149.505 256.729 151.371 257.977 153.607 257.977C155.843 257.977 157.849 256.679 159.276 254.114C160.604 251.729 161.283 248.594 161.283 244.802C161.283 240.709 160.584 237.475 159.196 235.18C157.719 232.724 155.843 231.487 153.607 231.487V231.467ZM155.673 252.327C155.044 253.865 154.346 254.643 153.607 254.643C153.038 254.643 152.19 254.414 151.501 252.387C150.862 250.531 150.543 247.976 150.543 244.792C150.543 241.438 150.882 238.823 151.551 237.016C152.379 234.8 153.307 234.8 153.607 234.8C154.356 234.8 155.054 235.559 155.683 237.066C156.432 238.853 156.811 241.448 156.811 244.792C156.811 247.956 156.432 250.491 155.683 252.327H155.673Z" fill="black"/>
<path d="M18.3952 42.6202L11.0889 49.9265C9.2324 51.783 9.2324 54.7774 11.0889 56.6339C12.9454 58.4905 15.9398 58.4905 17.7964 56.6339L18.1856 56.2447V57.0032C18.1856 58.9995 16.5687 60.6265 14.5624 60.6265V61.0457H22.2081V60.6265C20.2118 60.6265 18.5849 59.0095 18.5849 57.0032V56.2447L18.9742 56.6339C20.8307 58.4905 23.8251 58.4905 25.6816 56.6339C27.5381 54.7774 27.5381 51.783 25.6816 49.9265L18.3753 42.6202H18.3952Z" fill="black"/>
<path d="M56.2925 30.0138L43.3273 42.9795C40.0436 46.2634 40.0436 51.5934 43.3273 54.8772C46.611 58.1611 51.9408 58.1611 55.2246 54.8772L55.9232 54.1785V55.526C55.9232 59.0694 53.0487 61.944 49.5055 61.944V62.6926H63.0796V61.944C59.5363 61.944 56.6518 59.0694 56.6518 55.526V54.1785L57.3505 54.8772C60.6342 58.1611 65.9641 58.1611 69.2478 54.8772C72.5315 51.5934 72.5315 46.2634 69.2478 42.9795L56.2826 30.0138H56.2925Z" fill="black"/>
<path d="M57.3505 212.482L56.6518 213.181V211.833C56.6518 208.29 59.5263 205.405 63.0696 205.405V204.657H49.4955V205.405C53.0387 205.405 55.9132 208.28 55.9132 211.833V213.181L55.2146 212.482C51.9308 209.198 46.601 209.198 43.3173 212.482C40.0336 215.766 40.0336 221.096 43.3173 224.38L56.2825 237.346L69.2478 224.38C72.5315 221.096 72.5315 215.766 69.2478 212.482C65.964 209.198 60.6342 209.198 57.3405 212.482H57.3505Z" fill="black"/>
<path d="M121.468 30.0138L108.503 42.9795C105.219 46.2634 105.219 51.5934 108.503 54.8772C111.787 58.1611 117.116 58.1611 120.4 54.8772L121.099 54.1785V55.526C121.099 59.0694 118.224 61.944 114.681 61.944V62.6926H128.255V61.944C124.712 61.944 121.827 59.0694 121.827 55.526V54.1785L122.526 54.8772C125.81 58.1611 131.14 58.1611 134.433 54.8772C137.717 51.5934 137.717 46.2634 134.433 42.9795L121.468 30.0138Z" fill="black"/>
<path d="M56.2925 88.9834L43.3273 101.949C40.0436 105.233 40.0436 110.563 43.3273 113.847C46.611 117.131 51.9408 117.131 55.2246 113.847L55.9232 113.148V114.496C55.9232 118.039 53.0487 120.924 49.5055 120.924V121.672H63.0796V120.924C59.5363 120.924 56.6518 118.049 56.6518 114.496V113.148L57.3505 113.847C60.6342 117.131 65.9641 117.131 69.2478 113.847C72.5315 110.563 72.5315 105.233 69.2478 101.949L56.2826 88.9834H56.2925Z" fill="black"/>
<path d="M121.468 88.9834L108.503 101.949C105.219 105.233 105.219 110.563 108.503 113.847C111.787 117.131 117.116 117.131 120.4 113.847L121.099 113.148V114.496C121.099 118.039 118.224 120.924 114.681 120.924V121.672H128.255V120.924C124.712 120.924 121.827 118.049 121.827 114.496V113.148L122.526 113.847C125.81 117.131 131.14 117.131 134.433 113.847C137.717 110.563 137.717 105.233 134.433 101.949L121.468 88.9834Z" fill="black"/>
<path d="M88.8802 59.4986L75.9149 72.4643C72.6312 75.7481 72.6312 81.0782 75.9149 84.362C79.1987 87.6459 84.5285 87.6459 87.8122 84.362L88.5109 83.6633V85.0108C88.5109 88.5542 85.6364 91.4388 82.0931 91.4388V92.1774H95.6672V91.4388C92.124 91.4388 89.2395 88.5641 89.2395 85.0108V83.6633L89.9382 84.362C93.2219 87.6459 98.5517 87.6459 101.845 84.362C105.129 81.0782 105.129 75.7481 101.845 72.4643L88.8802 59.4986Z" fill="black"/>
<path d="M89.9381 182.997L89.2395 183.696V182.349C89.2395 178.805 92.114 175.931 95.6572 175.931V175.182H82.0831V175.931C85.6264 175.931 88.5009 178.805 88.5009 182.349V183.696L87.8022 182.997C84.5185 179.713 79.1887 179.713 75.9049 182.997C72.6212 186.281 72.6212 191.611 75.9049 194.905L88.8702 207.871L101.835 194.905C105.119 191.621 105.119 186.291 101.835 182.997C98.5517 179.713 93.2219 179.713 89.9281 182.997H89.9381Z" fill="black"/>
<path d="M122.526 212.482L121.827 213.181V211.833C121.827 208.29 124.702 205.405 128.245 205.405V204.657H114.671V205.405C118.214 205.405 121.099 208.28 121.099 211.833V213.181L120.4 212.482C117.116 209.198 111.787 209.198 108.493 212.482C105.209 215.766 105.209 221.096 108.493 224.38L121.458 237.346L134.423 224.38C137.707 221.096 137.707 215.766 134.423 212.482C131.14 209.198 125.81 209.198 122.526 212.482Z" fill="black"/>
<path d="M57.3505 155.788L56.6518 156.487V155.139C56.6518 151.596 59.5263 148.712 63.0696 148.712V147.973H49.4955V148.712C53.0387 148.712 55.9132 151.586 55.9132 155.139V156.487L55.2146 155.788C51.9308 152.504 46.601 152.504 43.3173 155.788C40.0336 159.072 40.0336 164.402 43.3173 167.686L56.2825 180.652L69.2478 167.686C72.5315 164.402 72.5315 159.072 69.2478 155.788C65.964 152.504 60.6342 152.504 57.3405 155.788H57.3505Z" fill="black"/>
<path d="M122.526 155.788L121.827 156.487V155.139C121.827 151.596 124.702 148.712 128.245 148.712V147.973H114.671V148.712C118.214 148.712 121.099 151.586 121.099 155.139V156.487L120.4 155.788C117.116 152.504 111.787 152.504 108.493 155.788C105.209 159.072 105.209 164.402 108.493 167.686L121.458 180.652L134.423 167.686C137.707 164.402 137.707 159.072 134.423 155.788C131.14 152.504 125.81 152.504 122.526 155.788Z" fill="black"/>
<path d="M163.189 206.743V206.324H155.543V206.743C157.539 206.743 159.166 208.36 159.166 210.366V211.125L158.777 210.725C156.921 208.879 153.926 208.879 152.07 210.725C150.213 212.582 150.213 215.576 152.07 217.433L159.376 224.739L166.682 217.433C168.539 215.576 168.539 212.582 166.682 210.725C164.826 208.879 161.831 208.879 159.975 210.725L159.586 211.115V210.356C159.586 208.36 161.203 206.733 163.209 206.733L163.189 206.743Z" fill="black"/>
</svg>
