<svg width="178" height="267" viewBox="0 0 178 267" fill="none" xmlns="http://www.w3.org/2000/svg">
<path d="M166.771 0.359329H10.979C4.91548 0.359329 0 5.27499 0 11.3388V256.021C0 262.084 4.91548 267 10.979 267H166.771C172.835 267 177.75 262.084 177.75 256.021V11.3388C177.75 5.27499 172.835 0.359329 166.771 0.359329Z" fill="white"/>
<path d="M26.1506 11.9177L26.3203 11.6482V9.25267H11.7775L10.47 17.108L13.4444 17.607L13.664 16.569C13.8936 15.481 14.2529 14.6725 14.712 14.1834C15.1013 13.7642 15.6203 13.5646 16.329 13.5646H21.3895C18.4351 19.0144 16.6284 22.8672 15.8898 25.3126C15.0714 27.9976 14.6621 30.3032 14.6621 32.1598C14.6621 33.3076 14.9316 34.1361 15.4706 34.6751C15.9996 35.2041 16.6783 35.4835 17.4369 35.4835C18.3352 35.4835 19.014 35.2141 19.4731 34.6651C19.8823 34.166 20.072 33.4573 20.072 32.4293V29.7742C19.9822 29.1953 19.9323 28.7362 19.9323 28.4068C19.9323 26.3307 20.4912 23.8254 21.5891 20.9607C22.717 18.0262 24.2542 14.9819 26.1406 11.9177H26.1506Z" fill="black"/>
<path d="M164.087 250.8C163.857 251.888 163.498 252.697 163.039 253.186C162.65 253.605 162.131 253.805 161.422 253.805H156.361C159.316 248.355 161.123 244.502 161.861 242.057C162.68 239.372 163.089 237.066 163.089 235.21C163.089 234.062 162.819 233.233 162.28 232.694C161.751 232.165 161.073 231.886 160.314 231.886C159.416 231.886 158.737 232.155 158.278 232.704C157.869 233.203 157.679 233.912 157.679 234.94V237.595C157.769 238.174 157.819 238.633 157.819 238.963C157.819 241.039 157.26 243.544 156.162 246.409C155.034 249.343 153.497 252.377 151.61 255.452L151.441 255.721V258.117H165.983L167.291 250.261L164.317 249.762L164.097 250.8H164.087Z" fill="black"/>
<path d="M18.3952 42.6202L11.0889 49.9265C9.2324 51.783 9.2324 54.7774 11.0889 56.6339C12.9454 58.4905 15.9398 58.4905 17.7964 56.6339L18.1856 56.2447V57.0032C18.1856 58.9995 16.5687 60.6265 14.5624 60.6265V61.0457H22.2081V60.6265C20.2118 60.6265 18.5849 59.0095 18.5849 57.0032V56.2447L18.9742 56.6339C20.8307 58.4905 23.8251 58.4905 25.6816 56.6339C27.5381 54.7774 27.5381 51.783 25.6816 49.9265L18.3753 42.6202H18.3952Z" fill="black"/>
<path d="M56.2925 30.0138L43.3273 42.9795C40.0436 46.2634 40.0436 51.5934 43.3273 54.8772C46.611 58.1611 51.9408 58.1611 55.2246 54.8772L55.9232 54.1785V55.526C55.9232 59.0694 53.0487 61.944 49.5055 61.944V62.6926H63.0796V61.944C59.5363 61.944 56.6518 59.0694 56.6518 55.526V54.1785L57.3505 54.8772C60.6342 58.1611 65.9641 58.1611 69.2478 54.8772C72.5315 51.5934 72.5315 46.2634 69.2478 42.9795L56.2826 30.0138H56.2925Z" fill="black"/>
<path d="M57.3505 212.482L56.6518 213.181V211.833C56.6518 208.29 59.5264 205.405 63.0696 205.405V204.657H49.4955V205.405C53.0387 205.405 55.9232 208.28 55.9232 211.833V213.181L55.2246 212.482C51.9408 209.198 46.611 209.198 43.3273 212.482C40.0436 215.766 40.0436 221.096 43.3273 224.38L56.2925 237.346L69.2578 224.38C72.5415 221.096 72.5415 215.766 69.2578 212.482C65.974 209.198 60.6442 209.198 57.3605 212.482H57.3505Z" fill="black"/>
<path d="M121.468 30.0138L108.503 42.9795C105.219 46.2634 105.219 51.5934 108.503 54.8772C111.787 58.1611 117.116 58.1611 120.4 54.8772L121.099 54.1785V55.526C121.099 59.0694 118.224 61.944 114.681 61.944V62.6926H128.255V61.944C124.712 61.944 121.827 59.0694 121.827 55.526V54.1785L122.526 54.8772C125.81 58.1611 131.14 58.1611 134.423 54.8772C137.707 51.5934 137.707 46.2634 134.423 42.9795L121.458 30.0138H121.468Z" fill="black"/>
<path d="M88.8802 73.672L75.9149 86.6378C72.6312 89.9216 72.6312 95.2516 75.9149 98.5455C79.1987 101.829 84.5285 101.829 87.8122 98.5455L88.5109 97.8468V99.1942C88.5109 102.738 85.6364 105.622 82.0931 105.622V106.371H95.6672V105.622C92.124 105.622 89.2395 102.748 89.2395 99.1942V97.8468L89.9382 98.5455C93.2219 101.829 98.5517 101.829 101.835 98.5455C105.119 95.2616 105.119 89.9316 101.835 86.6378L88.8702 73.672H88.8802Z" fill="black"/>
<path d="M56.2925 117.34L43.3273 130.306C40.0436 133.59 40.0436 138.92 43.3273 142.204C46.611 145.488 51.9408 145.488 55.2246 142.204L55.9232 141.505V142.852C55.9232 146.396 53.0487 149.28 49.5055 149.28V150.029H63.0796V149.28C59.5363 149.28 56.6518 146.406 56.6518 142.852V141.505L57.3505 142.204C60.6342 145.488 65.9641 145.488 69.2478 142.204C72.5315 138.92 72.5315 133.59 69.2478 130.306L56.2826 117.34H56.2925Z" fill="black"/>
<path d="M121.468 117.34L108.503 130.306C105.219 133.59 105.219 138.92 108.503 142.204C111.787 145.488 117.116 145.488 120.4 142.204L121.099 141.505V142.852C121.099 146.396 118.224 149.28 114.681 149.28V150.029H128.255V149.28C124.712 149.28 121.827 146.406 121.827 142.852V141.505L122.526 142.204C125.81 145.488 131.14 145.488 134.423 142.204C137.707 138.92 137.707 133.59 134.423 130.306L121.458 117.34H121.468Z" fill="black"/>
<path d="M122.526 212.482L121.827 213.181V211.833C121.827 208.29 124.702 205.405 128.245 205.405V204.657H114.671V205.405C118.214 205.405 121.099 208.28 121.099 211.833V213.181L120.4 212.482C117.116 209.198 111.787 209.198 108.503 212.482C105.219 215.766 105.219 221.096 108.503 224.38L121.468 237.346L134.433 224.38C137.717 221.096 137.717 215.766 134.433 212.482C131.15 209.198 125.82 209.198 122.526 212.482Z" fill="black"/>
<path d="M159.955 210.725L159.566 211.115V210.356C159.566 208.36 161.183 206.733 163.189 206.733V206.314H155.543V206.733C157.539 206.733 159.166 208.35 159.166 210.356V211.115L158.777 210.715C156.921 208.869 153.926 208.869 152.07 210.715C150.213 212.572 150.213 215.566 152.07 217.423L159.376 224.729L166.682 217.423C168.539 215.566 168.539 212.572 166.682 210.715C164.826 208.869 161.831 208.869 159.975 210.715L159.955 210.725Z" fill="black"/>
</svg>
