<svg width="178" height="267" viewBox="0 0 178 267" fill="none" xmlns="http://www.w3.org/2000/svg">
<path d="M166.771 0.359329H10.979C4.91548 0.359329 0 5.27499 0 11.3388V256.021C0 262.084 4.91548 267 10.979 267H166.771C172.835 267 177.75 262.084 177.75 256.021V11.3388C177.75 5.27499 172.835 0.359329 166.771 0.359329Z" fill="white"/>
<path d="M18.3952 42.6202L11.0889 49.9265C9.2324 51.783 9.2324 54.7774 11.0889 56.6339C12.9454 58.4905 15.9398 58.4905 17.7964 56.6339L18.1856 56.2447V57.0032C18.1856 58.9995 16.5687 60.6265 14.5624 60.6265V61.0457H22.2081V60.6265C20.2118 60.6265 18.5849 59.0095 18.5849 57.0032V56.2447L18.9742 56.6339C20.8307 58.4905 23.8251 58.4905 25.6816 56.6339C27.5381 54.7774 27.5381 51.783 25.6816 49.9265L18.3753 42.6202H18.3952Z" fill="black"/>
<path d="M22.4576 23.5259C23.6753 22.418 24.5736 21.2203 25.1425 19.9726C25.7115 18.715 26.0009 17.4473 26.0009 16.1797C26.0009 14.2333 25.3621 12.5665 24.0945 11.2489C22.8169 9.92142 20.8905 9.24269 18.3652 9.24269C16.5586 9.24269 14.8418 9.83159 13.2648 10.9894C11.5879 12.2271 10.7295 14.0237 10.7295 16.3294C10.7295 17.3775 10.999 18.176 11.538 18.705C11.9073 19.0743 12.5761 19.5135 13.6441 19.5135C14.4126 19.5135 15.0215 19.2839 15.4706 18.8447C15.9198 18.3955 16.1394 17.7867 16.1394 17.0181C16.1394 16.3993 15.9198 15.8104 15.4008 15.1217C15.2411 14.962 15.1712 14.7823 15.1712 14.5228C15.1712 13.9439 15.4008 13.5047 15.9198 13.1154C16.5087 12.6663 17.2174 12.4367 18.0857 12.4367C19.2336 12.4367 20.0421 12.7361 20.5611 13.365C21.13 14.0337 21.4095 15.0818 21.4095 16.4692C21.4095 17.4873 21.0801 18.6151 20.4313 19.8329C19.7426 21.1204 18.6447 22.5278 17.1575 24.015C15.3708 25.8017 13.9235 27.3687 12.8555 28.6763C11.7376 30.0437 10.9491 31.1417 10.45 32.03L10.3103 32.2796V35.4835H25.2922L26.4401 27.2989H23.3659L23.2261 28.2471C23.0664 29.3251 22.7869 30.1136 22.3677 30.5927C22.0184 30.992 21.6391 31.1816 21.13 31.1816H15.1213C15.4407 30.8023 15.8399 30.3332 16.339 29.7643C17.7663 28.1573 19.8225 26.0512 22.4376 23.5359L22.4576 23.5259Z" fill="black"/>
<path d="M88.8802 30.0138L75.9149 42.9795C72.6312 46.2634 72.6312 51.5934 75.9149 54.8772C79.1987 58.1611 84.5285 58.1611 87.8222 54.8772L88.5209 54.1785V55.526C88.5209 59.0694 85.6464 61.944 82.1031 61.944V62.6926H95.6772V61.944C92.134 61.944 89.2595 59.0694 89.2595 55.526V54.1785L89.9581 54.8772C93.2418 58.1611 98.5717 58.1611 101.855 54.8772C105.139 51.5934 105.139 46.2634 101.855 42.9795L88.8902 30.0138H88.8802Z" fill="black"/>
<path d="M89.9382 212.482L89.2396 213.181V211.833C89.2396 208.29 92.1141 205.405 95.6573 205.405V204.657H82.0833V205.405C85.6265 205.405 88.501 208.28 88.501 211.833V213.181L87.8023 212.482C84.5186 209.198 79.1888 209.198 75.9051 212.482C72.6213 215.766 72.6213 221.096 75.9051 224.38L88.8703 237.346L101.836 224.38C105.119 221.096 105.119 215.766 101.836 212.482C98.5518 209.198 93.222 209.198 89.9283 212.482H89.9382Z" fill="black"/>
<path d="M151.301 240.07H154.375L154.515 239.122C154.615 238.433 154.774 237.875 154.974 237.425C155.094 237.176 155.214 236.946 155.363 236.767C155.533 236.567 155.713 236.417 155.922 236.327C156.122 236.228 156.351 236.188 156.601 236.188H162.61C162.29 236.567 161.891 237.036 161.392 237.605C159.965 239.212 157.909 241.318 155.293 243.833C154.994 244.113 154.705 244.392 154.445 244.682C153.916 245.261 153.467 245.85 153.098 246.458C152.918 246.768 152.748 247.067 152.609 247.377C152.409 247.816 152.259 248.255 152.119 248.694C151.99 249.133 151.89 249.583 151.83 250.022C151.78 250.401 151.74 250.79 151.74 251.17C151.74 252.148 151.9 253.046 152.219 253.875C152.459 254.493 152.788 255.062 153.197 255.591C153.337 255.771 153.487 255.941 153.647 256.1C153.966 256.43 154.325 256.729 154.725 256.979C155.523 257.478 156.481 257.817 157.589 257.987C158.148 258.077 158.737 258.117 159.366 258.117C160.264 258.117 161.153 257.967 162.001 257.677C162.849 257.388 163.678 256.949 164.466 256.37C164.886 256.06 165.255 255.721 165.574 255.342C166.053 254.773 166.403 254.134 166.642 253.415C166.722 253.176 166.792 252.926 166.842 252.677C166.952 252.168 167.002 251.619 167.002 251.04C167.002 250.521 166.932 250.062 166.802 249.662C166.672 249.263 166.463 248.934 166.193 248.664C166.013 248.485 165.754 248.275 165.405 248.115C165.055 247.956 164.626 247.846 164.087 247.846C163.318 247.846 162.71 248.075 162.26 248.515C162.091 248.684 161.971 248.874 161.861 249.094C161.682 249.453 161.582 249.862 161.582 250.341C161.582 250.96 161.801 251.549 162.32 252.238C162.48 252.397 162.55 252.577 162.55 252.837C162.55 253.276 162.42 253.625 162.141 253.944C162.051 254.054 161.941 254.154 161.811 254.254C161.662 254.364 161.512 254.463 161.342 254.553C160.853 254.803 160.294 254.933 159.635 254.933C158.488 254.933 157.679 254.633 157.16 254.014C156.591 253.346 156.312 252.298 156.312 250.91C156.312 249.892 156.641 248.764 157.29 247.546C157.809 246.578 158.557 245.55 159.526 244.462C159.845 244.103 160.194 243.734 160.564 243.364C162.35 241.578 163.798 240.011 164.866 238.703C165.425 238.024 165.904 237.405 166.303 236.846C166.702 236.288 167.022 235.788 167.271 235.339L167.411 235.09V231.886H152.429L151.281 240.07H151.301Z" fill="black"/>
<path d="M159.955 210.725L159.566 211.115V210.356C159.566 208.36 161.183 206.733 163.189 206.733V206.314H155.543V206.733C157.539 206.733 159.166 208.35 159.166 210.356V211.115L158.777 210.715C156.921 208.869 153.926 208.869 152.07 210.715C150.213 212.572 150.213 215.566 152.07 217.423L159.376 224.729L166.682 217.423C168.539 215.566 168.539 212.572 166.682 210.715C164.826 208.869 161.831 208.869 159.975 210.715L159.955 210.725Z" fill="black"/>
</svg>
