<svg width="178" height="267" viewBox="0 0 178 267" fill="none" xmlns="http://www.w3.org/2000/svg">
<path d="M166.771 0.359329H10.979C4.91548 0.359329 0 5.27499 0 11.3388V256.021C0 262.084 4.91548 267 10.979 267H166.771C172.835 267 177.75 262.084 177.75 256.021V11.3388C177.75 5.27499 172.835 0.359329 166.771 0.359329Z" fill="white"/>
<path d="M17.0776 32.569C16.868 32.569 16.6883 32.5491 16.5785 32.4991C16.5685 32.4692 16.5186 32.3295 16.5186 32.0101C16.5186 31.3014 16.3889 30.6626 16.1393 30.1036C15.9197 29.6245 15.3608 28.826 14.0133 28.826C12.7557 28.826 12.1468 29.5048 11.8973 29.904C11.5579 30.453 11.3782 31.0219 11.3782 31.6008C11.3782 32.9084 12.0171 34.0063 13.2148 34.7649C14.2728 35.4337 15.5205 35.773 16.9279 35.773C20.0221 35.773 22.4575 34.3058 24.1942 31.4212C25.8212 28.7162 26.6397 25.2727 26.6397 21.2103C26.6397 17.4773 25.921 14.5627 24.4937 12.5265C22.9865 10.3706 20.8605 9.28262 18.1755 9.28262C15.4905 9.28262 13.5941 10.171 12.1768 11.9177C10.8093 13.5945 10.1206 15.7006 10.1206 18.166C10.1206 21.0406 10.7894 23.1866 12.0969 24.554C13.4144 25.9314 15.1811 26.6301 17.3371 26.6301C18.974 26.6301 20.3614 26.181 21.4793 25.2926C21.1899 27.5584 20.7307 29.2652 20.1119 30.3931C19.0239 32.3594 17.8561 32.589 17.0576 32.589L17.0776 32.569ZM20.5012 21.6095C19.0439 23.4661 16.9578 23.7156 15.6702 21.9788C15.0314 21.1205 14.712 19.773 14.712 17.9863C14.712 16.1997 15.0314 14.8322 15.6702 13.7642C16.2092 12.8559 17.0077 12.4367 18.1855 12.4367C19.4431 12.4367 20.2816 12.8959 20.8206 13.874C21.4594 15.0418 21.7888 16.6588 21.7888 18.685C21.7888 19.5334 21.3596 20.5216 20.5012 21.6095Z" fill="black"/>
<path d="M160.404 240.769C158.767 240.769 157.38 241.218 156.262 242.107C156.551 239.851 157.01 238.134 157.629 237.006C158.717 235.03 159.885 234.81 160.683 234.81C160.893 234.81 161.073 234.83 161.182 234.88C161.192 234.91 161.242 235.05 161.242 235.369C161.242 236.078 161.372 236.717 161.622 237.286C161.831 237.765 162.4 238.563 163.748 238.563C165.005 238.563 165.614 237.885 165.864 237.485C166.203 236.936 166.383 236.367 166.383 235.788C166.383 234.481 165.744 233.383 164.546 232.634C163.488 231.966 162.241 231.626 160.833 231.626C157.739 231.626 155.304 233.093 153.567 235.978C151.94 238.683 151.121 242.127 151.121 246.189C151.121 249.922 151.84 252.847 153.267 254.873C154.774 257.029 156.901 258.127 159.585 258.127C162.27 258.127 164.167 257.238 165.584 255.492C166.952 253.815 167.64 251.709 167.64 249.243C167.64 246.369 166.972 244.223 165.664 242.855C164.347 241.478 162.58 240.779 160.424 240.779L160.404 240.769ZM162.081 253.595C161.542 254.503 160.743 254.923 159.566 254.923C158.308 254.923 157.469 254.463 156.93 253.485C156.292 252.317 155.962 250.701 155.962 248.674C155.962 247.826 156.391 246.838 157.25 245.75C158.707 243.893 160.793 243.644 162.081 245.38C162.72 246.239 163.039 247.586 163.039 249.373C163.039 251.16 162.72 252.527 162.081 253.595Z" fill="black"/>
<path d="M18.3952 42.6202L11.0889 49.9265C9.2324 51.783 9.2324 54.7774 11.0889 56.6339C12.9454 58.4905 15.9398 58.4905 17.7964 56.6339L18.1856 56.2447V57.0032C18.1856 58.9995 16.5687 60.6265 14.5624 60.6265V61.0457H22.2081V60.6265C20.2118 60.6265 18.5849 59.0095 18.5849 57.0032V56.2447L18.9742 56.6339C20.8307 58.4905 23.8251 58.4905 25.6816 56.6339C27.5381 54.7774 27.5381 51.783 25.6816 49.9265L18.3753 42.6202H18.3952Z" fill="black"/>
<path d="M56.2925 30.0138L43.3273 42.9795C40.0436 46.2634 40.0436 51.5934 43.3273 54.8772C46.611 58.1611 51.9408 58.1611 55.2246 54.8772L55.9232 54.1785V55.526C55.9232 59.0694 53.0487 61.944 49.5055 61.944V62.6926H63.0796V61.944C59.5363 61.944 56.6518 59.0694 56.6518 55.526V54.1785L57.3505 54.8772C60.6342 58.1611 65.9641 58.1611 69.2578 54.8772C72.5415 51.5934 72.5415 46.2634 69.2578 42.9795L56.2925 30.0138Z" fill="black"/>
<path d="M57.3505 212.482L56.6518 213.181V211.833C56.6518 208.29 59.5264 205.405 63.0696 205.405V204.657H49.4955V205.405C53.0387 205.405 55.9232 208.28 55.9232 211.833V213.181L55.2246 212.482C51.9408 209.198 46.611 209.198 43.3273 212.482C40.0436 215.766 40.0436 221.096 43.3273 224.38L56.2925 237.346L69.2578 224.38C72.5415 221.096 72.5415 215.766 69.2578 212.482C65.974 209.198 60.6442 209.198 57.3605 212.482H57.3505Z" fill="black"/>
<path d="M121.468 30.0138L108.503 42.9795C105.219 46.2634 105.219 51.5934 108.503 54.8772C111.787 58.1611 117.116 58.1611 120.4 54.8772L121.099 54.1785V55.526C121.099 59.0694 118.224 61.944 114.681 61.944V62.6926H128.255V61.944C124.712 61.944 121.827 59.0694 121.827 55.526V54.1785L122.526 54.8772C125.81 58.1611 131.14 58.1611 134.423 54.8772C137.707 51.5934 137.707 46.2634 134.423 42.9795L121.458 30.0138H121.468Z" fill="black"/>
<path d="M56.2925 88.9834L43.3273 101.949C40.0436 105.233 40.0436 110.563 43.3273 113.847C46.611 117.131 51.9408 117.131 55.2246 113.847L55.9232 113.148V114.496C55.9232 118.039 53.0487 120.924 49.5055 120.924V121.672H63.0796V120.924C59.5363 120.924 56.6518 118.049 56.6518 114.496V113.148L57.3505 113.847C60.6342 117.131 65.9641 117.131 69.2578 113.847C72.5415 110.563 72.5415 105.233 69.2578 101.949L56.2925 88.9834Z" fill="black"/>
<path d="M121.468 88.9834L108.503 101.949C105.219 105.233 105.219 110.563 108.503 113.847C111.787 117.131 117.116 117.131 120.4 113.847L121.099 113.148V114.496C121.099 118.039 118.224 120.924 114.681 120.924V121.672H128.255V120.924C124.712 120.924 121.827 118.049 121.827 114.496V113.148L122.526 113.847C125.81 117.131 131.14 117.131 134.423 113.847C137.707 110.563 137.707 105.233 134.423 101.949L121.458 88.9834H121.468Z" fill="black"/>
<path d="M88.8802 117.34L75.9149 130.306C72.6312 133.59 72.6312 138.92 75.9149 142.204C79.1987 145.488 84.5285 145.488 87.8122 142.204L88.5109 141.505V142.852C88.5109 146.396 85.6364 149.28 82.0931 149.28V150.029H95.6672V149.28C92.124 149.28 89.2395 146.406 89.2395 142.852V141.505L89.9382 142.204C93.2219 145.488 98.5517 145.488 101.835 142.204C105.119 138.92 105.119 133.59 101.835 130.306L88.8702 117.34H88.8802Z" fill="black"/>
<path d="M122.526 212.482L121.827 213.181V211.833C121.827 208.29 124.702 205.405 128.245 205.405V204.657H114.671V205.405C118.214 205.405 121.099 208.28 121.099 211.833V213.181L120.4 212.482C117.116 209.198 111.787 209.198 108.503 212.482C105.219 215.766 105.219 221.096 108.503 224.38L121.468 237.346L134.433 224.38C137.717 221.096 137.717 215.766 134.433 212.482C131.15 209.198 125.82 209.198 122.536 212.482H122.526Z" fill="black"/>
<path d="M57.3505 155.788L56.6518 156.487V155.139C56.6518 151.596 59.5264 148.712 63.0696 148.712V147.973H49.4955V148.712C53.0387 148.712 55.9232 151.586 55.9232 155.139V156.487L55.2246 155.788C51.9408 152.504 46.611 152.504 43.3273 155.788C40.0436 159.072 40.0436 164.402 43.3273 167.686L56.2925 180.652L69.2578 167.686C72.5415 164.402 72.5415 159.072 69.2578 155.788C65.974 152.504 60.6442 152.504 57.3605 155.788H57.3505Z" fill="black"/>
<path d="M122.526 155.788L121.827 156.487V155.139C121.827 151.596 124.702 148.712 128.245 148.712V147.973H114.671V148.712C118.214 148.712 121.099 151.586 121.099 155.139V156.487L120.4 155.788C117.116 152.504 111.787 152.504 108.503 155.788C105.219 159.072 105.219 164.402 108.503 167.686L121.468 180.652L134.433 167.686C137.717 164.402 137.717 159.072 134.433 155.788C131.15 152.504 125.82 152.504 122.536 155.788H122.526Z" fill="black"/>
<path d="M159.965 210.725L159.576 211.115V210.356C159.576 208.36 161.193 206.733 163.199 206.733V206.314H155.553V206.733C157.549 206.733 159.176 208.35 159.176 210.356V211.115L158.787 210.715C156.931 208.869 153.936 208.869 152.08 210.715C150.223 212.572 150.223 215.566 152.08 217.423L159.386 224.729L166.692 217.423C168.549 215.566 168.549 212.572 166.692 210.715C164.836 208.869 161.841 208.869 159.985 210.715L159.965 210.725Z" fill="black"/>
</svg>
