<svg width="178" height="267" viewBox="0 0 178 267" fill="none" xmlns="http://www.w3.org/2000/svg">
<path d="M166.771 0.359329H10.979C4.91548 0.359329 0 5.27499 0 11.3388V256.021C0 262.084 4.91548 267 10.979 267H166.771C172.835 267 177.75 262.084 177.75 256.021V11.3388C177.75 5.27499 172.835 0.359329 166.771 0.359329Z" fill="white"/>
<path d="M11.5878 24.015C10.6696 25.3126 10.2004 26.8797 10.2004 28.6763C10.2004 30.5827 11.0289 32.2596 12.6658 33.6769C14.2529 35.0544 16.1792 35.753 18.3851 35.753C20.7906 35.753 22.7669 35.0444 24.2741 33.657C25.8012 32.2396 26.5698 30.4729 26.5698 28.4068C26.5698 26.8996 26.1306 25.4723 25.2722 24.1847C24.7033 23.3463 23.9347 22.5478 22.9665 21.8092C23.8349 21.2103 24.5336 20.5515 25.0426 19.8229C25.8711 18.665 26.2903 17.3974 26.2903 16.0599C26.2903 14.1735 25.5617 12.5465 24.1244 11.219C22.717 9.92142 20.8804 9.26265 18.6546 9.26265C16.2491 9.26265 14.3127 9.92142 12.9054 11.219C11.4681 12.5465 10.7394 14.1735 10.7394 16.0599C10.7394 17.4972 11.1586 18.8048 11.9871 19.9626C12.4662 20.6413 13.0751 21.2402 13.7937 21.7792C12.8854 22.4579 12.1468 23.2065 11.5679 24.025L11.5878 24.015ZM15.79 13.4149C16.309 12.7761 17.2772 12.4467 18.6746 12.4467C19.8923 12.4467 20.7407 12.7761 21.2597 13.4648C21.8586 14.2433 22.1381 15.1416 22.1381 16.1897C22.1381 17.088 21.9285 17.8366 21.4893 18.4854C21.11 19.0443 20.561 19.5434 19.8424 19.9626C18.2653 19.3238 17.0177 18.5952 16.1493 17.7967C15.3308 17.0481 14.9116 16.3194 14.9116 15.6307C14.9116 14.8622 15.1911 14.1335 15.78 13.4049L15.79 13.4149ZM15.1412 25.602C15.5704 24.8135 16.1393 24.1448 16.868 23.5659C18.6646 24.3644 20.032 25.2228 20.9403 26.1311C21.8386 27.0294 22.2778 27.9077 22.2778 28.816C22.2778 29.9439 21.9784 30.8422 21.3595 31.5709C20.8006 32.2296 19.8025 32.569 18.3851 32.569C17.1874 32.569 16.2391 32.2197 15.4706 31.491C14.722 30.7824 14.3626 29.8641 14.3626 28.6863C14.3626 27.5085 14.6122 26.5603 15.1312 25.612L15.1412 25.602Z" fill="black"/>
<path d="M166.163 243.354C167.081 242.057 167.55 240.49 167.55 238.693C167.55 236.787 166.722 235.11 165.085 233.692C163.498 232.315 161.572 231.616 159.366 231.616C156.96 231.616 154.974 232.325 153.477 233.712C151.95 235.13 151.181 236.896 151.181 238.972C151.181 240.48 151.62 241.907 152.479 243.195C153.038 244.033 153.816 244.832 154.784 245.57C153.916 246.169 153.217 246.828 152.708 247.556C151.88 248.714 151.461 249.982 151.461 251.319C151.461 253.206 152.189 254.833 153.627 256.16C155.034 257.458 156.87 258.117 159.096 258.117C161.502 258.117 163.438 257.458 164.846 256.16C166.283 254.833 167.012 253.206 167.012 251.319C167.012 249.882 166.592 248.575 165.764 247.417C165.285 246.748 164.676 246.139 163.957 245.6C164.866 244.921 165.604 244.173 166.183 243.354H166.163ZM161.961 253.954C161.442 254.603 160.474 254.923 159.076 254.923C157.859 254.923 157.01 254.593 156.491 253.905C155.892 253.126 155.603 252.228 155.603 251.18C155.603 250.281 155.812 249.533 156.252 248.884C156.631 248.325 157.18 247.826 157.899 247.407C159.476 248.045 160.723 248.774 161.592 249.573C162.41 250.321 162.829 251.05 162.829 251.739C162.829 252.507 162.55 253.236 161.961 253.954ZM162.62 241.767C162.191 242.556 161.622 243.225 160.893 243.803C159.096 243.005 157.729 242.147 156.821 241.238C155.912 240.34 155.483 239.462 155.483 238.553C155.483 237.425 155.783 236.527 156.401 235.798C156.96 235.14 157.958 234.8 159.376 234.8C160.574 234.8 161.522 235.15 162.29 235.878C163.039 236.587 163.398 237.505 163.398 238.683C163.398 239.861 163.149 240.809 162.63 241.757L162.62 241.767Z" fill="black"/>
<path d="M18.3952 42.6202L11.0889 49.9265C9.2324 51.783 9.2324 54.7774 11.0889 56.6339C12.9454 58.4905 15.9398 58.4905 17.7964 56.6339L18.1856 56.2447V57.0032C18.1856 58.9995 16.5687 60.6265 14.5624 60.6265V61.0457H22.2081V60.6265C20.2118 60.6265 18.5849 59.0095 18.5849 57.0032V56.2447L18.9742 56.6339C20.8307 58.4905 23.8251 58.4905 25.6816 56.6339C27.5381 54.7774 27.5381 51.783 25.6816 49.9265L18.3753 42.6202H18.3952Z" fill="black"/>
<path d="M56.2925 30.0138L43.3273 42.9795C40.0436 46.2634 40.0436 51.5934 43.3273 54.8772C46.611 58.1611 51.9408 58.1611 55.2246 54.8772L55.9232 54.1785V55.526C55.9232 59.0694 53.0487 61.944 49.5055 61.944V62.6926H63.0796V61.944C59.5363 61.944 56.6518 59.0694 56.6518 55.526V54.1785L57.3505 54.8772C60.6342 58.1611 65.9641 58.1611 69.2578 54.8772C72.5415 51.5934 72.5415 46.2634 69.2578 42.9795L56.2925 30.0138Z" fill="black"/>
<path d="M57.3505 212.482L56.6518 213.181V211.833C56.6518 208.29 59.5263 205.405 63.0696 205.405V204.657H49.4955V205.405C53.0387 205.405 55.9232 208.28 55.9232 211.833V213.181L55.2245 212.482C51.9408 209.198 46.611 209.198 43.3173 212.482C40.0336 215.766 40.0336 221.096 43.3173 224.38L56.2825 237.346L69.2478 224.38C72.5315 221.096 72.5315 215.766 69.2478 212.482C65.964 209.198 60.6342 209.198 57.3505 212.482Z" fill="black"/>
<path d="M121.468 30.0138L108.503 42.9795C105.219 46.2634 105.219 51.5934 108.503 54.8772C111.787 58.1611 117.116 58.1611 120.41 54.8772L121.109 54.1785V55.526C121.109 59.0694 118.234 61.944 114.691 61.944V62.6926H128.265V61.944C124.722 61.944 121.847 59.0694 121.847 55.526V54.1785L122.546 54.8772C125.83 58.1611 131.16 58.1611 134.443 54.8772C137.727 51.5934 137.727 46.2634 134.443 42.9795L121.478 30.0138H121.468Z" fill="black"/>
<path d="M88.8802 73.672L75.9149 86.6378C72.6312 89.9216 72.6312 95.2516 75.9149 98.5455C79.1987 101.829 84.5285 101.829 87.8222 98.5455L88.5209 97.8468V99.1942C88.5209 102.738 85.6464 105.622 82.1031 105.622V106.371H95.6772V105.622C92.134 105.622 89.2595 102.748 89.2595 99.1942V97.8468L89.9581 98.5455C93.2418 101.829 98.5717 101.829 101.855 98.5455C105.139 95.2616 105.139 89.9316 101.855 86.6378L88.8902 73.672H88.8802Z" fill="black"/>
<path d="M89.9381 168.824L89.2395 169.523V168.175C89.2395 164.632 92.114 161.747 95.6572 161.747V161.008H82.0831V161.747C85.6264 161.747 88.5109 164.622 88.5109 168.175V169.523L87.8122 168.824C84.5285 165.54 79.1986 165.54 75.9049 168.824C72.6212 172.108 72.6212 177.438 75.9049 180.722L88.8702 193.687L101.835 180.722C105.119 177.438 105.119 172.108 101.835 168.824C98.5517 165.54 93.2219 165.54 89.9381 168.824Z" fill="black"/>
<path d="M56.2925 117.34L43.3273 130.306C40.0436 133.59 40.0436 138.92 43.3273 142.204C46.611 145.488 51.9408 145.488 55.2246 142.204L55.9232 141.505V142.852C55.9232 146.396 53.0487 149.28 49.5055 149.28V150.029H63.0796V149.28C59.5363 149.28 56.6518 146.406 56.6518 142.852V141.505L57.3505 142.204C60.6342 145.488 65.9641 145.488 69.2578 142.204C72.5415 138.92 72.5415 133.59 69.2578 130.306L56.2925 117.34Z" fill="black"/>
<path d="M121.468 117.34L108.503 130.306C105.219 133.59 105.219 138.92 108.503 142.204C111.787 145.488 117.116 145.488 120.41 142.204L121.109 141.505V142.852C121.109 146.396 118.234 149.28 114.691 149.28V150.029H128.265V149.28C124.722 149.28 121.847 146.406 121.847 142.852V141.505L122.546 142.204C125.83 145.488 131.16 145.488 134.443 142.204C137.727 138.92 137.727 133.59 134.443 130.306L121.478 117.34H121.468Z" fill="black"/>
<path d="M122.526 212.482L121.827 213.181V211.833C121.827 208.29 124.702 205.405 128.245 205.405V204.657H114.671V205.405C118.214 205.405 121.089 208.28 121.089 211.833V213.181L120.39 212.482C117.106 209.198 111.777 209.198 108.493 212.482C105.209 215.766 105.209 221.096 108.493 224.38L121.458 237.346L134.423 224.38C137.707 221.096 137.707 215.766 134.423 212.482C131.14 209.198 125.81 209.198 122.516 212.482H122.526Z" fill="black"/>
<path d="M159.965 210.725L159.576 211.115V210.356C159.576 208.36 161.193 206.733 163.199 206.733V206.314H155.553V206.733C157.549 206.733 159.176 208.35 159.176 210.356V211.115L158.787 210.715C156.931 208.869 153.936 208.869 152.08 210.715C150.223 212.572 150.223 215.566 152.08 217.423L159.386 224.729L166.692 217.423C168.549 215.566 168.549 212.572 166.692 210.715C164.836 208.869 161.841 208.869 159.985 210.715L159.965 210.725Z" fill="black"/>
</svg>
