<svg width="178" height="267" viewBox="0 0 178 267" fill="none" xmlns="http://www.w3.org/2000/svg">
<path d="M166.771 0.359329H10.979C4.91548 0.359329 0 5.27499 0 11.3388V256.021C0 262.084 4.91548 267 10.979 267H166.771C172.835 267 177.75 262.084 177.75 256.021V11.3388C177.75 5.27499 172.835 0.359329 166.771 0.359329Z" fill="white"/>
<path d="M15.9597 28.816C15.9597 28.3569 15.8299 27.8778 15.5604 27.3388C15.3408 26.8996 14.7719 26.171 13.4643 26.171C12.566 26.171 11.8074 26.5303 11.2685 27.219C10.7894 27.8279 10.5498 28.5465 10.5498 29.365C10.5498 31.1117 11.3483 32.6089 12.9353 33.7867C14.4226 34.9046 16.1393 35.4636 18.0458 35.4636C20.8006 35.4636 22.8867 34.5753 24.2641 32.8185C25.5717 31.1417 26.2304 28.9059 26.2304 26.171C26.2304 23.6956 25.5817 21.6594 24.304 20.1223C22.9765 18.5253 21.2398 17.7068 19.1437 17.7068C18.1057 17.7068 17.0876 17.8665 16.0994 18.176C15.7301 18.2957 15.3708 18.4654 15.0114 18.695L15.3209 13.5446H25.1824L26.0408 9.24269H12.2566L11.4481 23.9651L12.4662 24.0749C12.7357 24.1049 12.9952 24.1348 13.2547 24.1647L14.4924 24.3045L14.8418 23.6457C15.5105 22.408 16.0794 21.9389 16.4388 21.7493C17.0277 21.4598 17.7463 21.3101 18.5848 21.3101C19.5929 21.3101 20.2616 21.6794 20.7507 22.5078C21.3396 23.486 21.639 24.8135 21.639 26.4505C21.639 28.4367 21.2997 29.9639 20.6409 30.982C20.062 31.8703 19.2735 32.2796 18.1655 32.2796C17.2872 32.2796 16.4987 32.1298 15.7501 31.8104C15.1113 31.5409 15.1113 31.3014 15.1113 31.1716C15.1113 31.0219 15.2211 30.8422 15.2011 30.8422C15.6902 30.3532 15.9397 29.6644 15.9397 28.8061L15.9597 28.816Z" fill="black"/>
<path d="M164.816 233.563C163.328 232.445 161.612 231.886 159.705 231.886C156.95 231.886 154.864 232.774 153.487 234.531C152.179 236.198 151.521 238.443 151.521 241.178C151.521 243.654 152.169 245.69 153.447 247.227C154.774 248.824 156.511 249.642 158.607 249.642C159.645 249.642 160.663 249.483 161.652 249.173C162.021 249.054 162.38 248.884 162.74 248.644L162.43 253.795H152.569L151.71 258.097H165.494L166.303 243.374L165.285 243.264C165.015 243.234 164.756 243.205 164.496 243.175L163.259 243.035L162.909 243.694C162.24 244.931 161.671 245.4 161.312 245.59C160.723 245.88 160.005 246.029 159.166 246.029C158.158 246.029 157.489 245.66 157 244.832C156.411 243.853 156.122 242.526 156.122 240.889C156.122 238.903 156.461 237.375 157.12 236.357C157.699 235.469 158.487 235.06 159.595 235.06C160.474 235.06 161.262 235.21 162.011 235.529C162.65 235.798 162.65 236.038 162.65 236.168C162.65 236.317 162.54 236.497 162.56 236.497C162.071 236.986 161.821 237.675 161.821 238.533C161.821 238.992 161.951 239.472 162.22 240.011C162.44 240.44 163.009 241.178 164.317 241.178C165.215 241.178 165.973 240.809 166.512 240.13C166.992 239.521 167.231 238.803 167.231 237.994C167.231 236.248 166.433 234.75 164.846 233.573L164.816 233.563Z" fill="black"/>
<path d="M18.3952 42.6202L11.0889 49.9265C9.2324 51.783 9.2324 54.7774 11.0889 56.6339C12.9454 58.4905 15.9398 58.4905 17.7964 56.6339L18.1856 56.2447V57.0032C18.1856 58.9995 16.5687 60.6265 14.5624 60.6265V61.0457H22.2081V60.6265C20.2118 60.6265 18.5849 59.0095 18.5849 57.0032V56.2447L18.9742 56.6339C20.8307 58.4905 23.8251 58.4905 25.6816 56.6339C27.5381 54.7774 27.5381 51.783 25.6816 49.9265L18.3753 42.6202H18.3952Z" fill="black"/>
<path d="M56.2925 30.0138L43.3273 42.9795C40.0436 46.2634 40.0436 51.5934 43.3273 54.8772C46.611 58.1611 51.9408 58.1611 55.2246 54.8772L55.9232 54.1785V55.526C55.9232 59.0694 53.0487 61.944 49.5055 61.944V62.6926H63.0796V61.944C59.5363 61.944 56.6518 59.0694 56.6518 55.526V54.1785L57.3505 54.8772C60.6342 58.1611 65.9641 58.1611 69.2478 54.8772C72.5315 51.5934 72.5315 46.2634 69.2478 42.9795L56.2826 30.0138H56.2925Z" fill="black"/>
<path d="M88.8802 117.34L75.9149 130.306C72.6312 133.59 72.6312 138.92 75.9149 142.204C79.1987 145.488 84.5285 145.488 87.8122 142.204L88.5109 141.505V142.852C88.5109 146.396 85.6364 149.28 82.0931 149.28V150.029H95.6672V149.28C92.124 149.28 89.2395 146.406 89.2395 142.852V141.505L89.9382 142.204C93.2219 145.488 98.5517 145.488 101.835 142.204C105.119 138.92 105.119 133.59 101.835 130.306L88.8702 117.34H88.8802Z" fill="black"/>
<path d="M57.3505 212.482L56.6518 213.181V211.833C56.6518 208.29 59.5264 205.405 63.0696 205.405V204.657H49.4955V205.405C53.0387 205.405 55.9232 208.28 55.9232 211.833V213.181L55.2246 212.482C51.9408 209.198 46.611 209.198 43.3273 212.482C40.0436 215.766 40.0436 221.096 43.3273 224.38L56.2925 237.346L69.2578 224.38C72.5415 221.096 72.5415 215.766 69.2578 212.482C65.974 209.198 60.6442 209.198 57.3605 212.482H57.3505Z" fill="black"/>
<path d="M121.468 30.0138L108.503 42.9795C105.219 46.2634 105.219 51.5934 108.503 54.8772C111.787 58.1611 117.116 58.1611 120.4 54.8772L121.099 54.1785V55.526C121.099 59.0694 118.224 61.944 114.681 61.944V62.6926H128.255V61.944C124.712 61.944 121.827 59.0694 121.827 55.526V54.1785L122.526 54.8772C125.81 58.1611 131.14 58.1611 134.423 54.8772C137.707 51.5934 137.707 46.2634 134.423 42.9795L121.458 30.0138H121.468Z" fill="black"/>
<path d="M122.526 212.482L121.827 213.181V211.833C121.827 208.29 124.702 205.405 128.245 205.405V204.657H114.671V205.405C118.214 205.405 121.099 208.28 121.099 211.833V213.181L120.4 212.482C117.116 209.198 111.787 209.198 108.493 212.482C105.209 215.766 105.209 221.096 108.493 224.38L121.458 237.346L134.423 224.38C137.707 221.096 137.707 215.766 134.423 212.482C131.14 209.198 125.81 209.198 122.526 212.482Z" fill="black"/>
<path d="M159.955 210.725L159.566 211.115V210.356C159.566 208.36 161.183 206.733 163.189 206.733V206.314H155.543V206.733C157.539 206.733 159.166 208.35 159.166 210.356V211.115L158.777 210.715C156.921 208.869 153.926 208.869 152.07 210.715C150.213 212.572 150.213 215.566 152.07 217.423L159.376 224.729L166.682 217.423C168.539 215.566 168.539 212.572 166.682 210.715C164.826 208.869 161.831 208.869 159.975 210.715L159.955 210.725Z" fill="black"/>
</svg>
